<svg width="185" height="43" viewBox="0 0 185 43" version="1.1" xmlns="http://www.w3.org/2000/svg" xmlns:xlink="http://www.w3.org/1999/xlink">
<title>cotton</title>
<desc>Created using Figma</desc>
<g id="Canvas" transform="translate(-396 -62)">
<g id="cotton">
<g id="ORGANIC COTTON">
<use xlink:href="#path0_fill" transform="translate(395 84)" fill="#FFFFFF"/>
</g>
<g id="Oval 2 Copy 2" opacity="0.896569">
<use xlink:href="#path1_fill" transform="translate(538 62)" fill="#FFFFFF"/>
<mask id="mask0_outline_ins">
<use xlink:href="#path1_fill" fill="white" transform="translate(538 62)"/>
</mask>
<g mask="url(#mask0_outline_ins)">
<use xlink:href="#path2_stroke_2x" transform="translate(538 62)" fill="#3D2D38"/>
</g>
</g>
</g>
</g>
<defs>
<path id="path0_fill" d="M 6.0933 15.12C 5.0833 15.12 4.2033 14.9 3.4533 14.46C 2.7133 14.01 2.1383 13.375 1.7283 12.555C 1.3283 11.735 1.1283 10.77 1.1283 9.66C 1.1283 8.54 1.3283 7.57 1.7283 6.75C 2.1283 5.93 2.7033 5.3 3.4533 4.86C 4.2033 4.42 5.0833 4.2 6.0933 4.2C 7.1133 4.2 7.9933 4.42 8.7333 4.86C 9.4833 5.3 10.0583 5.93 10.4583 6.75C 10.8583 7.57 11.0583 8.535 11.0583 9.645C 11.0583 10.765 10.8583 11.735 10.4583 12.555C 10.0583 13.375 9.4833 14.01 8.7333 14.46C 7.9833 14.9 7.1033 15.12 6.0933 15.12ZM 6.0933 13.86C 7.1633 13.86 7.9933 13.495 8.5833 12.765C 9.1833 12.035 9.4833 10.995 9.4833 9.645C 9.4833 8.305 9.1833 7.275 8.5833 6.555C 7.9933 5.825 7.1633 5.46 6.0933 5.46C 5.0233 5.46 4.1933 5.825 3.6033 6.555C 3.0133 7.275 2.7183 8.305 2.7183 9.645C 2.7183 10.995 3.0133 12.035 3.6033 12.765C 4.2033 13.495 5.0333 13.86 6.0933 13.86ZM 21.7578 15L 20.1228 15L 18.7878 11.445C 18.6478 11.065 18.4428 10.805 18.1728 10.665C 17.9028 10.515 17.5328 10.44 17.0628 10.44L 14.7228 10.44L 14.7228 15L 13.1928 15L 13.1928 4.32L 17.5878 4.32C 18.7578 4.32 19.6528 4.58 20.2728 5.1C 20.9028 5.62 21.2178 6.365 21.2178 7.335C 21.2178 8.035 21.0328 8.63 20.6628 9.12C 20.2928 9.61 19.7678 9.955 19.0878 10.155C 19.7078 10.265 20.1578 10.705 20.4378 11.475L 21.7578 15ZM 17.4078 9.195C 18.1878 9.195 18.7678 9.045 19.1478 8.745C 19.5278 8.435 19.7178 7.975 19.7178 7.365C 19.7178 6.755 19.5278 6.305 19.1478 6.015C 18.7778 5.715 18.1978 5.565 17.4078 5.565L 14.7228 5.565L 14.7228 9.195L 17.4078 9.195ZM 32.2335 9.33L 32.2335 14.37C 31.7835 14.6 31.2135 14.785 30.5235 14.925C 29.8435 15.055 29.1485 15.12 28.4385 15.12C 27.3585 15.12 26.4235 14.905 25.6335 14.475C 24.8435 14.035 24.2385 13.405 23.8185 12.585C 23.4085 11.765 23.2035 10.785 23.2035 9.645C 23.2035 8.525 23.4085 7.555 23.8185 6.735C 24.2385 5.915 24.8335 5.29 25.6035 4.86C 26.3835 4.42 27.2985 4.2 28.3485 4.2C 29.0985 4.2 29.7885 4.315 30.4185 4.545C 31.0585 4.765 31.6035 5.085 32.0535 5.505L 31.4985 6.66C 30.9885 6.24 30.4885 5.94 29.9985 5.76C 29.5085 5.58 28.9635 5.49 28.3635 5.49C 27.2035 5.49 26.3185 5.845 25.7085 6.555C 25.1085 7.265 24.8085 8.295 24.8085 9.645C 24.8085 11.035 25.1185 12.09 25.7385 12.81C 26.3585 13.52 27.2735 13.875 28.4835 13.875C 29.2935 13.875 30.0735 13.755 30.8235 13.515L 30.8235 10.515L 28.3335 10.515L 28.3335 9.33L 32.2335 9.33ZM 42.7688 15L 41.6288 12.36L 36.2288 12.36L 35.0888 15L 33.5138 15L 38.2688 4.32L 39.5738 4.32L 44.3438 15L 42.7688 15ZM 36.7538 11.13L 41.1038 11.13L 38.9288 6.045L 36.7538 11.13ZM 53.0319 4.32L 54.4869 4.32L 54.4869 15L 53.3019 15L 47.1819 6.93L 47.1819 15L 45.7269 15L 45.7269 4.32L 46.8969 4.32L 53.0319 12.405L 53.0319 4.32ZM 56.9769 15L 56.9769 4.32L 58.5219 4.32L 58.5219 15L 56.9769 15ZM 65.7003 15.12C 64.6703 15.12 63.7703 14.9 63.0003 14.46C 62.2403 14.01 61.6553 13.375 61.2453 12.555C 60.8353 11.735 60.6303 10.765 60.6303 9.645C 60.6303 8.535 60.8353 7.57 61.2453 6.75C 61.6553 5.93 62.2403 5.3 63.0003 4.86C 63.7703 4.42 64.6703 4.2 65.7003 4.2C 66.4303 4.2 67.1053 4.315 67.7253 4.545C 68.3553 4.765 68.8853 5.09 69.3153 5.52L 68.7753 6.66C 68.2753 6.25 67.7803 5.955 67.2903 5.775C 66.8103 5.585 66.2853 5.49 65.7153 5.49C 64.6053 5.49 63.7453 5.85 63.1353 6.57C 62.5353 7.29 62.2353 8.315 62.2353 9.645C 62.2353 10.985 62.5353 12.02 63.1353 12.75C 63.7453 13.47 64.6053 13.83 65.7153 13.83C 66.2853 13.83 66.8103 13.74 67.2903 13.56C 67.7803 13.37 68.2753 13.07 68.7753 12.66L 69.3153 13.8C 68.8853 14.23 68.3553 14.56 67.7253 14.79C 67.1053 15.01 66.4303 15.12 65.7003 15.12ZM 79.9532 15.12C 78.9232 15.12 78.0232 14.9 77.2532 14.46C 76.4932 14.01 75.9082 13.375 75.4982 12.555C 75.0882 11.735 74.8832 10.765 74.8832 9.645C 74.8832 8.535 75.0882 7.57 75.4982 6.75C 75.9082 5.93 76.4932 5.3 77.2532 4.86C 78.0232 4.42 78.9232 4.2 79.9532 4.2C 80.6832 4.2 81.3582 4.315 81.9782 4.545C 82.6082 4.765 83.1382 5.09 83.5682 5.52L 83.0282 6.66C 82.5282 6.25 82.0332 5.955 81.5432 5.775C 81.0632 5.585 80.5382 5.49 79.9682 5.49C 78.8582 5.49 77.9982 5.85 77.3882 6.57C 76.7882 7.29 76.4882 8.315 76.4882 9.645C 76.4882 10.985 76.7882 12.02 77.3882 12.75C 77.9982 13.47 78.8582 13.83 79.9682 13.83C 80.5382 13.83 81.0632 13.74 81.5432 13.56C 82.0332 13.37 82.5282 13.07 83.0282 12.66L 83.5682 13.8C 83.1382 14.23 82.6082 14.56 81.9782 14.79C 81.3582 15.01 80.6832 15.12 79.9532 15.12ZM 89.9263 15.12C 88.9163 15.12 88.0363 14.9 87.2863 14.46C 86.5463 14.01 85.9713 13.375 85.5613 12.555C 85.1613 11.735 84.9613 10.77 84.9613 9.66C 84.9613 8.54 85.1613 7.57 85.5613 6.75C 85.9613 5.93 86.5363 5.3 87.2863 4.86C 88.0363 4.42 88.9163 4.2 89.9263 4.2C 90.9463 4.2 91.8263 4.42 92.5663 4.86C 93.3163 5.3 93.8913 5.93 94.2913 6.75C 94.6913 7.57 94.8913 8.535 94.8913 9.645C 94.8913 10.765 94.6913 11.735 94.2913 12.555C 93.8913 13.375 93.3163 14.01 92.5663 14.46C 91.8163 14.9 90.9363 15.12 89.9263 15.12ZM 89.9263 13.86C 90.9963 13.86 91.8263 13.495 92.4163 12.765C 93.0163 12.035 93.3163 10.995 93.3163 9.645C 93.3163 8.305 93.0163 7.275 92.4163 6.555C 91.8263 5.825 90.9963 5.46 89.9263 5.46C 88.8563 5.46 88.0263 5.825 87.4363 6.555C 86.8463 7.275 86.5513 8.305 86.5513 9.645C 86.5513 10.995 86.8463 12.035 87.4363 12.765C 88.0363 13.495 88.8663 13.86 89.9263 13.86ZM 98.9312 15L 98.9312 5.61L 95.3162 5.61L 95.3162 4.32L 104.106 4.32L 104.106 5.61L 100.491 5.61L 100.491 15L 98.9312 15ZM 108.087 15L 108.087 5.61L 104.472 5.61L 104.472 4.32L 113.262 4.32L 113.262 5.61L 109.647 5.61L 109.647 15L 108.087 15ZM 118.637 15.12C 117.627 15.12 116.747 14.9 115.997 14.46C 115.257 14.01 114.682 13.375 114.272 12.555C 113.872 11.735 113.672 10.77 113.672 9.66C 113.672 8.54 113.872 7.57 114.272 6.75C 114.672 5.93 115.247 5.3 115.997 4.86C 116.747 4.42 117.627 4.2 118.637 4.2C 119.657 4.2 120.537 4.42 121.277 4.86C 122.027 5.3 122.602 5.93 123.002 6.75C 123.402 7.57 123.602 8.535 123.602 9.645C 123.602 10.765 123.402 11.735 123.002 12.555C 122.602 13.375 122.027 14.01 121.277 14.46C 120.527 14.9 119.647 15.12 118.637 15.12ZM 118.637 13.86C 119.707 13.86 120.537 13.495 121.127 12.765C 121.727 12.035 122.027 10.995 122.027 9.645C 122.027 8.305 121.727 7.275 121.127 6.555C 120.537 5.825 119.707 5.46 118.637 5.46C 117.567 5.46 116.737 5.825 116.147 6.555C 115.557 7.275 115.262 8.305 115.262 9.645C 115.262 10.995 115.557 12.035 116.147 12.765C 116.747 13.495 117.577 13.86 118.637 13.86ZM 133.042 4.32L 134.497 4.32L 134.497 15L 133.312 15L 127.192 6.93L 127.192 15L 125.737 15L 125.737 4.32L 126.907 4.32L 133.042 12.405L 133.042 4.32Z"/>
<path id="path1_fill" fill-rule="evenodd" d="M 21.5 43C 33.3741 43 43 33.3741 43 21.5C 43 9.62588 33.3741 0 21.5 0C 9.62588 0 0 9.62588 0 21.5C 0 33.3741 9.62588 43 21.5 43Z"/>
<path id="path2_stroke_2x" d="M 21.5 46C 35.031 46 46 35.031 46 21.5L 40 21.5C 40 31.7173 31.7173 40 21.5 40L 21.5 46ZM 46 21.5C 46 7.96902 35.031 -3 21.5 -3L 21.5 3C 31.7173 3 40 11.2827 40 21.5L 46 21.5ZM 21.5 -3C 7.96902 -3 -3 7.96902 -3 21.5L 3 21.5C 3 11.2827 11.2827 3 21.5 3L 21.5 -3ZM -3 21.5C -3 35.031 7.96902 46 21.5 46L 21.5 40C 11.2827 40 3 31.7173 3 21.5L -3 21.5Z"/>
</defs>
</svg>
