<svg width="211" height="43" viewBox="0 0 211 43" version="1.1" xmlns="http://www.w3.org/2000/svg" xmlns:xlink="http://www.w3.org/1999/xlink">
<title>Polyester</title>
<desc>Created using Figma</desc>
<g id="Canvas" transform="translate(-298 58)">
<g id="Polyester">
<g id="RECYCLED POLYESTER">
<use xlink:href="#path0_fill" transform="translate(297 -36)" fill="#FFFFFF"/>
</g>
<g id="Oval 2" opacity="0.896569">
<use xlink:href="#path1_fill" transform="translate(466 -58)" fill="#FFFFFF"/>
<mask id="mask0_outline_ins">
<use xlink:href="#path1_fill" fill="white" transform="translate(466 -58)"/>
</mask>
<g mask="url(#mask0_outline_ins)">
<use xlink:href="#path2_stroke_2x" transform="translate(466 -58)" fill="#3D2D38"/>
</g>
</g>
</g>
</g>
<defs>
<path id="path0_fill" d="M 10.1982 15L 8.56318 15L 7.22818 11.445C 7.08818 11.065 6.88318 10.805 6.61318 10.665C 6.34318 10.515 5.97318 10.44 5.50318 10.44L 3.16318 10.44L 3.16318 15L 1.63318 15L 1.63318 4.32L 6.02818 4.32C 7.19818 4.32 8.09318 4.58 8.71318 5.1C 9.34318 5.62 9.65818 6.365 9.65818 7.335C 9.65818 8.035 9.47318 8.63 9.10318 9.12C 8.73318 9.61 8.20818 9.955 7.52818 10.155C 8.14818 10.265 8.59818 10.705 8.87818 11.475L 10.1982 15ZM 5.84818 9.195C 6.62818 9.195 7.20818 9.045 7.58818 8.745C 7.96818 8.435 8.15818 7.975 8.15818 7.365C 8.15818 6.755 7.96818 6.305 7.58818 6.015C 7.21818 5.715 6.63818 5.565 5.84818 5.565L 3.16318 5.565L 3.16318 9.195L 5.84818 9.195ZM 12.0922 15L 12.0922 4.32L 19.0222 4.32L 19.0222 5.58L 13.6222 5.58L 13.6222 8.94L 18.7222 8.94L 18.7222 10.2L 13.6222 10.2L 13.6222 13.74L 19.0222 13.74L 19.0222 15L 12.0922 15ZM 25.6055 15.12C 24.5755 15.12 23.6755 14.9 22.9055 14.46C 22.1455 14.01 21.5605 13.375 21.1505 12.555C 20.7405 11.735 20.5355 10.765 20.5355 9.645C 20.5355 8.535 20.7405 7.57 21.1505 6.75C 21.5605 5.93 22.1455 5.3 22.9055 4.86C 23.6755 4.42 24.5755 4.2 25.6055 4.2C 26.3355 4.2 27.0105 4.315 27.6305 4.545C 28.2605 4.765 28.7905 5.09 29.2205 5.52L 28.6805 6.66C 28.1805 6.25 27.6855 5.955 27.1955 5.775C 26.7155 5.585 26.1905 5.49 25.6205 5.49C 24.5105 5.49 23.6505 5.85 23.0405 6.57C 22.4405 7.29 22.1405 8.315 22.1405 9.645C 22.1405 10.985 22.4405 12.02 23.0405 12.75C 23.6505 13.47 24.5105 13.83 25.6205 13.83C 26.1905 13.83 26.7155 13.74 27.1955 13.56C 27.6855 13.37 28.1805 13.07 28.6805 12.66L 29.2205 13.8C 28.7905 14.23 28.2605 14.56 27.6305 14.79C 27.0105 15.01 26.3355 15.12 25.6055 15.12ZM 39.3451 4.32L 35.0851 10.71L 35.0851 15L 33.5251 15L 33.5251 10.68L 29.2801 4.32L 31.0501 4.32L 34.3201 9.36L 37.5751 4.32L 39.3451 4.32ZM 44.2383 15.12C 43.2083 15.12 42.3083 14.9 41.5383 14.46C 40.7783 14.01 40.1933 13.375 39.7833 12.555C 39.3733 11.735 39.1683 10.765 39.1683 9.645C 39.1683 8.535 39.3733 7.57 39.7833 6.75C 40.1933 5.93 40.7783 5.3 41.5383 4.86C 42.3083 4.42 43.2083 4.2 44.2383 4.2C 44.9683 4.2 45.6433 4.315 46.2633 4.545C 46.8933 4.765 47.4233 5.09 47.8533 5.52L 47.3133 6.66C 46.8133 6.25 46.3183 5.955 45.8283 5.775C 45.3483 5.585 44.8233 5.49 44.2533 5.49C 43.1433 5.49 42.2833 5.85 41.6733 6.57C 41.0733 7.29 40.7733 8.315 40.7733 9.645C 40.7733 10.985 41.0733 12.02 41.6733 12.75C 42.2833 13.47 43.1433 13.83 44.2533 13.83C 44.8233 13.83 45.3483 13.74 45.8283 13.56C 46.3183 13.37 46.8133 13.07 47.3133 12.66L 47.8533 13.8C 47.4233 14.23 46.8933 14.56 46.2633 14.79C 45.6433 15.01 44.9683 15.12 44.2383 15.12ZM 49.7972 15L 49.7972 4.32L 51.3422 4.32L 51.3422 13.71L 56.5322 13.71L 56.5322 15L 49.7972 15ZM 58.0736 15L 58.0736 4.32L 65.0036 4.32L 65.0036 5.58L 59.6036 5.58L 59.6036 8.94L 64.7036 8.94L 64.7036 10.2L 59.6036 10.2L 59.6036 13.74L 65.0036 13.74L 65.0036 15L 58.0736 15ZM 66.9359 4.32L 70.6709 4.32C 72.4009 4.32 73.7409 4.785 74.6909 5.715C 75.6409 6.645 76.1159 7.955 76.1159 9.645C 76.1159 11.345 75.6409 12.665 74.6909 13.605C 73.7409 14.535 72.4009 15 70.6709 15L 66.9359 15L 66.9359 4.32ZM 70.5809 13.71C 73.2109 13.71 74.5259 12.355 74.5259 9.645C 74.5259 6.955 73.2109 5.61 70.5809 5.61L 68.4809 5.61L 68.4809 13.71L 70.5809 13.71ZM 82.2289 4.32L 86.6689 4.32C 87.7889 4.32 88.6589 4.595 89.2789 5.145C 89.9089 5.685 90.2239 6.425 90.2239 7.365C 90.2239 8.305 89.9039 9.05 89.2639 9.6C 88.6339 10.14 87.7689 10.41 86.6689 10.41L 83.7739 10.41L 83.7739 15L 82.2289 15L 82.2289 4.32ZM 86.4889 9.18C 87.2289 9.18 87.7839 9.025 88.1539 8.715C 88.5339 8.405 88.7239 7.955 88.7239 7.365C 88.7239 6.785 88.5339 6.34 88.1539 6.03C 87.7839 5.72 87.2289 5.565 86.4889 5.565L 83.7739 5.565L 83.7739 9.18L 86.4889 9.18ZM 96.6187 15.12C 95.6087 15.12 94.7287 14.9 93.9787 14.46C 93.2387 14.01 92.6637 13.375 92.2537 12.555C 91.8537 11.735 91.6537 10.77 91.6537 9.66C 91.6537 8.54 91.8537 7.57 92.2537 6.75C 92.6537 5.93 93.2287 5.3 93.9787 4.86C 94.7287 4.42 95.6087 4.2 96.6187 4.2C 97.6387 4.2 98.5187 4.42 99.2587 4.86C 100.009 5.3 100.584 5.93 100.984 6.75C 101.384 7.57 101.584 8.535 101.584 9.645C 101.584 10.765 101.384 11.735 100.984 12.555C 100.584 13.375 100.009 14.01 99.2587 14.46C 98.5087 14.9 97.6287 15.12 96.6187 15.12ZM 96.6187 13.86C 97.6887 13.86 98.5187 13.495 99.1087 12.765C 99.7087 12.035 100.009 10.995 100.009 9.645C 100.009 8.305 99.7087 7.275 99.1087 6.555C 98.5187 5.825 97.6887 5.46 96.6187 5.46C 95.5487 5.46 94.7187 5.825 94.1287 6.555C 93.5387 7.275 93.2437 8.305 93.2437 9.645C 93.2437 10.995 93.5387 12.035 94.1287 12.765C 94.7287 13.495 95.5587 13.86 96.6187 13.86ZM 103.718 15L 103.718 4.32L 105.263 4.32L 105.263 13.71L 110.453 13.71L 110.453 15L 103.718 15ZM 118.549 4.32L 114.289 10.71L 114.289 15L 112.729 15L 112.729 10.68L 108.484 4.32L 110.254 4.32L 113.524 9.36L 116.779 4.32L 118.549 4.32ZM 119.392 15L 119.392 4.32L 126.322 4.32L 126.322 5.58L 120.922 5.58L 120.922 8.94L 126.022 8.94L 126.022 10.2L 120.922 10.2L 120.922 13.74L 126.322 13.74L 126.322 15L 119.392 15ZM 131.603 15.12C 130.773 15.12 130.013 15.01 129.323 14.79C 128.643 14.57 128.053 14.24 127.553 13.8L 128.108 12.66C 128.628 13.08 129.168 13.385 129.728 13.575C 130.288 13.765 130.918 13.86 131.618 13.86C 132.418 13.86 133.038 13.71 133.478 13.41C 133.918 13.11 134.138 12.685 134.138 12.135C 134.138 11.675 133.933 11.33 133.523 11.1C 133.113 10.86 132.463 10.64 131.573 10.44C 130.723 10.26 130.028 10.055 129.488 9.825C 128.948 9.585 128.523 9.27 128.213 8.88C 127.903 8.48 127.748 7.97 127.748 7.35C 127.748 6.73 127.913 6.185 128.243 5.715C 128.573 5.235 129.038 4.865 129.638 4.605C 130.248 4.335 130.948 4.2 131.738 4.2C 132.488 4.2 133.188 4.315 133.838 4.545C 134.498 4.775 135.048 5.1 135.488 5.52L 134.933 6.66C 134.443 6.25 133.938 5.95 133.418 5.76C 132.898 5.56 132.343 5.46 131.753 5.46C 130.983 5.46 130.378 5.625 129.938 5.955C 129.498 6.275 129.278 6.715 129.278 7.275C 129.278 7.755 129.468 8.12 129.848 8.37C 130.238 8.62 130.858 8.845 131.708 9.045C 132.598 9.245 133.318 9.455 133.868 9.675C 134.418 9.895 134.858 10.195 135.188 10.575C 135.518 10.955 135.683 11.445 135.683 12.045C 135.683 12.665 135.518 13.205 135.188 13.665C 134.858 14.125 134.383 14.485 133.763 14.745C 133.153 14.995 132.433 15.12 131.603 15.12ZM 139.93 15L 139.93 5.61L 136.315 5.61L 136.315 4.32L 145.105 4.32L 145.105 5.61L 141.49 5.61L 141.49 15L 139.93 15ZM 146.536 15L 146.536 4.32L 153.466 4.32L 153.466 5.58L 148.066 5.58L 148.066 8.94L 153.166 8.94L 153.166 10.2L 148.066 10.2L 148.066 13.74L 153.466 13.74L 153.466 15L 146.536 15ZM 163.963 15L 162.328 15L 160.993 11.445C 160.853 11.065 160.648 10.805 160.378 10.665C 160.108 10.515 159.738 10.44 159.268 10.44L 156.928 10.44L 156.928 15L 155.398 15L 155.398 4.32L 159.793 4.32C 160.963 4.32 161.858 4.58 162.478 5.1C 163.108 5.62 163.423 6.365 163.423 7.335C 163.423 8.035 163.238 8.63 162.868 9.12C 162.498 9.61 161.973 9.955 161.293 10.155C 161.913 10.265 162.363 10.705 162.643 11.475L 163.963 15ZM 159.613 9.195C 160.393 9.195 160.973 9.045 161.353 8.745C 161.733 8.435 161.923 7.975 161.923 7.365C 161.923 6.755 161.733 6.305 161.353 6.015C 160.983 5.715 160.403 5.565 159.613 5.565L 156.928 5.565L 156.928 9.195L 159.613 9.195Z"/>
<path id="path1_fill" fill-rule="evenodd" d="M 21.5 43C 33.3741 43 43 33.3741 43 21.5C 43 9.62588 33.3741 0 21.5 0C 9.62588 0 0 9.62588 0 21.5C 0 33.3741 9.62588 43 21.5 43Z"/>
<path id="path2_stroke_2x" d="M 21.5 46C 35.031 46 46 35.031 46 21.5L 40 21.5C 40 31.7173 31.7173 40 21.5 40L 21.5 46ZM 46 21.5C 46 7.96902 35.031 -3 21.5 -3L 21.5 3C 31.7173 3 40 11.2827 40 21.5L 46 21.5ZM 21.5 -3C 7.96902 -3 -3 7.96902 -3 21.5L 3 21.5C 3 11.2827 11.2827 3 21.5 3L 21.5 -3ZM -3 21.5C -3 35.031 7.96902 46 21.5 46L 21.5 40C 11.2827 40 3 31.7173 3 21.5L -3 21.5Z"/>
</defs>
</svg>
