<svg width="191" height="43" viewBox="0 0 191 43" version="1.1" xmlns="http://www.w3.org/2000/svg" xmlns:xlink="http://www.w3.org/1999/xlink">
<title>Tencel</title>
<desc>Created using Figma</desc>
<g id="Canvas" transform="translate(-351 1)">
<g id="Tencel">
<g id="TENCEL&#194;&#174; (LYOCELL)">
<use xlink:href="#path0_fill" transform="translate(351 23)" fill="#FFFFFF"/>
</g>
<g id="Oval 2 Copy" opacity="0.896569">
<use xlink:href="#path1_fill" transform="translate(499 -1)" fill="#FFFFFF"/>
<mask id="mask0_outline_ins">
<use xlink:href="#path1_fill" fill="white" transform="translate(499 -1)"/>
</mask>
<g mask="url(#mask0_outline_ins)">
<use xlink:href="#path2_stroke_2x" transform="translate(499 -1)" fill="#3D2D38"/>
</g>
</g>
</g>
</g>
<defs>
<path id="path0_fill" d="M 3.85848 15L 3.85848 5.61L 0.243477 5.61L 0.243477 4.32L 9.03348 4.32L 9.03348 5.61L 5.41848 5.61L 5.41848 15L 3.85848 15ZM 10.4637 15L 10.4637 4.32L 17.3938 4.32L 17.3938 5.58L 11.9938 5.58L 11.9938 8.94L 17.0937 8.94L 17.0937 10.2L 11.9938 10.2L 11.9938 13.74L 17.3938 13.74L 17.3938 15L 10.4637 15ZM 26.6311 4.32L 28.0861 4.32L 28.0861 15L 26.9011 15L 20.7811 6.93L 20.7811 15L 19.3261 15L 19.3261 4.32L 20.4961 4.32L 26.6311 12.405L 26.6311 4.32ZM 35.2711 15.12C 34.2411 15.12 33.3411 14.9 32.5711 14.46C 31.8111 14.01 31.2261 13.375 30.8161 12.555C 30.4061 11.735 30.2011 10.765 30.2011 9.645C 30.2011 8.535 30.4061 7.57 30.8161 6.75C 31.2261 5.93 31.8111 5.3 32.5711 4.86C 33.3411 4.42 34.2411 4.2 35.2711 4.2C 36.0011 4.2 36.6761 4.315 37.2961 4.545C 37.9261 4.765 38.4561 5.09 38.8861 5.52L 38.3461 6.66C 37.8461 6.25 37.3511 5.955 36.8611 5.775C 36.3811 5.585 35.8561 5.49 35.2861 5.49C 34.1761 5.49 33.3161 5.85 32.7061 6.57C 32.1061 7.29 31.8061 8.315 31.8061 9.645C 31.8061 10.985 32.1061 12.02 32.7061 12.75C 33.3161 13.47 34.1761 13.83 35.2861 13.83C 35.8561 13.83 36.3811 13.74 36.8611 13.56C 37.3511 13.37 37.8461 13.07 38.3461 12.66L 38.8861 13.8C 38.4561 14.23 37.9261 14.56 37.2961 14.79C 36.6761 15.01 36.0011 15.12 35.2711 15.12ZM 40.83 15L 40.83 4.32L 47.76 4.32L 47.76 5.58L 42.36 5.58L 42.36 8.94L 47.46 8.94L 47.46 10.2L 42.36 10.2L 42.36 13.74L 47.76 13.74L 47.76 15L 40.83 15ZM 49.6923 15L 49.6923 4.32L 51.2373 4.32L 51.2373 13.71L 56.4273 13.71L 56.4273 15L 49.6923 15ZM 62.3323 4.245C 63.3423 4.245 64.2573 4.485 65.0773 4.965C 65.9073 5.435 66.5573 6.085 67.0273 6.915C 67.5073 7.735 67.7473 8.645 67.7473 9.645C 67.7473 10.655 67.5073 11.575 67.0273 12.405C 66.5573 13.225 65.9073 13.875 65.0773 14.355C 64.2473 14.835 63.3323 15.075 62.3323 15.075C 61.3323 15.075 60.4173 14.835 59.5873 14.355C 58.7573 13.875 58.1023 13.225 57.6223 12.405C 57.1523 11.575 56.9173 10.655 56.9173 9.645C 56.9173 8.635 57.1523 7.72 57.6223 6.9C 58.1023 6.08 58.7523 5.435 59.5723 4.965C 60.4023 4.485 61.3223 4.245 62.3323 4.245ZM 62.3323 14.325C 63.2023 14.325 63.9873 14.12 64.6873 13.71C 65.3873 13.3 65.9373 12.74 66.3373 12.03C 66.7473 11.31 66.9523 10.515 66.9523 9.645C 66.9523 8.775 66.7523 7.985 66.3523 7.275C 65.9523 6.565 65.3973 6.01 64.6873 5.61C 63.9873 5.2 63.2023 4.995 62.3323 4.995C 61.4623 4.995 60.6723 5.2 59.9623 5.61C 59.2623 6.01 58.7073 6.565 58.2973 7.275C 57.8973 7.985 57.6973 8.775 57.6973 9.645C 57.6973 10.515 57.8973 11.31 58.2973 12.03C 58.7073 12.74 59.2623 13.3 59.9623 13.71C 60.6723 14.12 61.4623 14.325 62.3323 14.325ZM 63.4423 10.245C 63.8123 10.335 64.1123 10.575 64.3423 10.965L 65.4223 12.855L 63.8923 12.855L 62.7523 10.8C 62.6523 10.64 62.5473 10.53 62.4373 10.47C 62.3273 10.4 62.1773 10.365 61.9873 10.365L 61.3273 10.365L 61.3273 12.855L 59.9623 12.855L 59.9623 6.45L 62.7373 6.45C 63.4673 6.45 64.0273 6.625 64.4173 6.975C 64.8173 7.315 65.0173 7.785 65.0173 8.385C 65.0173 8.865 64.8773 9.27 64.5973 9.6C 64.3273 9.93 63.9423 10.145 63.4423 10.245ZM 62.5723 9.345C 62.9523 9.345 63.2323 9.275 63.4123 9.135C 63.5923 8.985 63.6823 8.755 63.6823 8.445C 63.6823 8.125 63.5923 7.89 63.4123 7.74C 63.2323 7.59 62.9523 7.515 62.5723 7.515L 61.3123 7.515L 61.3123 9.345L 62.5723 9.345ZM 75.83 17.73C 75.2 16.57 74.745 15.455 74.465 14.385C 74.185 13.305 74.045 12.18 74.045 11.01C 74.045 9.85 74.185 8.73 74.465 7.65C 74.755 6.56 75.21 5.45 75.83 4.32L 77.075 4.32C 76.535 5.6 76.155 6.765 75.935 7.815C 75.725 8.865 75.62 9.93 75.62 11.01C 75.62 12.08 75.725 13.145 75.935 14.205C 76.155 15.255 76.53 16.43 77.06 17.73L 75.83 17.73ZM 78.7694 15L 78.7694 4.32L 80.3144 4.32L 80.3144 13.71L 85.5044 13.71L 85.5044 15L 78.7694 15ZM 93.6004 4.32L 89.3404 10.71L 89.3404 15L 87.7804 15L 87.7804 10.68L 83.5354 4.32L 85.3054 4.32L 88.5754 9.36L 91.8304 4.32L 93.6004 4.32ZM 98.3887 15.12C 97.3787 15.12 96.4987 14.9 95.7487 14.46C 95.0087 14.01 94.4337 13.375 94.0237 12.555C 93.6237 11.735 93.4237 10.77 93.4237 9.66C 93.4237 8.54 93.6237 7.57 94.0237 6.75C 94.4237 5.93 94.9987 5.3 95.7487 4.86C 96.4987 4.42 97.3787 4.2 98.3887 4.2C 99.4087 4.2 100.289 4.42 101.029 4.86C 101.779 5.3 102.354 5.93 102.754 6.75C 103.154 7.57 103.354 8.535 103.354 9.645C 103.354 10.765 103.154 11.735 102.754 12.555C 102.354 13.375 101.779 14.01 101.029 14.46C 100.279 14.9 99.3987 15.12 98.3887 15.12ZM 98.3887 13.86C 99.4587 13.86 100.289 13.495 100.879 12.765C 101.479 12.035 101.779 10.995 101.779 9.645C 101.779 8.305 101.479 7.275 100.879 6.555C 100.289 5.825 99.4587 5.46 98.3887 5.46C 97.3187 5.46 96.4887 5.825 95.8987 6.555C 95.3087 7.275 95.0137 8.305 95.0137 9.645C 95.0137 10.995 95.3087 12.035 95.8987 12.765C 96.4987 13.495 97.3287 13.86 98.3887 13.86ZM 110.183 15.12C 109.153 15.12 108.253 14.9 107.483 14.46C 106.723 14.01 106.138 13.375 105.728 12.555C 105.318 11.735 105.113 10.765 105.113 9.645C 105.113 8.535 105.318 7.57 105.728 6.75C 106.138 5.93 106.723 5.3 107.483 4.86C 108.253 4.42 109.153 4.2 110.183 4.2C 110.913 4.2 111.588 4.315 112.208 4.545C 112.838 4.765 113.368 5.09 113.798 5.52L 113.258 6.66C 112.758 6.25 112.263 5.955 111.773 5.775C 111.293 5.585 110.768 5.49 110.198 5.49C 109.088 5.49 108.228 5.85 107.618 6.57C 107.018 7.29 106.718 8.315 106.718 9.645C 106.718 10.985 107.018 12.02 107.618 12.75C 108.228 13.47 109.088 13.83 110.198 13.83C 110.768 13.83 111.293 13.74 111.773 13.56C 112.263 13.37 112.758 13.07 113.258 12.66L 113.798 13.8C 113.368 14.23 112.838 14.56 112.208 14.79C 111.588 15.01 110.913 15.12 110.183 15.12ZM 115.742 15L 115.742 4.32L 122.672 4.32L 122.672 5.58L 117.272 5.58L 117.272 8.94L 122.372 8.94L 122.372 10.2L 117.272 10.2L 117.272 13.74L 122.672 13.74L 122.672 15L 115.742 15ZM 124.604 15L 124.604 4.32L 126.149 4.32L 126.149 13.71L 131.339 13.71L 131.339 15L 124.604 15ZM 132.881 15L 132.881 4.32L 134.426 4.32L 134.426 13.71L 139.616 13.71L 139.616 15L 132.881 15ZM 140.377 17.73C 140.907 16.42 141.277 15.24 141.487 14.19C 141.707 13.13 141.817 12.07 141.817 11.01C 141.817 9.94 141.707 8.88 141.487 7.83C 141.277 6.78 140.902 5.61 140.362 4.32L 141.607 4.32C 142.227 5.45 142.677 6.56 142.957 7.65C 143.237 8.73 143.377 9.85 143.377 11.01C 143.377 12.18 143.237 13.305 142.957 14.385C 142.677 15.455 142.222 16.57 141.592 17.73L 140.377 17.73Z"/>
<path id="path1_fill" fill-rule="evenodd" d="M 21.5 43C 33.3741 43 43 33.3741 43 21.5C 43 9.62588 33.3741 0 21.5 0C 9.62588 0 0 9.62588 0 21.5C 0 33.3741 9.62588 43 21.5 43Z"/>
<path id="path2_stroke_2x" d="M 21.5 46C 35.031 46 46 35.031 46 21.5L 40 21.5C 40 31.7173 31.7173 40 21.5 40L 21.5 46ZM 46 21.5C 46 7.96902 35.031 -3 21.5 -3L 21.5 3C 31.7173 3 40 11.2827 40 21.5L 46 21.5ZM 21.5 -3C 7.96902 -3 -3 7.96902 -3 21.5L 3 21.5C 3 11.2827 11.2827 3 21.5 3L 21.5 -3ZM -3 21.5C -3 35.031 7.96902 46 21.5 46L 21.5 40C 11.2827 40 3 31.7173 3 21.5L -3 21.5Z"/>
</defs>
</svg>
