<svg width="125" height="55" viewBox="0 0 125 55" version="1.1" xmlns="http://www.w3.org/2000/svg" xmlns:xlink="http://www.w3.org/1999/xlink">
<title>Vegan</title>
<desc>Created using Figma</desc>
<g id="Canvas" transform="translate(-221 -822)">
<g id="Vegan">
<g id="Vegan">
<use xlink:href="#path0_fill" transform="translate(222 835)" fill="#FFFFFF"/>
</g>
<g id="Group 5">
<g id="Oval 2 Copy 7">
<use xlink:href="#path1_fill" transform="translate(290 822)" fill="#F6EBE2"/>
<mask id="mask0_outline_ins">
<use xlink:href="#path1_fill" fill="white" transform="translate(290 822)"/>
</mask>
<g mask="url(#mask0_outline_ins)">
<use xlink:href="#path2_stroke_2x" transform="translate(290 822)" fill="#3D2D38"/>
</g>
</g>
<g id="vegan copy">
<g id="Layer_2">
<g id="Shape">
<use xlink:href="#path3_fill" transform="translate(301.201 828)" fill="#3D2D38"/>
</g>
</g>
<g id="Layer_1">
<g id="Oval">
<use xlink:href="#path4_fill" transform="translate(330.042 842.122)" fill="#3D2D38"/>
</g>
</g>
</g>
</g>
</g>
</g>
<defs>
<path id="path0_fill" d="M 11.514 5.472L 13.528 5.472L 7.562 19L 5.909 19L -0.057 5.472L 1.995 5.472L 6.745 16.53L 11.514 5.472ZM 21.9334 14.25L 15.0934 14.25C 15.1568 16.492 16.1764 17.613 18.1524 17.613C 19.2544 17.613 20.2614 17.252 21.1734 16.53L 21.7624 17.898C 21.3318 18.278 20.7808 18.582 20.1094 18.81C 19.4508 19.0253 18.7858 19.133 18.1144 19.133C 16.5818 19.133 15.3784 18.696 14.5044 17.822C 13.6304 16.9353 13.1934 15.7257 13.1934 14.193C 13.1934 13.2177 13.3834 12.35 13.7634 11.59C 14.1561 10.83 14.7008 10.241 15.3974 9.823C 16.0941 9.405 16.8858 9.196 17.7724 9.196C 19.0644 9.196 20.0778 9.614 20.8124 10.45C 21.5598 11.286 21.9334 12.445 21.9334 13.927L 21.9334 14.25ZM 17.8104 10.621C 17.0884 10.621 16.4994 10.8363 16.0434 11.267C 15.5874 11.6977 15.2961 12.312 15.1694 13.11L 20.2424 13.11C 20.1664 12.2993 19.9194 11.685 19.5014 11.267C 19.0834 10.8363 18.5198 10.621 17.8104 10.621ZM 32.9705 9.424L 32.9705 18.829C 32.9705 20.2857 32.5842 21.3813 31.8115 22.116C 31.0515 22.8633 29.9178 23.237 28.4105 23.237C 26.9538 23.237 25.6808 22.9203 24.5915 22.287L 24.9145 20.786C 25.5098 21.1027 26.0798 21.337 26.6245 21.489C 27.1818 21.641 27.7708 21.717 28.3915 21.717C 30.1775 21.717 31.0705 20.805 31.0705 18.981L 31.0705 16.91C 30.7792 17.4673 30.3548 17.9107 29.7975 18.24C 29.2402 18.5567 28.5942 18.715 27.8595 18.715C 27.0235 18.715 26.2762 18.5187 25.6175 18.126C 24.9715 17.7333 24.4648 17.176 24.0975 16.454C 23.7428 15.732 23.5655 14.9023 23.5655 13.965C 23.5655 13.0277 23.7428 12.198 24.0975 11.476C 24.4648 10.754 24.9715 10.1967 25.6175 9.804C 26.2762 9.39867 27.0235 9.196 27.8595 9.196C 28.5942 9.196 29.2402 9.35433 29.7975 9.671C 30.3548 9.975 30.7792 10.412 31.0705 10.982L 31.0705 9.424L 32.9705 9.424ZM 28.2965 17.176C 29.1578 17.176 29.8355 16.891 30.3295 16.321C 30.8235 15.751 31.0705 14.9657 31.0705 13.965C 31.0705 12.9643 30.8235 12.179 30.3295 11.609C 29.8482 11.0263 29.1705 10.735 28.2965 10.735C 27.4352 10.735 26.7512 11.0263 26.2445 11.609C 25.7505 12.179 25.5035 12.9643 25.5035 13.965C 25.5035 14.953 25.7505 15.7383 26.2445 16.321C 26.7512 16.891 27.4352 17.176 28.2965 17.176ZM 44.5468 9.424L 44.5468 19L 42.6468 19L 42.6468 17.366C 42.3682 17.936 41.9502 18.373 41.3928 18.677C 40.8482 18.981 40.2085 19.133 39.4738 19.133C 38.6252 19.133 37.8778 18.9303 37.2318 18.525C 36.5985 18.1197 36.1045 17.5497 35.7498 16.815C 35.3952 16.0677 35.2178 15.2 35.2178 14.212C 35.2178 13.224 35.3952 12.35 35.7498 11.59C 36.1172 10.83 36.6238 10.241 37.2698 9.823C 37.9158 9.405 38.6505 9.196 39.4738 9.196C 40.2085 9.196 40.8482 9.35433 41.3928 9.671C 41.9375 9.975 42.3555 10.412 42.6468 10.982L 42.6468 9.424L 44.5468 9.424ZM 39.9298 17.613C 40.7912 17.613 41.4562 17.3153 41.9248 16.72C 42.4062 16.112 42.6468 15.2633 42.6468 14.174C 42.6468 13.072 42.4062 12.2233 41.9248 11.628C 41.4562 11.0327 40.7848 10.735 39.9108 10.735C 39.0495 10.735 38.3718 11.0453 37.8778 11.666C 37.3965 12.274 37.1558 13.1227 37.1558 14.212C 37.1558 15.2887 37.3965 16.1247 37.8778 16.72C 38.3718 17.3153 39.0558 17.613 39.9298 17.613ZM 52.458 9.196C 54.7506 9.196 55.897 10.4753 55.897 13.034L 55.897 19L 53.978 19L 53.978 13.148C 53.978 12.312 53.8133 11.704 53.484 11.324C 53.1673 10.944 52.6543 10.754 51.945 10.754C 51.1343 10.754 50.482 11.0073 49.988 11.514C 49.5066 12.0207 49.266 12.6983 49.266 13.547L 49.266 19L 47.366 19L 47.366 12.122C 47.366 11.1213 47.3153 10.222 47.214 9.424L 49 9.424L 49.171 11.077C 49.475 10.469 49.912 10.0067 50.482 9.69C 51.0646 9.36067 51.7233 9.196 52.458 9.196Z"/>
<path id="path1_fill" fill-rule="evenodd" d="M 28 55C 43.464 55 56 42.6878 56 27.5C 56 12.3122 43.464 0 28 0C 12.536 0 0 12.3122 0 27.5C 0 42.6878 12.536 55 28 55Z"/>
<path id="path2_stroke_2x" d="M 28 58C 45.0696 58 59 44.3954 59 27.5L 53 27.5C 53 40.9802 41.8583 52 28 52L 28 58ZM 59 27.5C 59 10.6046 45.0696 -3 28 -3L 28 3C 41.8583 3 53 14.0198 53 27.5L 59 27.5ZM 28 -3C 10.9304 -3 -3 10.6046 -3 27.5L 3 27.5C 3 14.0198 14.1417 3 28 3L 28 -3ZM -3 27.5C -3 44.3954 10.9304 58 28 58L 28 52C 14.1417 52 3 40.9802 3 27.5L -3 27.5Z"/>
<path id="path3_fill" d="M 20.6397 32.7346C 20.6397 32.7346 21.2541 38.192 24.9409 37.7878C 28.6276 37.3835 26.1698 35.243 25.0904 35.148C 24.6029 35.0995 24.8467 33.5613 24.8467 33.5613C 24.8467 33.5613 25.285 31.0124 25.1396 29.9068C 31.2841 25.3387 30.0122 21.6843 30.0122 21.6843C 30.0122 21.6843 29.281 18.8545 31.4255 18.5109C 32.9841 18.2218 33.2688 16.3481 33.2688 16.3481L 33.7072 15.675L 31.6119 13.0777C 31.6119 13.0777 31.1244 10.3853 26.6962 9.66372C 25.9158 3.12489 19.5828 0 19.5828 0C 19.5828 0 18.0733 6.63585 23.1405 10.3853C 22.8 10.6931 22.4424 10.9819 22.0693 11.2504C 22.0693 11.2504 18.9028 8.17404 10.1898 10.2883C 10.1407 10.3368 12.0905 13.7993 20.4308 14.0863C 20.0416 14.8079 20.3816 16.0105 20.3816 16.0105C 20.3816 16.0105 20.6069 17.4537 17.4322 16.8676C 6.27571 12.2995 -1.4726 23.2629 1.45631 32.494C -0.249832 33.2641 -0.93188 37.3027 2.0892 37.4462C 2.13836 37.4947 4.76824 37.7837 6.23065 36.484C 6.27981 36.4355 10.2738 37.6867 10.2738 37.6867L 21.0903 37.6867C 21.0903 37.6867 22.5035 36.3405 19.5808 35.0894C 19.5808 35.0409 16.0722 34.6083 16.0722 34.6083C 16.0722 34.6083 19.7446 33.9271 20.6397 32.7346Z"/>
<path id="path4_fill" d="M 0.431667 0.863333C 0.67007 0.863333 0.863333 0.67007 0.863333 0.431667C 0.863333 0.193264 0.67007 0 0.431667 0C 0.193264 0 0 0.193264 0 0.431667C 0 0.67007 0.193264 0.863333 0.431667 0.863333Z"/>
</defs>
</svg>
