<svg width="51" height="65" viewBox="0 0 51 65" version="1.1" xmlns="http://www.w3.org/2000/svg" xmlns:xlink="http://www.w3.org/1999/xlink">
<title>Enklare flaska</title>
<desc>Created using Figma</desc>
<g id="Canvas" transform="translate(-1457 -2368)">
<g id="Enklare flaska">
<g id="Group">
<g id="Group">
<g id="Vector">
<use xlink:href="#path0_fill" transform="matrix(0.96626 0.257568 -0.257568 0.96626 1458.94 2367)" fill="#FFFFFF"/>
</g>
</g>
</g>
<g id="Group">
<g id="Group">
<g id="Vector">
<use xlink:href="#path1_fill" transform="matrix(0.96626 0.257568 -0.257568 0.96626 1458.26 2372.63)" fill="#FFFFFF"/>
</g>
</g>
</g>
<g id="Group">
<g id="Group">
<g id="Vector">
<use xlink:href="#path2_fill" transform="matrix(0.96626 0.257568 -0.257568 0.96626 1464.05 2368.71)" fill="#FFFFFF"/>
</g>
</g>
</g>
<g id="Group">
<g id="Group">
<g id="Vector">
<use xlink:href="#path3_fill" transform="matrix(0.96626 0.257568 -0.257568 0.96626 1464.85 2369.41)" fill="#FFFFFF"/>
</g>
</g>
</g>
<g id="Group">
<g id="Group">
<g id="Vector">
<use xlink:href="#path4_fill" transform="matrix(0.96626 0.257568 -0.257568 0.96626 1463.46 2369.18)" fill="#FFFFFF"/>
</g>
</g>
</g>
<g id="Group">
<g id="Group">
<g id="Vector">
<use xlink:href="#path5_fill" transform="matrix(0.96626 0.257568 -0.257568 0.96626 1465.08 2370.56)" fill="#FFFFFF"/>
</g>
</g>
</g>
<g id="Group">
<g id="Group">
<g id="Vector">
<use xlink:href="#path6_fill" transform="matrix(0.96626 0.257568 -0.257568 0.96626 1465.66 2371.27)" fill="#FFFFFF"/>
</g>
</g>
</g>
<g id="Group">
<g id="Group">
<g id="Vector">
<use xlink:href="#path7_fill" transform="matrix(0.96626 0.257568 -0.257568 0.96626 1466.49 2372.42)" fill="#FFFFFF"/>
</g>
</g>
</g>
<g id="Group">
<g id="Group">
<g id="Vector">
<use xlink:href="#path8_fill" transform="matrix(0.96626 0.257568 -0.257568 0.96626 1461.42 2370.82)" fill="#FFFFFF"/>
</g>
</g>
</g>
<g id="Group">
<g id="Group">
<g id="Vector">
<use xlink:href="#path9_fill" transform="matrix(0.96626 0.257568 -0.257568 0.96626 1459.55 2370.61)" fill="#FFFFFF"/>
</g>
</g>
</g>
<g id="Group">
<g id="Group">
<g id="Vector">
<use xlink:href="#path10_fill" transform="matrix(0.96626 0.257568 -0.257568 0.96626 1460.18 2377.16)" fill="#FFFFFF"/>
</g>
</g>
</g>
<g id="Group">
<g id="Group">
<g id="Vector">
<use xlink:href="#path11_fill" transform="matrix(0.96626 0.257568 -0.257568 0.96626 1461.04 2378.07)" fill="#FFFFFF"/>
</g>
</g>
</g>
<g id="Group">
<g id="Group">
<g id="Vector">
<use xlink:href="#path12_fill" transform="matrix(0.96626 0.257568 -0.257568 0.96626 1462.13 2371.13)" fill="#FFFFFF"/>
</g>
</g>
</g>
<g id="Group">
<g id="Group">
<g id="Vector">
<use xlink:href="#path13_fill" transform="matrix(0.96626 0.257568 -0.257568 0.96626 1467.22 2373.57)" fill="#FFFFFF"/>
</g>
</g>
</g>
<g id="Group">
<g id="Group">
<g id="Vector">
<use xlink:href="#path14_fill" transform="matrix(0.96626 0.257568 -0.257568 0.96626 1482.5 2386.1)" fill="#FFFFFF"/>
</g>
</g>
</g>
<g id="Group">
<g id="Group">
<g id="Vector">
<use xlink:href="#path15_fill" transform="matrix(0.96626 0.257568 -0.257568 0.96626 1487.12 2394.5)" fill="#FFFFFF"/>
</g>
</g>
</g>
<g id="Group">
<g id="Group">
<g id="Vector">
<use xlink:href="#path16_fill" transform="matrix(0.96626 0.257568 -0.257568 0.96626 1489.77 2396.3)" fill="#FFFFFF"/>
</g>
</g>
</g>
<g id="Group">
<g id="Group">
<g id="Vector">
<use xlink:href="#path17_fill" transform="matrix(0.96626 0.257568 -0.257568 0.96626 1496.18 2426.3)" fill="#FFFFFF"/>
</g>
</g>
</g>
<g id="Group">
<g id="Group">
<g id="Vector">
<use xlink:href="#path18_fill" transform="matrix(0.96626 0.257568 -0.257568 0.96626 1499.21 2424.91)" fill="#FFFFFF"/>
</g>
</g>
</g>
<g id="Group">
<g id="Group">
<g id="Vector">
<use xlink:href="#path19_fill" transform="matrix(0.96626 0.257568 -0.257568 0.96626 1501.25 2424.91)" fill="#FFFFFF"/>
</g>
</g>
</g>
<g id="Group">
<g id="Group">
<g id="Vector">
<use xlink:href="#path20_fill" transform="matrix(0.96626 0.257568 -0.257568 0.96626 1482.98 2420.63)" fill="#FFFFFF"/>
</g>
</g>
</g>
<g id="Group">
<g id="Group">
<g id="Vector">
<use xlink:href="#path21_fill" transform="matrix(0.96626 0.257568 -0.257568 0.96626 1465.56 2395.52)" fill="#FFFFFF"/>
</g>
</g>
</g>
<g id="Group">
<g id="Group">
<g id="Vector">
<use xlink:href="#path22_fill" transform="matrix(0.96626 0.257568 -0.257568 0.96626 1461.75 2387.98)" fill="#FFFFFF"/>
</g>
</g>
</g>
<g id="Group">
<g id="Group">
<g id="Vector">
<use xlink:href="#path23_fill" transform="matrix(0.96626 0.257568 -0.257568 0.96626 1464.52 2393.57)" fill="#FFFFFF"/>
</g>
</g>
</g>
<g id="Group">
<g id="Group">
<g id="Vector">
<use xlink:href="#path24_fill" transform="matrix(0.96626 0.257568 -0.257568 0.96626 1499.6 2425.83)" fill="#FFFFFF"/>
</g>
</g>
</g>
<g id="Group">
<g id="Group">
<g id="Vector">
<use xlink:href="#path25_fill" transform="matrix(0.96626 0.257568 -0.257568 0.96626 1500.26 2425.35)" fill="#FFFFFF"/>
</g>
</g>
</g>
<g id="Group">
<g id="Group">
<g id="Vector">
<use xlink:href="#path26_fill" transform="matrix(0.96626 0.257568 -0.257568 0.96626 1500.88 2425.17)" fill="#FFFFFF"/>
</g>
</g>
</g>
<g id="Group">
<g id="Group">
<g id="Vector">
<use xlink:href="#path27_fill" transform="matrix(0.96626 0.257568 -0.257568 0.96626 1501.41 2425.13)" fill="#FFFFFF"/>
</g>
</g>
</g>
<g id="Group">
<g id="Group">
<g id="Vector">
<use xlink:href="#path28_fill" transform="matrix(0.96626 0.257568 -0.257568 0.96626 1501.95 2425.18)" fill="#FFFFFF"/>
</g>
</g>
</g>
<g id="Group">
<g id="Group">
<g id="Vector">
<use xlink:href="#path29_fill" transform="matrix(0.96626 0.257568 -0.257568 0.96626 1502.51 2425.25)" fill="#FFFFFF"/>
</g>
</g>
</g>
<g id="Group">
<g id="Group">
<g id="Vector">
<use xlink:href="#path30_fill" transform="matrix(0.96626 0.257568 -0.257568 0.96626 1503.14 2425.36)" fill="#FFFFFF"/>
</g>
</g>
</g>
<g id="Group">
<g id="Group">
<g id="Vector">
<use xlink:href="#path31_fill" transform="matrix(0.96626 0.257568 -0.257568 0.96626 1496.27 2430.33)" fill="#FFFFFF"/>
</g>
</g>
</g>
<g id="Group">
<g id="Group">
<g id="Vector">
<use xlink:href="#path32_fill" transform="matrix(0.96626 0.257568 -0.257568 0.96626 1495.62 2430.06)" fill="#FFFFFF"/>
</g>
</g>
</g>
<g id="Group">
<g id="Group">
<g id="Vector">
<use xlink:href="#path33_fill" transform="matrix(0.96626 0.257568 -0.257568 0.96626 1482.29 2419.57)" fill="#FFFFFF"/>
</g>
</g>
</g>
<g id="Group">
<g id="Group">
<g id="Vector">
<use xlink:href="#path34_fill" transform="matrix(0.96626 0.257568 -0.257568 0.96626 1482.62 2419.77)" fill="#FFFFFF"/>
</g>
</g>
</g>
<g id="Group">
<g id="Group">
<g id="Vector">
<use xlink:href="#path35_fill" transform="matrix(0.96626 0.257568 -0.257568 0.96626 1478.13 2414.42)" fill="#FFFFFF"/>
</g>
</g>
</g>
<g id="Group">
<g id="Group">
<g id="Vector">
<use xlink:href="#path36_fill" transform="matrix(0.96626 0.257568 -0.257568 0.96626 1474.17 2398.69)" fill="#FFFFFF"/>
</g>
</g>
</g>
<g id="Group">
<g id="Group">
<g id="Vector">
<use xlink:href="#path37_fill" transform="matrix(0.96626 0.257568 -0.257568 0.96626 1469.68 2393.9)" fill="#FFFFFF"/>
</g>
</g>
</g>
<g id="Group">
<g id="Group">
<g id="Vector">
<use xlink:href="#path38_fill" transform="matrix(0.96626 0.257568 -0.257568 0.96626 1461.76 2388.05)" fill="#FFFFFF"/>
</g>
</g>
</g>
<g id="Group">
<g id="Group">
<g id="Vector">
<use xlink:href="#path39_fill" transform="matrix(0.96626 0.257568 -0.257568 0.96626 1464.28 2375.45)" fill="#FFFFFF"/>
</g>
</g>
</g>
<g id="Group">
<g id="Group">
<g id="Vector">
<use xlink:href="#path40_fill" transform="matrix(0.96626 0.257568 -0.257568 0.96626 1488.26 2394.05)" fill="#FFFFFF"/>
</g>
</g>
</g>
<g id="Group">
<g id="Group">
<g id="Vector">
<use xlink:href="#path41_fill" transform="matrix(0.96626 0.257568 -0.257568 0.96626 1476.31 2390.92)" fill="#FFFFFF"/>
</g>
</g>
</g>
<g id="Group">
<g id="Group">
<g id="Vector">
<use xlink:href="#path42_fill" transform="matrix(0.96626 0.257568 -0.257568 0.96626 1482.33 2394.87)" fill="#FFFFFF"/>
</g>
</g>
</g>
<g id="Group">
<g id="Group">
<g id="Vector">
<use xlink:href="#path43_fill" transform="matrix(0.96626 0.257568 -0.257568 0.96626 1492.02 2403.97)" fill="#FFFFFF"/>
</g>
</g>
</g>
<g id="Group">
<g id="Group">
<g id="Vector">
<use xlink:href="#path44_fill" transform="matrix(0.96626 0.257568 -0.257568 0.96626 1486.19 2397.86)" fill="#FFFFFF"/>
</g>
</g>
</g>
<g id="Group">
<g id="Group">
<g id="Vector">
<use xlink:href="#path45_fill" transform="matrix(0.96626 0.257568 -0.257568 0.96626 1484.16 2410.52)" fill="#FFFFFF"/>
</g>
</g>
</g>
<g id="Group">
<g id="Group">
<g id="Vector">
<use xlink:href="#path46_fill" transform="matrix(0.96626 0.257568 -0.257568 0.96626 1482.14 2405.21)" fill="#FFFFFF"/>
</g>
</g>
</g>
<g id="Group">
<g id="Group">
<g id="Vector">
<use xlink:href="#path47_fill" transform="matrix(0.96626 0.257568 -0.257568 0.96626 1471.3 2401.89)" fill="#FFFFFF"/>
</g>
</g>
</g>
<g id="Group">
<g id="Group">
<g id="Vector">
<use xlink:href="#path48_fill" transform="matrix(0.96626 0.257568 -0.257568 0.96626 1491.71 2428.4)" fill="#FFFFFF"/>
</g>
</g>
</g>
<g id="Group">
<g id="Group">
<g id="Vector">
<use xlink:href="#path49_fill" transform="matrix(0.96626 0.257568 -0.257568 0.96626 1493.94 2427.12)" fill="#FFFFFF"/>
</g>
</g>
</g>
<g id="Group">
<g id="Group">
<g id="Vector">
<use xlink:href="#path50_fill" transform="matrix(0.96626 0.257568 -0.257568 0.96626 1493.23 2425.98)" fill="#FFFFFF"/>
</g>
</g>
</g>
<g id="Group">
<g id="Group">
<g id="Vector">
<use xlink:href="#path51_fill" transform="matrix(0.96626 0.257568 -0.257568 0.96626 1495.67 2426.09)" fill="#FFFFFF"/>
</g>
</g>
</g>
<g id="Group">
<g id="Group">
<g id="Vector">
<use xlink:href="#path52_fill" transform="matrix(0.96626 0.257568 -0.257568 0.96626 1495.78 2423.86)" fill="#FFFFFF"/>
</g>
</g>
</g>
<g id="Group">
<g id="Group">
<g id="Vector">
<use xlink:href="#path53_fill" transform="matrix(0.96626 0.257568 -0.257568 0.96626 1498.84 2424.75)" fill="#FFFFFF"/>
</g>
</g>
</g>
<g id="Group">
<g id="Group">
<g id="Vector">
<use xlink:href="#path54_fill" transform="matrix(0.96626 0.257568 -0.257568 0.96626 1498.91 2423.44)" fill="#FFFFFF"/>
</g>
</g>
</g>
<g id="Group">
<g id="Group">
<g id="Vector">
<use xlink:href="#path55_fill" transform="matrix(0.96626 0.257568 -0.257568 0.96626 1498.17 2419.89)" fill="#FFFFFF"/>
</g>
</g>
</g>
<g id="Group">
<g id="Group">
<g id="Vector">
<use xlink:href="#path56_fill" transform="matrix(0.96626 0.257568 -0.257568 0.96626 1492.23 2420.62)" fill="#FFFFFF"/>
</g>
</g>
</g>
<g id="Group">
<g id="Group">
<g id="Vector">
<use xlink:href="#path57_fill" transform="matrix(0.96626 0.257568 -0.257568 0.96626 1489.06 2425.34)" fill="#FFFFFF"/>
</g>
</g>
</g>
<g id="Group">
<g id="Group">
<g id="Vector">
<use xlink:href="#path58_fill" transform="matrix(0.96626 0.257568 -0.257568 0.96626 1486.93 2422.71)" fill="#FFFFFF"/>
</g>
</g>
</g>
<g id="Group">
<g id="Group">
<g id="Vector">
<use xlink:href="#path59_fill" transform="matrix(0.96626 0.257568 -0.257568 0.96626 1487.71 2422.08)" fill="#FFFFFF"/>
</g>
</g>
</g>
<g id="Group">
<g id="Group">
<g id="Vector">
<use xlink:href="#path60_fill" transform="matrix(0.96626 0.257568 -0.257568 0.96626 1487.16 2419.33)" fill="#FFFFFF"/>
</g>
</g>
</g>
<g id="Group">
<g id="Group">
<g id="Vector">
<use xlink:href="#path61_fill" transform="matrix(0.96626 0.257568 -0.257568 0.96626 1486.68 2417.87)" fill="#FFFFFF"/>
</g>
</g>
</g>
<g id="Group">
<g id="Group">
<g id="Vector">
<use xlink:href="#path62_fill" transform="matrix(0.96626 0.257568 -0.257568 0.96626 1485.6 2414.45)" fill="#FFFFFF"/>
</g>
</g>
</g>
<g id="Group">
<g id="Group">
<g id="Vector">
<use xlink:href="#path63_fill" transform="matrix(0.96626 0.257568 -0.257568 0.96626 1483.14 2415.39)" fill="#FFFFFF"/>
</g>
</g>
</g>
<g id="Group">
<g id="Group">
<g id="Vector">
<use xlink:href="#path64_fill" transform="matrix(0.96626 0.257568 -0.257568 0.96626 1486.91 2415.82)" fill="#FFFFFF"/>
</g>
</g>
</g>
<g id="Group">
<g id="Group">
<g id="Vector">
<use xlink:href="#path65_fill" transform="matrix(0.96626 0.257568 -0.257568 0.96626 1487.03 2415.01)" fill="#FFFFFF"/>
</g>
</g>
</g>
<g id="Group">
<g id="Group">
<g id="Vector">
<use xlink:href="#path66_fill" transform="matrix(0.96626 0.257568 -0.257568 0.96626 1492.05 2419.29)" fill="#FFFFFF"/>
</g>
</g>
</g>
<g id="Group">
<g id="Group">
<g id="Vector">
<use xlink:href="#path67_fill" transform="matrix(0.96626 0.257568 -0.257568 0.96626 1497.38 2427.48)" fill="#FFFFFF"/>
</g>
</g>
</g>
<g id="Group">
<g id="Group">
<g id="Vector">
<use xlink:href="#path68_fill" transform="matrix(0.96626 0.257568 -0.257568 0.96626 1471.51 2394.67)" fill="#FFFFFF"/>
</g>
</g>
</g>
<g id="Group">
<g id="Group">
<g id="Vector">
<use xlink:href="#path69_fill" transform="matrix(0.96626 0.257568 -0.257568 0.96626 1472.38 2395.26)" fill="#FFFFFF"/>
</g>
</g>
</g>
<g id="Group">
<g id="Group">
<g id="Vector">
<use xlink:href="#path70_fill" transform="matrix(0.96626 0.257568 -0.257568 0.96626 1473.37 2396.24)" fill="#FFFFFF"/>
</g>
</g>
</g>
<g id="Group">
<g id="Group">
<g id="Vector">
<use xlink:href="#path71_fill" transform="matrix(0.96626 0.257568 -0.257568 0.96626 1474.21 2396.72)" fill="#FFFFFF"/>
</g>
</g>
</g>
<g id="Group">
<g id="Group">
<g id="Vector">
<use xlink:href="#path72_fill" transform="matrix(0.96626 0.257568 -0.257568 0.96626 1475.2 2397.07)" fill="#FFFFFF"/>
</g>
</g>
</g>
<g id="Group">
<g id="Group">
<g id="Vector">
<use xlink:href="#path73_fill" transform="matrix(0.96626 0.257568 -0.257568 0.96626 1476.05 2397.72)" fill="#FFFFFF"/>
</g>
</g>
</g>
<g id="Group">
<g id="Group">
<g id="Vector">
<use xlink:href="#path74_fill" transform="matrix(0.96626 0.257568 -0.257568 0.96626 1476.83 2398.28)" fill="#FFFFFF"/>
</g>
</g>
</g>
<g id="Group">
<g id="Group">
<g id="Vector">
<use xlink:href="#path75_fill" transform="matrix(0.96626 0.257568 -0.257568 0.96626 1477.56 2398.92)" fill="#FFFFFF"/>
</g>
</g>
</g>
<g id="Group">
<g id="Group">
<g id="Vector">
<use xlink:href="#path76_fill" transform="matrix(0.96626 0.257568 -0.257568 0.96626 1503.83 2417.62)" fill="#FFFFFF"/>
</g>
</g>
</g>
<g id="Group">
<g id="Group">
<g id="Vector">
<use xlink:href="#path77_fill" transform="matrix(0.96626 0.257568 -0.257568 0.96626 1502.82 2416.63)" fill="#FFFFFF"/>
</g>
</g>
</g>
<g id="Group">
<g id="Group">
<g id="Vector">
<use xlink:href="#path78_fill" transform="matrix(0.96626 0.257568 -0.257568 0.96626 1501.86 2415.18)" fill="#FFFFFF"/>
</g>
</g>
</g>
<g id="Group">
<g id="Group">
<g id="Vector">
<use xlink:href="#path79_fill" transform="matrix(0.96626 0.257568 -0.257568 0.96626 1501 2414.09)" fill="#FFFFFF"/>
</g>
</g>
</g>
<g id="Group">
<g id="Group">
<g id="Vector">
<use xlink:href="#path80_fill" transform="matrix(0.96626 0.257568 -0.257568 0.96626 1500.2 2412.96)" fill="#FFFFFF"/>
</g>
</g>
</g>
<g id="Group">
<g id="Group">
<g id="Vector">
<use xlink:href="#path81_fill" transform="matrix(0.96626 0.257568 -0.257568 0.96626 1499.45 2411.94)" fill="#FFFFFF"/>
</g>
</g>
</g>
<g id="Group">
<g id="Group">
<g id="Vector">
<use xlink:href="#path82_fill" transform="matrix(0.96626 0.257568 -0.257568 0.96626 1498.46 2410.7)" fill="#FFFFFF"/>
</g>
</g>
</g>
<g id="Group">
<g id="Group">
<g id="Vector">
<use xlink:href="#path83_fill" transform="matrix(0.96626 0.257568 -0.257568 0.96626 1497.7 2409.42)" fill="#FFFFFF"/>
</g>
</g>
</g>
<g id="Group">
<g id="Group">
<g id="Vector">
<use xlink:href="#path84_fill" transform="matrix(0.96626 0.257568 -0.257568 0.96626 1496.91 2408.35)" fill="#FFFFFF"/>
</g>
</g>
</g>
<g id="Group">
<g id="Group">
<g id="Vector">
<use xlink:href="#path85_fill" transform="matrix(0.96626 0.257568 -0.257568 0.96626 1496.12 2407.61)" fill="#FFFFFF"/>
</g>
</g>
</g>
<g id="Group">
<g id="Group">
<g id="Vector">
<use xlink:href="#path86_fill" transform="matrix(0.96626 0.257568 -0.257568 0.96626 1495.27 2406.33)" fill="#FFFFFF"/>
</g>
</g>
</g>
<g id="Group">
<g id="Group">
<g id="Vector">
<use xlink:href="#path87_fill" transform="matrix(0.96626 0.257568 -0.257568 0.96626 1494.43 2405.39)" fill="#FFFFFF"/>
</g>
</g>
</g>
<g id="Group">
<g id="Group">
<g id="Vector">
<use xlink:href="#path88_fill" transform="matrix(0.96626 0.257568 -0.257568 0.96626 1493.88 2404.47)" fill="#FFFFFF"/>
</g>
</g>
</g>
<g id="Group">
<g id="Group">
<g id="Vector">
<use xlink:href="#path89_fill" transform="matrix(0.96626 0.257568 -0.257568 0.96626 1493.29 2403.65)" fill="#FFFFFF"/>
</g>
</g>
</g>
<g id="Group">
<g id="Group">
<g id="Vector">
<use xlink:href="#path90_fill" transform="matrix(0.96626 0.257568 -0.257568 0.96626 1492.76 2402.99)" fill="#FFFFFF"/>
</g>
</g>
</g>
<g id="Group">
<g id="Group">
<g id="Vector">
<use xlink:href="#path91_fill" transform="matrix(0.96626 0.257568 -0.257568 0.96626 1492.21 2402.22)" fill="#FFFFFF"/>
</g>
</g>
</g>
<g id="Group">
<g id="Group">
<g id="Vector">
<use xlink:href="#path92_fill" transform="matrix(0.96626 0.257568 -0.257568 0.96626 1491.8 2401.4)" fill="#FFFFFF"/>
</g>
</g>
</g>
<g id="Group">
<g id="Group">
<g id="Vector">
<use xlink:href="#path93_fill" transform="matrix(0.96626 0.257568 -0.257568 0.96626 1489.68 2400.79)" fill="#FFFFFF"/>
</g>
</g>
</g>
<g id="Group">
<g id="Group">
<g id="Vector">
<use xlink:href="#path94_fill" transform="matrix(0.96626 0.257568 -0.257568 0.96626 1487.85 2398.57)" fill="#FFFFFF"/>
</g>
</g>
</g>
<g id="Group">
<g id="Group">
<g id="Vector">
<use xlink:href="#path95_fill" transform="matrix(0.96626 0.257568 -0.257568 0.96626 1487.7 2393.34)" fill="#FFFFFF"/>
</g>
</g>
</g>
<g id="Group">
<g id="Group">
<g id="Vector">
<use xlink:href="#path96_fill" transform="matrix(0.96626 0.257568 -0.257568 0.96626 1487.21 2392.61)" fill="#FFFFFF"/>
</g>
</g>
</g>
<g id="Group">
<g id="Group">
<g id="Vector">
<use xlink:href="#path97_fill" transform="matrix(0.96626 0.257568 -0.257568 0.96626 1486.72 2392.17)" fill="#FFFFFF"/>
</g>
</g>
</g>
<g id="Group">
<g id="Group">
<g id="Vector">
<use xlink:href="#path98_fill" transform="matrix(0.96626 0.257568 -0.257568 0.96626 1486.28 2391.76)" fill="#FFFFFF"/>
</g>
</g>
</g>
<g id="Group">
<g id="Group">
<g id="Vector">
<use xlink:href="#path99_fill" transform="matrix(0.96626 0.257568 -0.257568 0.96626 1485.74 2391)" fill="#FFFFFF"/>
</g>
</g>
</g>
<g id="Group">
<g id="Group">
<g id="Vector">
<use xlink:href="#path100_fill" transform="matrix(0.96626 0.257568 -0.257568 0.96626 1485.3 2390.21)" fill="#FFFFFF"/>
</g>
</g>
</g>
<g id="Group">
<g id="Group">
<g id="Vector">
<use xlink:href="#path101_fill" transform="matrix(0.96626 0.257568 -0.257568 0.96626 1467.34 2372.76)" fill="#FFFFFF"/>
</g>
</g>
</g>
<g id="Group">
<g id="Group">
<g id="Vector">
<use xlink:href="#path102_fill" transform="matrix(0.96626 0.257568 -0.257568 0.96626 1466.95 2373.13)" fill="#FFFFFF"/>
</g>
</g>
</g>
<g id="Group">
<g id="Group">
<g id="Vector">
<use xlink:href="#path103_fill" transform="matrix(0.96626 0.257568 -0.257568 0.96626 1460.43 2377.43)" fill="#FFFFFF"/>
</g>
</g>
</g>
<g id="Group">
<g id="Group">
<g id="Vector">
<use xlink:href="#path104_fill" transform="matrix(0.96626 0.257568 -0.257568 0.96626 1459.53 2376.33)" fill="#FFFFFF"/>
</g>
</g>
</g>
<g id="Group">
<g id="Group">
<g id="Vector">
<use xlink:href="#path105_fill" transform="matrix(0.96626 0.257568 -0.257568 0.96626 1466.48 2371.88)" fill="#FFFFFF"/>
</g>
</g>
</g>
<g id="Group">
<g id="Group">
<g id="Vector">
<use xlink:href="#path106_fill" transform="matrix(0.96626 0.257568 -0.257568 0.96626 1464.83 2370.23)" fill="#FFFFFF"/>
</g>
</g>
</g>
<g id="Group">
<g id="Group">
<g id="Vector">
<use xlink:href="#path107_fill" transform="matrix(0.96626 0.257568 -0.257568 0.96626 1478.25 2404.43)" fill="#FFFFFF"/>
</g>
</g>
</g>
<g id="Group">
<g id="Group">
<g id="Vector">
<use xlink:href="#path108_fill" transform="matrix(0.96626 0.257568 -0.257568 0.96626 1477.47 2404.01)" fill="#FFFFFF"/>
</g>
</g>
</g>
<g id="Group">
<g id="Group">
<g id="Vector">
<use xlink:href="#path109_fill" transform="matrix(0.96626 0.257568 -0.257568 0.96626 1476.83 2403.52)" fill="#FFFFFF"/>
</g>
</g>
</g>
<g id="Group">
<g id="Group">
<g id="Vector">
<use xlink:href="#path110_fill" transform="matrix(0.96626 0.257568 -0.257568 0.96626 1476.03 2403.38)" fill="#FFFFFF"/>
</g>
</g>
</g>
<g id="Group">
<g id="Group">
<g id="Vector">
<use xlink:href="#path111_fill" transform="matrix(0.96626 0.257568 -0.257568 0.96626 1475.1 2403.26)" fill="#FFFFFF"/>
</g>
</g>
</g>
<g id="Group">
<g id="Group">
<g id="Vector">
<use xlink:href="#path112_fill" transform="matrix(0.96626 0.257568 -0.257568 0.96626 1474.27 2403.26)" fill="#FFFFFF"/>
</g>
</g>
</g>
<g id="Group">
<g id="Group">
<g id="Vector">
<use xlink:href="#path113_fill" transform="matrix(0.96626 0.257568 -0.257568 0.96626 1473.43 2403.06)" fill="#FFFFFF"/>
</g>
</g>
</g>
<g id="Group">
<g id="Group">
<g id="Vector">
<use xlink:href="#path114_fill" transform="matrix(0.96626 0.257568 -0.257568 0.96626 1481.59 2394.26)" fill="#FFFFFF"/>
</g>
</g>
</g>
<g id="Group">
<g id="Group">
<g id="Vector">
<use xlink:href="#path115_fill" transform="matrix(0.96626 0.257568 -0.257568 0.96626 1483.84 2395.33)" fill="#FFFFFF"/>
</g>
</g>
</g>
<g id="Group">
<g id="Group">
<g id="Vector">
<use xlink:href="#path116_fill" transform="matrix(0.96626 0.257568 -0.257568 0.96626 1483.83 2395.33)" fill="#FFFFFF"/>
</g>
</g>
</g>
<g id="Group">
<g id="Group">
<g id="Vector">
<use xlink:href="#path117_fill" transform="matrix(0.96626 0.257568 -0.257568 0.96626 1484.42 2395.48)" fill="#FFFFFF"/>
</g>
</g>
</g>
<g id="Group">
<g id="Group">
<g id="Vector">
<use xlink:href="#path118_fill" transform="matrix(0.96626 0.257568 -0.257568 0.96626 1485.09 2395.83)" fill="#FFFFFF"/>
</g>
</g>
</g>
<g id="Group">
<g id="Group">
<g id="Vector">
<use xlink:href="#path119_fill" transform="matrix(0.96626 0.257568 -0.257568 0.96626 1485.69 2395.99)" fill="#FFFFFF"/>
</g>
</g>
</g>
<g id="Group">
<g id="Group">
<g id="Vector">
<use xlink:href="#path120_fill" transform="matrix(0.96626 0.257568 -0.257568 0.96626 1486.27 2396.25)" fill="#FFFFFF"/>
</g>
</g>
</g>
<g id="Group">
<g id="Group">
<g id="Vector">
<use xlink:href="#path121_fill" transform="matrix(0.96626 0.257568 -0.257568 0.96626 1486.86 2396.37)" fill="#FFFFFF"/>
</g>
</g>
</g>
<g id="Group">
<g id="Group">
<g id="Vector">
<use xlink:href="#path122_fill" transform="matrix(0.96626 0.257568 -0.257568 0.96626 1487.56 2396.21)" fill="#FFFFFF"/>
</g>
</g>
</g>
<g id="Group">
<g id="Group">
<g id="Vector">
<use xlink:href="#path123_fill" transform="matrix(0.96626 0.257568 -0.257568 0.96626 1488.16 2396.31)" fill="#FFFFFF"/>
</g>
</g>
</g>
<g id="Group">
<g id="Group">
<g id="Vector">
<use xlink:href="#path124_fill" transform="matrix(0.96626 0.257568 -0.257568 0.96626 1485.3 2409.32)" fill="#FFFFFF"/>
</g>
</g>
</g>
<g id="Group">
<g id="Group">
<g id="Vector">
<use xlink:href="#path125_fill" transform="matrix(0.96626 0.257568 -0.257568 0.96626 1486.79 2409)" fill="#FFFFFF"/>
</g>
</g>
</g>
<g id="Group">
<g id="Group">
<g id="Vector">
<use xlink:href="#path126_fill" transform="matrix(0.96626 0.257568 -0.257568 0.96626 1487.98 2409.92)" fill="#FFFFFF"/>
</g>
</g>
</g>
<g id="Group">
<g id="Group">
<g id="Vector">
<use xlink:href="#path127_fill" transform="matrix(0.96626 0.257568 -0.257568 0.96626 1489.05 2410.98)" fill="#FFFFFF"/>
</g>
</g>
</g>
<g id="Group">
<g id="Group">
<g id="Vector">
<use xlink:href="#path128_fill" transform="matrix(0.96626 0.257568 -0.257568 0.96626 1490.28 2411.77)" fill="#FFFFFF"/>
</g>
</g>
</g>
<g id="Group">
<g id="Group">
<g id="Vector">
<use xlink:href="#path129_fill" transform="matrix(0.96626 0.257568 -0.257568 0.96626 1491.28 2413.08)" fill="#FFFFFF"/>
</g>
</g>
</g>
<g id="Group">
<g id="Group">
<g id="Vector">
<use xlink:href="#path130_fill" transform="matrix(0.96626 0.257568 -0.257568 0.96626 1492.56 2414.47)" fill="#FFFFFF"/>
</g>
</g>
</g>
<g id="Group">
<g id="Group">
<g id="Vector">
<use xlink:href="#path131_fill" transform="matrix(0.96626 0.257568 -0.257568 0.96626 1493.86 2415.01)" fill="#FFFFFF"/>
</g>
</g>
</g>
<g id="Group">
<g id="Group">
<g id="Vector">
<use xlink:href="#path132_fill" transform="matrix(0.96626 0.257568 -0.257568 0.96626 1495.02 2416.15)" fill="#FFFFFF"/>
</g>
</g>
</g>
<g id="Group">
<g id="Group">
<g id="Vector">
<use xlink:href="#path133_fill" transform="matrix(0.96626 0.257568 -0.257568 0.96626 1482.63 2386.57)" fill="#FFFFFF"/>
</g>
</g>
</g>
</g>
</g>
<defs>
<path id="path0_fill" d="M 5.69418 0.625507C 5.66567 0.23883 5.33491 0 4.95854 0C 4.49663 0.00568643 4.08604 0.369618 3.73818 0.631193C 3.00824 1.18278 2.32963 1.81397 1.74796 2.52477C 1.1777 3.2242 0.698675 3.99187 0.350814 4.82778C 0.16833 5.25995 -0.0597752 5.75467 0.014359 6.23233C 0.077088 6.64175 0.407841 6.98862 0.84124 6.96587C 1.16059 6.9545 1.16059 6.44841 0.84124 6.46547C 0.0314669 6.51665 0.852646 4.83346 1.00662 4.5264C 1.30886 3.91795 1.67953 3.34931 2.10722 2.82615C 2.53492 2.30869 3.01394 1.83103 3.52718 1.39317C 3.7781 1.18278 5.084 -0.0113728 5.295 0.676685C 5.35772 0.887083 5.70559 0.858651 5.69418 0.625507Z"/>
<path id="path1_fill" d="M 0.365732 0.0932302C 0.137627 0.508339 -0.0961808 1.0713 0.0406823 1.55464C 0.103411 1.77641 0.25168 1.91857 0.434164 2.04367C 0.565324 2.12897 0.667972 2.19721 0.764917 2.32231C 0.839051 2.41329 0.90178 2.50428 0.998724 2.57251C 1.18691 2.71467 1.39791 2.74311 1.62601 2.76585C 1.83131 2.78291 1.84842 2.84546 1.84842 3.05017C 1.84842 3.16959 1.84842 3.27763 1.88263 3.38567C 1.95677 3.60176 2.13925 3.74392 2.35025 3.82353C 2.48141 3.8747 2.62397 3.88608 2.76084 3.90314C 2.96613 3.92588 3.05167 4.00549 3.17713 4.1704C 3.35961 4.40923 3.7588 4.19883 3.58772 3.93157C 3.47937 3.76098 3.34821 3.60176 3.16002 3.51646C 2.92051 3.40842 2.62397 3.50509 2.40157 3.35724C 2.19057 3.22077 2.32173 2.87389 2.22479 2.6635C 2.14495 2.48153 1.99098 2.39623 1.8028 2.36212C 1.53477 2.31662 1.33518 2.3678 1.14699 2.12897C 1.01013 1.96406 0.896077 1.84465 0.713593 1.73092C 0.439866 1.56602 0.371435 1.37836 0.417056 1.05992C 0.456974 0.786974 0.553919 0.525399 0.679377 0.280882C 0.782024 0.0647982 0.479785 -0.117168 0.365732 0.0932302Z"/>
<path id="path2_fill" d="M 0.278018 0.447306C 0.528934 0.339264 0.853984 0.396128 0.928118 0.686135C 0.99655 0.942025 1.37863 0.833983 1.3216 0.578093C 1.19614 0.0094505 0.546042 -0.138397 0.0898314 0.128865C -0.115463 0.253967 0.0670206 0.532602 0.278018 0.447306Z"/>
<path id="path3_fill" d="M 0.171079 0.352559C 0.399184 0.352559 0.399184 -8.6768e-08 0.171079 -8.6768e-08C -0.0570264 -8.6768e-08 -0.0570264 0.352559 0.171079 0.352559Z"/>
<path id="path4_fill" d="M 0.374177 1.45734C 0.61939 1.12753 0.881711 0.814773 1.22957 0.587316C 1.38925 0.48496 1.57173 0.388291 1.76562 0.42241C 2.04505 0.467901 2.07926 0.701044 1.96521 0.922815C 1.86256 1.12184 2.11348 1.33224 2.27886 1.16733C 2.77498 0.666926 2.25034 -0.0381912 1.63446 0.00161383C 0.972953 0.0414188 0.328556 0.718104 0.0263164 1.25831C -0.0934388 1.48577 0.225908 1.65636 0.374177 1.45734Z"/>
<path id="path5_fill" d="M 0.0547858 0.302879C 0.294296 0.547395 0.545212 0.791911 0.830343 0.98525C 1.02423 1.11604 1.26374 0.808971 1.08126 0.661124C 0.830344 0.450726 0.56232 0.263074 0.311405 0.0469895C 0.134623 -0.100858 -0.110591 0.132286 0.0547858 0.302879Z"/>
<path id="path6_fill" d="M 0.207481 0.406888C 0.407073 0.327278 0.70361 0.429634 0.891797 0.509244C 0.971634 0.543363 1.08569 0.594541 1.13701 0.668464C 1.21114 0.782193 1.15412 0.907294 1.12561 1.02671C 1.06858 1.2826 1.43355 1.38495 1.51909 1.13475C 1.65025 0.753761 1.5476 0.429634 1.19404 0.230609C 0.891797 0.0657027 0.389966 -0.110577 0.0763215 0.0884484C -0.0776495 0.190804 0.0192945 0.486498 0.207481 0.406888Z"/>
<path id="path7_fill" d="M 0.0512388 0.322863C 0.108265 0.396786 0.170994 0.47071 0.228021 0.544633C 0.296452 0.62993 0.342073 0.726599 0.439018 0.794836C 0.592989 0.902878 0.76977 0.726599 0.735554 0.567379C 0.712744 0.45365 0.610097 0.345608 0.535962 0.260312C 0.461828 0.169329 0.376289 0.0954057 0.285047 0.0271686C 0.210913 -0.0296957 0.0911574 0.0101094 0.0398337 0.0783465C -0.0228952 0.157956 -0.00578753 0.248939 0.0512388 0.322863Z"/>
<path id="path8_fill" d="M 4.72977 0.00963749C 3.46949 0.447492 2.54566 1.30046 1.72448 2.32401C 1.33671 2.80736 0.983143 3.31345 0.686606 3.85366C 0.395772 4.38819 0.082127 5.00801 0.00229019 5.61077C -0.0319256 5.86097 0.32734 5.85528 0.407177 5.66763C 0.515527 5.40037 0.583958 5.11605 0.692308 4.84879C 0.806361 4.57015 0.937522 4.2972 1.08579 4.02994C 1.37662 3.50679 1.71878 3.01776 2.10086 2.56284C 2.46012 2.13068 2.8479 1.71557 3.2756 1.35163C 3.76603 0.936525 4.31348 0.663576 4.87804 0.362196C 5.06052 0.254154 4.93507 -0.0585997 4.72977 0.00963749Z"/>
<path id="path9_fill" d="M 0.431379 4.36461C 0.300218 2.85202 1.38372 1.48159 2.2049 0.315872C 2.34746 0.116847 2.03952 -0.110611 1.87414 0.0599821C 1.32669 0.622938 0.9104 1.33374 0.568242 2.03886C 0.220381 2.76672 -0.0704526 3.54576 0.0150869 4.35892C 0.0436 4.62618 0.454189 4.63187 0.431379 4.36461Z"/>
<path id="path10_fill" d="M 0.315192 0.1001C 0.00154694 0.617565 -0.220856 1.37386 0.366515 1.79466C 0.839834 2.13584 1.62109 1.98231 1.90623 1.45916C 2.03739 1.22033 1.73515 0.992869 1.53555 1.17483C 1.27323 1.41366 0.953886 1.71505 0.594621 1.41935C 0.252463 1.13503 0.503378 0.611878 0.668755 0.310498C 0.794213 0.0716678 0.452055 -0.127357 0.315192 0.1001Z"/>
<path id="path11_fill" d="M 0.0920206 0.379976C 0.839065 0.897441 1.3523 1.63668 1.58041 2.51239C 1.83703 3.49045 1.87124 4.50832 1.95108 5.50913C 2.08794 7.13545 2.35026 9.10864 3.65617 10.2516C 3.89568 10.462 4.22073 10.1379 4.00403 9.90474C 3.38814 9.23374 2.98896 8.48313 2.76085 7.60174C 2.51564 6.67485 2.45861 5.71384 2.38448 4.75852C 2.31034 3.80889 2.24191 2.80239 1.89405 1.90394C 1.58611 1.11353 1.02155 0.4539 0.291613 0.027418C 0.0692101 -0.0976834 -0.118977 0.237816 0.0920206 0.379976Z"/>
<path id="path12_fill" d="M 0.370385 6.63115C 1.31132 5.21523 2.30928 3.82205 3.46691 2.57104C 3.99726 1.99671 4.57322 1.46218 5.22903 1.0357C 5.54837 0.830989 5.90194 0.609219 6.27261 0.501177C 6.84287 0.324897 6.4722 1.25179 6.31253 1.4565C 6.13004 1.7067 6.55774 1.96828 6.73452 1.70101C 6.96833 1.34277 7.128 0.853735 7.01395 0.421567C 6.9056 0.0178302 6.51212 -0.0674661 6.14715 0.0462624C 5.26324 0.324897 4.45917 0.956091 3.79767 1.5816C 3.09054 2.24691 2.48036 3.00321 1.88728 3.77087C 1.22578 4.61815 0.547167 5.48249 0.0282271 6.42643C -0.0972308 6.65958 0.227819 6.84154 0.370385 6.63115Z"/>
<path id="path13_fill" d="M 0.0824255 0.353098C 1.14311 1.1492 2.28364 1.71784 3.63516 1.76333C 4.3537 1.78608 5.07793 1.72921 5.79646 1.74627C 6.54351 1.76333 7.29625 1.82588 8.0376 1.93393C 8.73332 2.03059 9.43474 2.16707 10.1019 2.39453C 10.7692 2.62198 11.3736 2.97454 11.9439 3.38396C 13.1243 4.21987 14.2592 5.13538 15.3883 6.03384C 16.5345 6.94935 17.6123 7.92173 18.3993 9.16706C 18.5532 9.40589 18.9296 9.18981 18.7814 8.94529C 18.1198 7.82506 17.1504 6.90955 16.1524 6.0907C 15.0404 5.17519 13.8885 4.29948 12.7366 3.43514C 12.1948 3.03141 11.6474 2.62767 11.0372 2.32629C 10.427 2.02491 9.76549 1.82588 9.09828 1.68941C 7.65552 1.3994 6.17284 1.29705 4.70726 1.33685C 3.88608 1.3596 3.07631 1.38234 2.28934 1.12645C 1.56511 0.887622 0.897902 0.4782 0.276315 0.0403449C 0.0710208 -0.113189 -0.111464 0.210938 0.0824255 0.353098Z"/>
<path id="path14_fill" d="M 0.054858 0.297256C 0.682147 0.928449 1.55465 1.22983 2.22756 1.80416C 2.91758 2.38986 3.46503 3.11204 4.14364 3.70343C 4.75953 4.23795 5.44385 4.69286 6.09965 5.1819C 6.4361 5.4321 6.76685 5.69368 7.0748 5.98368C 7.38844 6.27938 7.63936 6.6035 7.91308 6.93332C 8.06706 7.11528 8.35789 6.88214 8.23814 6.68311C 7.83325 5.98368 7.12042 5.43779 6.48743 4.95444C 5.82022 4.44835 5.10739 3.98775 4.4744 3.44185C 3.80149 2.86183 3.25974 2.15672 2.59253 1.5767C 1.89681 0.962568 1.00149 0.649814 0.305773 0.0470531C 0.134694 -0.100794 -0.110518 0.132349 0.054858 0.297256Z"/>
<path id="path15_fill" d="M 0.181017 0.439759C 1.07633 0.399954 2.11991 0.303286 2.71869 1.11076C 2.9525 1.42351 3.10076 1.78744 3.28895 2.12863C 3.49995 2.50962 3.73946 2.90198 4.03599 3.22042C 4.19567 3.39101 4.49221 3.16356 4.36104 2.97022C 4.06451 2.53805 3.76797 2.13432 3.52846 1.66803C 3.33457 1.28704 3.14068 0.888987 2.82704 0.587607C 2.1085 -0.100451 1.04781 -0.0492733 0.135393 0.0758281C -0.0756041 0.109947 -0.0242777 0.451132 0.181017 0.439759Z"/>
<path id="path16_fill" d="M 0.0979915 0.397298C 1.23285 1.12518 1.90007 2.40466 2.72697 3.43393C 3.55388 4.45751 4.46632 5.41855 5.43009 6.32271C 7.36904 8.1481 9.50188 9.76309 11.6176 11.3781C 12.6726 12.1856 13.7333 12.9988 14.7655 13.8404C 15.832 14.7104 16.83 15.6544 17.8793 16.5472C 18.3925 16.9794 18.9286 17.3888 19.5217 17.7072C 20.0634 17.9973 20.6337 18.2247 21.1755 18.5034C 21.7115 18.782 22.2419 19.1232 22.5784 19.6293C 22.9319 20.1525 23.0574 20.778 23.0289 21.4035C 23.0004 22.1257 22.7837 22.8707 22.4358 23.5019C 22.1107 24.0933 21.5918 24.3662 20.936 24.4686C 19.7897 24.6506 18.4895 24.4174 17.5542 25.2476C 17.3204 25.4524 17.6626 25.7936 17.8964 25.5888C 18.729 24.8439 20.052 25.1055 21.0728 24.9463C 21.5861 24.8666 22.0936 24.6847 22.47 24.315C 22.9205 23.8715 23.1714 23.2175 23.3482 22.6204C 23.7018 21.4092 23.6448 20.033 22.7837 19.0436C 21.9625 18.0996 20.685 17.7698 19.63 17.1784C 18.3697 16.4733 17.3603 15.3871 16.2711 14.4602C 15.2275 13.5731 14.1496 12.7258 13.0604 11.8899C 10.8648 10.2066 8.61795 8.57459 6.54784 6.73214C 5.41298 5.71993 4.32375 4.65086 3.34287 3.48511C 2.82962 2.87665 2.3734 2.23975 1.89437 1.60854C 1.44385 1.01145 0.953408 0.448476 0.314697 0.0390427C 0.0808825 -0.120181 -0.13012 0.249447 0.0979915 0.397298Z"/>
<path id="path17_fill" d="M 0.426962 4.23133C 0.312909 4.08917 0.717798 4.06642 0.774825 4.07779C 0.928796 4.10623 1.07136 4.16309 1.22533 4.19152C 1.49906 4.2427 1.77849 4.25407 2.05221 4.20858C 2.69661 4.10623 3.1072 3.68543 3.48928 3.1964C 3.88276 2.6903 4.39029 2.17853 4.6355 1.58714C 4.82939 1.12654 4.81229 0.410049 4.4017 0.0574907C 4.21351 -0.101729 3.95689 0.0972943 4.06524 0.319065C 4.20781 0.609073 4.37319 0.847904 4.31046 1.19478C 4.25343 1.5189 4.03673 1.79185 3.84284 2.04774C 3.61473 2.33775 3.39233 2.62776 3.16422 2.91776C 2.95323 3.19071 2.73082 3.47503 2.42288 3.63994C 2.14345 3.78779 1.81841 3.8219 1.50476 3.79347C 1.20252 3.76504 0.911688 3.61719 0.603746 3.62857C 0.170346 3.64563 -0.223136 4.15172 0.147535 4.50996C 0.335722 4.69762 0.586636 4.42467 0.426962 4.23133Z"/>
<path id="path18_fill" d="M 1.89237 2.39852C 1.72699 1.85263 1.094 2.00047 0.683413 1.76733C 0.637792 1.7389 0.55225 1.69909 0.523737 1.6536C 0.46671 1.55693 0.489523 1.63654 0.529441 1.53418C 0.580765 1.4034 0.717628 1.26693 0.803167 1.1532C 1.00276 0.891621 1.21946 0.647103 1.42476 0.391214C 1.60154 0.169443 1.3164 -0.143309 1.10541 0.0727756C 0.848787 0.334351 0.626385 0.630043 0.403983 0.920051C 0.250012 1.12476 -0.0408224 1.4034 0.00479861 1.68772C 0.044717 1.94361 0.358363 2.12557 0.56936 2.22793C 0.694818 2.28479 0.831681 2.33029 0.968545 2.35303C 1.16243 2.38715 1.43616 2.34166 1.54451 2.54637C 1.65286 2.72834 1.9551 2.60323 1.89237 2.39852Z"/>
<path id="path19_fill" d="M 2.43453 0.246996C 2.69685 0.912308 2.10378 1.48664 1.68748 1.95292C 1.47649 2.19175 1.25409 2.43058 1.02598 2.65804C 0.911929 2.77177 0.792173 2.89687 0.643904 2.97648C 0.501338 3.05609 0.347367 3.05609 0.187694 3.06178C -0.00619574 3.06746 -0.0689254 3.31198 0.0907483 3.42002C 0.415798 3.63611 0.786471 3.42571 1.05449 3.21531C 1.41946 2.93668 1.73311 2.57843 2.02964 2.23156C 2.46875 1.71978 3.36406 0.815638 2.8109 0.0934614C 2.68544 -0.0828179 2.33758 0.00247921 2.43453 0.246996Z"/>
<path id="path20_fill" d="M 16.0159 6.14531C 15.6396 7.14043 14.653 7.80006 13.6151 7.95359C 12.3948 8.13556 11.1972 7.67496 10.1764 7.04376C 9.05873 6.35002 8.16341 5.36626 7.03429 4.70095C 6.46403 4.36545 5.85955 4.10388 5.3121 3.73994C 4.77605 3.3817 4.29133 2.94953 3.8009 2.53442C 3.26485 2.07951 2.7174 1.65303 2.11862 1.27772C 1.83349 1.10144 1.54836 0.930852 1.26893 0.7432C 0.955286 0.532802 0.675857 0.288285 0.385023 0.0494547C 0.208241 -0.092706 -0.116809 0.0949468 0.0428651 0.316718C 0.430644 0.839869 1.04083 1.19243 1.58828 1.52793C 2.17565 1.89186 2.73451 2.27853 3.26485 2.72776C 3.78949 3.1713 4.30273 3.6319 4.86159 4.03564C 5.43755 4.45075 6.08195 4.73507 6.69213 5.08763C 7.9182 5.79275 8.87054 6.86748 10.0852 7.59535C 11.1516 8.23223 12.4233 8.65302 13.6779 8.43694C 14.8868 8.22654 16.0502 7.47024 16.4151 6.25904C 16.4893 5.99746 16.1072 5.90648 16.0159 6.14531Z"/>
<path id="path21_fill" d="M 23.9628 20.2367C 23.3355 19.56 22.5143 19.0767 21.7615 18.5592C 21.368 18.2862 20.9745 18.0076 20.6095 17.6948C 20.2389 17.3764 19.9081 17.0124 19.5773 16.6542C 18.9044 15.9377 18.1231 15.4429 17.2848 14.9482C 16.4123 14.4364 15.5968 13.8393 14.8212 13.1911C 13.1731 11.8206 11.5706 10.3933 9.94534 8.99436C 8.37708 7.64095 6.81452 6.28755 5.3546 4.81473C 3.75212 3.19974 2.22948 1.47671 0.438807 0.060748C 0.193587 -0.138282 -0.165688 0.197227 0.0852345 0.413317C 1.61358 1.74398 3.01646 3.18836 4.42505 4.63275C 5.87926 6.11695 7.4076 7.51016 8.97587 8.86925C 10.6069 10.2852 12.2322 11.7069 13.8746 13.1058C 14.633 13.7483 15.4029 14.3795 16.2355 14.9311C 17.0339 15.46 17.9349 15.8524 18.6649 16.4779C 19.0983 16.8475 19.4576 17.2854 19.8682 17.6834C 20.2332 18.036 20.6324 18.3488 21.0487 18.6388C 21.9326 19.2643 22.845 19.833 23.7004 20.4983C 23.8829 20.6518 24.1339 20.4244 23.9628 20.2367Z"/>
<path id="path22_fill" d="M 8.19781 7.33922C 6.61248 6.63411 5.21534 5.57643 3.98927 4.36522C 2.64915 3.04029 1.55425 1.5277 0.373801 0.0662833C 0.21983 -0.121369 -0.110922 0.128834 0.0373465 0.327859C 1.16076 1.87457 2.38683 3.39853 3.76116 4.73484C 5.01574 5.95742 6.4357 6.99804 8.06665 7.65767C 8.24343 7.73159 8.37459 7.41883 8.19781 7.33922Z"/>
<path id="path23_fill" d="M 2.26612 2.17329C 1.5704 1.51366 0.948816 0.791486 0.332932 0.0579366C 0.196069 -0.10697 -0.0947645 0.1148 0.0306934 0.291079C 0.595254 1.08149 1.28527 1.78092 2.02091 2.4178C 2.19199 2.55996 2.4258 2.32682 2.26612 2.17329Z"/>
<path id="path24_fill" d="M 0.00530538 0.221088C 0.073737 0.539528 0.119359 0.857969 0.130764 1.1821C 0.142169 1.44936 0.564161 1.44367 0.541351 1.1821C 0.507135 0.82385 0.444407 0.476978 0.353164 0.130106C 0.290435 -0.0973509 -0.0460183 -0.000683068 0.00530538 0.221088Z"/>
<path id="path25_fill" d="M 0.000558233 0.186256C 0.0461793 0.811763 0.0803944 1.44864 0.188744 2.06846C 0.228663 2.29592 0.599332 2.24474 0.59363 2.0116C 0.570819 1.40315 0.473875 0.789015 0.394038 0.180567C 0.365525 -0.0525761 -0.0165497 -0.0696333 0.000558233 0.186256Z"/>
<path id="path26_fill" d="M 0.000259155 0.199308C 0.0230697 0.597358 0.0515821 0.995408 0.0743927 1.39346C 0.0972032 1.79151 0.0743927 2.19524 0.102906 2.58761C 0.120014 2.79232 0.456467 2.87762 0.496385 2.63879C 0.621843 1.84269 0.553414 0.932857 0.399443 0.142444C 0.359525 -0.0793269 -0.0111461 -0.0281491 0.000259155 0.199308Z"/>
<path id="path27_fill" d="M 0.00702084 0.247705C 0.235126 1.09498 0.28645 1.99344 0.206613 2.86346C 0.183802 3.1421 0.611502 3.13641 0.640015 2.86346C 0.742662 1.93089 0.645716 1.0438 0.389098 0.139662C 0.320666 -0.104855 -0.0557081 -0.0024977 0.00702084 0.247705Z"/>
<path id="path28_fill" d="M 0.00460232 0.264511C 0.0787365 0.662561 0.152869 1.06061 0.19849 1.46435C 0.244111 1.85102 0.227004 2.2377 0.249815 2.62438C 0.26122 2.85752 0.626188 2.93145 0.677512 2.68124C 0.848591 1.86808 0.597677 0.946882 0.415192 0.150783C 0.346761 -0.116479 -0.0467214 0.00293552 0.00460232 0.264511Z"/>
<path id="path29_fill" d="M 0.0154144 0.271282C 0.13517 0.561289 0.232112 0.862669 0.294841 1.16974C 0.35757 1.4768 0.351868 1.78956 0.391787 2.10231C 0.4203 2.30702 0.756757 2.29565 0.796676 2.10231C 0.922133 1.44269 0.69973 0.697762 0.414599 0.106374C 0.306249 -0.115397 -0.0815303 0.0438246 0.0154144 0.271282Z"/>
<path id="path30_fill" d="M 0.00951309 0.24904C 0.106458 0.56748 0.231914 0.891604 0.345966 1.21004C 0.425803 1.44319 0.750854 1.34652 0.710936 1.10769C 0.659612 0.77219 0.545558 0.3912 0.374479 0.0955059C 0.260427 -0.0978327 -0.0589185 0.0272694 0.00951309 0.24904Z"/>
<path id="path31_fill" d="M 0.00113128 0.183387C -0.010274 0.462022 0.0638602 0.774777 0.25775 0.985175C 0.417423 1.15577 0.685447 0.939681 0.571394 0.740656C 0.468747 0.553004 0.383208 0.405157 0.383208 0.183387C 0.383208 -0.0611298 0.0125365 -0.0611298 0.00113128 0.183387Z"/>
<path id="path32_fill" d="M 0.0744301 0.133474C -0.0909462 0.673685 0.0402136 1.39017 0.262616 1.90195C 0.365264 2.14078 0.753042 1.97019 0.678908 1.72567C 0.604773 1.49253 0.48502 1.27645 0.427994 1.0433C 0.365265 0.770354 0.376669 0.508777 0.433695 0.235829C 0.485019 -0.00300106 0.148564 -0.0996696 0.0744301 0.133474Z"/>
<path id="path33_fill" d="M 3.59771 2.32859C 3.33539 2.0329 3.05026 1.76564 2.82786 1.43582C 2.61686 1.12307 2.47999 0.770512 2.2747 0.463445C 2.08081 0.179123 1.8356 0.0426482 1.49344 0.0255889C 1.07144 0.00284321 0.575315 -0.0312767 0.164726 0.0597061C -0.0462714 0.105198 -0.0633793 0.469132 0.164726 0.50325C 0.558207 0.560115 0.945985 0.45207 1.33947 0.457756C 1.76146 0.463443 1.89833 0.781883 2.06941 1.1117C 2.37165 1.6974 2.78794 2.29447 3.33539 2.67546C 3.54638 2.82331 3.75738 2.50487 3.59771 2.32859Z"/>
<path id="path34_fill" d="M 0.0942128 0.446621C 0.385047 0.639959 0.675883 0.838986 0.955312 1.04938C 1.08647 1.14605 1.21763 1.24841 1.34879 1.35076C 1.42863 1.41331 1.69665 1.56685 1.71946 1.6692C 1.86773 1.60665 2.016 1.5441 2.16427 1.48155C 2.00459 1.1688 1.82781 0.850357 1.594 0.588781C 1.3659 0.332892 1.04085 0.293089 0.789934 0.0826912C 0.698692 0.236225 0.60745 0.389757 0.52191 0.54329C 0.82415 0.628587 1.12639 0.810551 1.44004 0.833297C 1.66244 0.850356 1.74228 0.560349 1.61111 0.418188C 1.39441 0.179358 0.97242 0.0883749 0.670181 0.00876489C 0.419265 -0.0594722 0.179754 0.287402 0.402156 0.469368C 0.630261 0.662706 0.938203 0.708196 1.16061 0.890161C 1.41722 1.10056 1.594 1.43037 1.74798 1.71469C 1.87914 1.95921 2.26121 1.78862 2.19278 1.52704C 2.10154 1.19154 1.68525 0.969773 1.41152 0.782121C 1.05226 0.537605 0.681584 0.304461 0.305211 0.0883763C 0.0714029 -0.0310387 -0.122487 0.30446 0.0942128 0.446621Z"/>
<path id="path35_fill" d="M 0.0910629 0.342698C 0.649921 0.621333 1.30002 0.712318 1.79615 1.11605C 2.28658 1.51979 2.40633 2.17373 2.85684 2.59453C 3.02221 2.74806 3.26743 2.55472 3.16478 2.35569C 2.88535 1.79274 2.58311 1.15017 2.06988 0.763495C 1.54523 0.365445 0.855215 0.189167 0.233629 0.00720087C 0.0340366 -0.0496634 -0.0971239 0.246029 0.0910629 0.342698Z"/>
<path id="path36_fill" d="M 3.98944 2.11376C 3.28802 1.94886 2.63791 1.65316 2.02773 1.27786C 1.41755 0.902554 0.881505 0.441952 0.30554 0.0325294C 0.117353 -0.0982585 -0.110754 0.197438 0.0603254 0.350971C 1.12101 1.31198 2.46684 2.2218 3.89249 2.48907C 4.1263 2.53456 4.23465 2.17631 3.98944 2.11376Z"/>
<path id="path37_fill" d="M 7.6209 1.99617C 6.64575 1.23987 5.24861 1.46164 4.1537 0.995354C 3.56063 0.745151 3.04739 0.341415 2.403 0.204941C 1.69017 0.057094 0.931717 0.034348 0.207483 0.000229422C -0.0776484 -0.0111434 -0.0605405 0.403966 0.207483 0.432398C 0.908907 0.517695 1.64455 0.500635 2.32886 0.659855C 2.93334 0.79633 3.44087 1.18301 4.01114 1.41046C 4.54148 1.62086 5.10034 1.70616 5.6592 1.79145C 6.26938 1.88812 6.81683 2.04166 7.3871 2.29186C 7.56958 2.37716 7.80909 2.14401 7.6209 1.99617Z"/>
<path id="path38_fill" d="M 14.1198 6.50537C 13.772 6.16419 13.3214 5.91398 12.9052 5.66947C 12.4603 5.40221 12.0041 5.152 11.5536 4.9018C 10.6526 4.39571 9.76301 3.87256 8.85058 3.40058C 7.94387 2.92861 7.00863 2.62154 6.03348 2.33153C 5.06974 2.04721 4.19153 1.61505 3.27911 1.20562C 2.78298 0.983852 2.28115 0.773454 1.75651 0.631293C 1.27179 0.500506 0.775658 0.403836 0.387879 0.0626506C 0.165477 -0.130688 -0.13106 0.165007 0.0628295 0.386778C 0.336556 0.693845 0.724334 0.847377 1.10641 0.961105C 1.55122 1.09189 2.00172 1.19994 2.43512 1.37053C 3.35325 1.72877 4.21434 2.21212 5.13817 2.54762C 6.11902 2.90018 7.13979 3.11058 8.09213 3.54843C 9.03307 3.98628 9.93408 4.50944 10.8465 5.00416C 11.354 5.28279 11.8673 5.55574 12.3748 5.84006C 12.8995 6.13576 13.3842 6.494 13.9031 6.78969C 14.0799 6.88068 14.2681 6.64753 14.1198 6.50537Z"/>
<path id="path39_fill" d="M 0.333857 3.90566C 1.2976 2.62053 2.36399 1.41501 3.52733 0.306155C 3.69841 0.146935 3.44179 -0.108955 3.27071 0.0502654C 2.08456 1.18186 1.00677 2.41013 0.0373196 3.72938C -0.105246 3.91135 0.196994 4.08194 0.333857 3.90566Z"/>
<path id="path40_fill" d="M 0.0436753 0.299292C 0.402941 0.703028 0.796422 1.06127 1.24123 1.36834C 1.42941 1.49913 1.60049 1.19775 1.41801 1.06696C 1.00742 0.771266 0.631046 0.430079 0.288888 0.0547745C 0.140619 -0.110132 -0.0988905 0.134386 0.0436753 0.299292Z"/>
<path id="path41_fill" d="M 13.481 2.09347C 12.791 2.00818 12.1066 2.19014 11.5535 2.60525C 11.6162 2.60525 11.6789 2.60525 11.7417 2.60525C 10.9433 2.15602 10.0195 2.26975 9.13557 2.25838C 8.06918 2.247 7.0199 2.09916 5.98772 1.82052C 5.49159 1.68405 4.99546 1.54189 4.51644 1.35992C 4.02601 1.17227 3.54699 0.944814 3.04516 0.79128C 2.12704 0.512645 1.15189 0.524017 0.302195 0.0292976C 0.0740894 -0.10149 -0.125501 0.239696 0.0969013 0.381857C 0.861054 0.865203 1.79629 1.02442 2.66309 1.25757C 3.67815 1.53051 4.63049 1.99112 5.65126 2.23563C 6.62641 2.46878 7.65289 2.59956 8.65655 2.63937C 9.59178 2.67917 10.6924 2.45172 11.5478 2.92938C 11.5991 2.95781 11.6846 2.96918 11.736 2.92938C 12.2435 2.5427 12.8423 2.37211 13.4753 2.43466C 13.7034 2.46309 13.6977 2.1219 13.481 2.09347Z"/>
<path id="path42_fill" d="M 0.121445 0.357284C 0.828571 0.630232 1.43875 0.931614 1.99191 1.45477C 2.51655 1.94948 3.08111 2.41008 3.68559 2.80245C 3.89659 2.93892 4.06766 2.6148 3.87948 2.47264C 3.24078 2.00066 2.65911 1.48888 2.06604 0.965732C 1.52429 0.488072 0.885596 0.237869 0.212686 0.0104115C -0.00401448 -0.0635121 -0.0895526 0.277674 0.121445 0.357284Z"/>
<path id="path43_fill" d="M 17.2797 11.4504C 16.544 11.4789 15.8198 11.4277 15.107 11.223C 14.4112 11.024 13.8296 10.6259 13.1681 10.3473C 12.5123 10.0743 11.8279 9.86962 11.1835 9.56824C 10.6304 9.30666 10.1457 8.90292 9.68375 8.51056C 9.18191 8.08408 8.69149 7.64054 8.13833 7.28229C 7.60229 6.93542 7.00921 6.6909 6.46176 6.35541C 5.92571 6.02559 5.59496 5.54225 5.19577 5.07596C 4.99048 4.83144 4.76238 4.60967 4.47154 4.46751C 4.31757 4.39359 4.1636 4.38222 4.00963 4.31966C 3.84995 4.25143 3.67888 4.18887 3.5249 4.10358C 3.17134 3.91024 2.91472 3.58043 2.68092 3.26768C 2.4243 2.92649 2.17338 2.57962 1.92247 2.23275C 1.40353 1.51626 0.901695 0.788393 0.37135 0.0832764C 0.223081 -0.110062 -0.107673 0.0662151 0.0348931 0.276613C 0.496806 0.958984 0.987233 1.62998 1.46055 2.30098C 1.88255 2.89806 2.26462 3.54062 2.74364 4.09221C 2.96034 4.34241 3.22267 4.56418 3.47358 4.78026C 3.7302 4.99635 3.87277 5.2693 4.07236 5.53656C 4.48295 6.08814 4.808 6.66816 5.36115 7.09464C 5.8972 7.51544 6.51308 7.78838 7.10616 8.1182C 7.68782 8.44232 8.18966 8.86312 8.69719 9.29529C 9.21043 9.72746 9.72937 10.1483 10.3453 10.4326C 11.0353 10.751 11.7652 10.8704 12.5123 10.9728C 13.3562 11.0922 14.1204 11.422 14.9359 11.6438C 15.7114 11.8542 16.5269 11.911 17.3253 11.7859C 17.5192 11.7575 17.4735 11.4448 17.2797 11.4504Z"/>
<path id="path44_fill" d="M 11.5833 9.90388C 10.7336 9.42054 9.93527 8.85758 9.21103 8.20365C 8.48109 7.54402 7.87091 6.80478 7.27214 6.03143C 6.95849 5.62769 6.64485 5.22964 6.29129 4.86571C 5.93202 4.49609 5.53284 4.17197 5.15646 3.8251C 4.42653 3.14841 3.84486 2.34094 3.0693 1.71543C 2.21961 1.03306 1.25016 0.50422 0.275011 0.0208737C 0.0697162 -0.081482 -0.118471 0.219899 0.092526 0.333627C 0.953623 0.799914 1.82613 1.23777 2.61309 1.82347C 3.42857 2.43192 4.02734 3.23939 4.75158 3.93882C 5.12225 4.29707 5.52713 4.61551 5.8921 4.97375C 6.25707 5.332 6.57642 5.72436 6.89006 6.12241C 7.49454 6.89576 8.09332 7.65206 8.81185 8.32306C 9.59881 9.05092 10.4713 9.68212 11.4065 10.1996C 11.6061 10.3076 11.7772 10.0119 11.5833 9.90388Z"/>
<path id="path45_fill" d="M 13.0481 3.31653C 12.6204 3.25966 12.2213 3.33358 11.8164 3.45869C 11.3545 3.59516 10.9039 3.70889 10.4249 3.73732C 9.48399 3.79987 8.54876 3.64065 7.63064 3.45869C 6.70681 3.27103 5.78298 3.06632 4.85916 2.85024C 3.98095 2.63984 3.04572 2.47493 2.27016 1.98021C 1.49461 1.4855 0.89583 0.757635 0.314162 0.063891C 0.160191 -0.123761 -0.107834 0.143498 0.0461372 0.33115C 0.565077 0.956657 1.08972 1.58785 1.74552 2.08257C 2.46975 2.63416 3.29094 2.8673 4.16344 3.08338C 5.12148 3.32221 6.08522 3.5383 7.05467 3.74301C 7.9785 3.93635 8.90803 4.12969 9.85466 4.14675C 10.3622 4.15812 10.8754 4.11831 11.3716 4.00459C 11.919 3.87948 12.4437 3.61791 13.0139 3.68046C 13.1964 3.69183 13.2477 3.34496 13.0481 3.31653Z"/>
<path id="path46_fill" d="M 3.72558 2.54059C 3.19523 2.02882 2.60216 1.58528 1.94636 1.2384C 1.36469 0.931337 0.680375 0.692507 0.338217 0.0897452C 0.224164 -0.114966 -0.0894807 0.0670002 0.024572 0.271712C 0.361027 0.851727 0.959802 1.14173 1.54147 1.42606C 2.26 1.77861 2.9101 2.22216 3.48607 2.77943C 3.64574 2.93865 3.88525 2.69413 3.72558 2.54059Z"/>
<path id="path47_fill" d="M 11.4636 2.05016C 10.4314 2.10134 9.5532 1.70329 8.67499 1.19719C 7.87092 0.730907 7.06115 0.224815 6.13162 0.059909C 5.15076 -0.11637 4.27256 0.13383 3.31452 0.327168C 2.28234 0.537566 1.27298 0.429525 0.26361 0.15089C -0.010116 0.0769669 -0.107061 0.469332 0.149558 0.571688C 1.06768 0.91856 2.10556 0.981108 3.07501 0.838947C 4.12429 0.685413 5.08804 0.298738 6.16583 0.520508C 7.99068 0.901499 9.51898 2.78939 11.5092 2.38566C 11.6974 2.34585 11.6575 2.03879 11.4636 2.05016Z"/>
<path id="path48_fill" d="M 0.764448 1.03752C 0.661801 1.0034 0.519237 0.974975 0.456508 0.883992C 0.359563 0.747518 0.496424 0.576922 0.621882 0.497312C 0.730232 0.429075 0.861395 0.406331 0.981151 0.434763C 1.05528 0.451822 1.12372 0.48594 1.18074 0.537118C 1.19215 0.548491 1.35182 0.696339 1.27768 0.719085C 1.00396 0.798694 1.12371 1.174 1.39174 1.13419C 1.77952 1.07733 1.80803 0.628101 1.61414 0.366525C 1.39744 0.0651445 0.986851 -0.071329 0.633288 0.0367131C 0.308238 0.133382 -0.0111079 0.440451 0.000297347 0.798696C 0.0117026 1.16263 0.353859 1.32753 0.661801 1.40714C 0.901312 1.46401 0.992553 1.11145 0.764448 1.03752Z"/>
<path id="path49_fill" d="M 0.450122 0.719203C 0.216314 0.54861 0.860712 0.24723 0.729552 0.616848C 0.66112 0.815873 0.946251 0.980778 1.08882 0.821558C 1.24849 0.639592 1.23138 0.378016 1.08311 0.196051C 0.934844 0.0140851 0.678225 -0.0370928 0.455823 0.0254579C 0.0110175 0.150559 -0.20568 0.787439 0.261935 1.03764C 0.478635 1.15706 0.644011 0.855677 0.450122 0.719203Z"/>
<path id="path50_fill" d="M 0.166801 0.346873C 0.389204 0.346873 0.389204 -6.94144e-07 0.166801 -6.94144e-07C -0.0556014 -6.94144e-07 -0.0556014 0.346873 0.166801 0.346873Z"/>
<path id="path51_fill" d="M 0.345876 0.316598L 0.328765 0.299539C 0.34017 0.316599 0.345876 0.322284 0.345876 0.316598C 0.33447 0.305225 0.33447 0.305225 0.345876 0.316598C 0.345876 0.333657 0.351578 0.333656 0.345876 0.322283C 0.345876 0.31091 0.345876 0.316599 0.345876 0.327971C 0.345876 0.339344 0.345876 0.345029 0.345876 0.333656C 0.345876 0.32797 0.345876 0.327969 0.345876 0.322283C 0.345876 0.31091 0.345873 0.316596 0.340171 0.339342C 0.340171 0.333655 0.340171 0.333658 0.340171 0.327971C 0.357279 0.305226 0.328767 0.339342 0.33447 0.339342L 0.345876 0.322283C 0.340173 0.327969 0.33447 0.333655 0.33447 0.339342C 0.345875 0.327969 0.345875 0.327969 0.33447 0.339342C 0.328767 0.339342 0.300252 0.356402 0.311658 0.350715C 0.334468 0.345029 0.277441 0.350715 0.300252 0.350715C 0.334468 0.350715 0.29455 0.350715 0.29455 0.350715L 0.317362 0.356404C 0.317362 0.356404 0.283146 0.339344 0.305956 0.356404C 0.294551 0.350717 0.288846 0.333656 0.300252 0.350715C 0.323062 0.384834 0.283145 0.327971 0.29455 0.34503C 0.305956 0.362089 0.283147 0.305223 0.288849 0.339342C 0.305957 0.430324 0.414306 0.487191 0.505549 0.458759C 0.596791 0.430326 0.648113 0.339344 0.625302 0.242675C 0.579681 0.0379637 0.323065 -0.064392 0.146283 0.0436501C -0.0247955 0.146006 -0.0533114 0.418952 0.10066 0.54974C 0.169091 0.606604 0.277444 0.623664 0.345876 0.54974C 0.402902 0.492876 0.414307 0.379149 0.345876 0.316598Z"/>
<path id="path52_fill" d="M 0.351897 0.335715C 0.3576 0.341402 0.3576 0.347087 0.363303 0.352774C 0.3576 0.335714 0.351896 0.335714 0.357598 0.352774C 0.363301 0.369833 0.3576 0.341402 0.351897 0.335715C 0.3576 0.318656 0.363301 0.375519 0.357598 0.3414C 0.351896 0.307282 0.363301 0.364146 0.357598 0.3414C 0.357598 0.335714 0.3576 0.330027 0.363303 0.330027C 0.369006 0.318654 0.363303 0.324342 0.363303 0.335715C 0.3576 0.347088 0.3576 0.347088 0.363303 0.335715C 0.3576 0.341402 0.3576 0.347087 0.351897 0.352774C 0.3576 0.347087 0.363302 0.341402 0.369004 0.335715C 0.346194 0.364147 0.3633 0.341402 0.374706 0.335715C 0.460245 0.29591 0.48876 0.165121 0.437437 0.0855108C 0.38041 0.000214425 0.277762 -0.0225299 0.186519 0.0229615C -0.024478 0.125317 -0.0586924 0.426698 0.0952787 0.591604C 0.16371 0.659842 0.277762 0.659842 0.340491 0.591604C 0.426031 0.511994 0.414626 0.403952 0.351897 0.335715Z"/>
<path id="path53_fill" d="M 0.937907 0.201563C 0.692694 -0.162368 0.225075 0.0139117 0.0654018 0.355097C -0.11138 0.736088 0.076807 1.23081 0.550125 1.16257C 0.795339 1.12845 0.692692 0.747463 0.447479 0.787268C 0.322021 0.810014 0.384749 0.548438 0.40756 0.502947C 0.436073 0.446082 0.561531 0.2698 0.635665 0.372156C 0.766825 0.554122 1.06336 0.389215 0.937907 0.201563Z"/>
<path id="path54_fill" d="M 0.0874156 0.0777956C -0.152095 0.418981 0.133039 0.908013 0.549331 0.851148C 0.805949 0.81703 0.760325 0.458784 0.503707 0.498589C 0.355439 0.521335 0.321224 0.345058 0.383953 0.248388C 0.509411 0.0664227 0.212873 -0.10417 0.0874156 0.0777956Z"/>
<path id="path55_fill" d="M 0.353869 0.552537C 0.353869 0.461554 0.388084 0.387628 0.456516 0.319391C 0.627595 0.148798 0.35387 -0.118462 0.194196 0.057817C 0.0687384 0.194291 -0.00539721 0.364885 0.000305417 0.552537C -0.00539721 0.785681 0.348167 0.785681 0.353869 0.552537Z"/>
<path id="path56_fill" d="M 0.656788 0.160345C 0.582653 0.0295567 0.422981 -0.0273062 0.280415 0.0124988C 0.120742 0.0579902 0.0237976 0.188779 0.00668966 0.347999C -0.0332288 0.643694 0.103633 1.06449 0.468601 1.01331C 0.571249 0.996249 0.628274 0.871149 0.599761 0.780167C 0.571248 0.672124 0.468602 0.63232 0.365955 0.649379C 0.434386 0.638007 0.440088 0.683497 0.411575 0.609574C 0.394467 0.564082 0.388765 0.512904 0.383062 0.467413C 0.383062 0.433294 0.394468 0.39349 0.394468 0.365058L 0.400169 0.365058C 0.405872 0.382117 0.331738 0.319567 0.343143 0.336626C 0.480006 0.529964 0.776543 0.365056 0.656788 0.160345Z"/>
<path id="path57_fill" d="M 0.762289 0.811738C 0.864937 0.607027 0.84783 0.368196 0.699562 0.191916C 0.568401 0.0383827 0.323188 -0.0469116 0.129299 0.0270119C -0.093104 0.112308 -0.00756385 0.413688 0.226244 0.373883C 0.380215 0.351137 0.539887 0.470551 0.46005 0.635457C 0.374511 0.834482 0.659642 1.01076 0.762289 0.811738Z"/>
<path id="path58_fill" d="M 0.907267 0.477251C 0.918672 0.318031 0.838836 0.0621408 0.662054 0.010963C 0.582217 -0.0117827 0.468163 0.00527726 0.382624 0.0223365C 0.302787 0.0393958 0.222952 0.0678287 0.160223 0.119006C 0.0347656 0.215676 -0.0279654 0.374893 0.011953 0.528427C 0.0518714 0.676274 0.171629 0.795691 0.331302 0.790004C 0.570813 0.784318 0.570813 0.420386 0.331302 0.420386C 0.359816 0.420386 0.365516 0.448817 0.382624 0.454504C 0.371219 0.448817 0.376923 0.437445 0.376923 0.437445C 0.382625 0.420386 0.37122 0.44313 0.376923 0.414698C 0.376923 0.426071 0.376922 0.431759 0.365517 0.437445C 0.428246 0.380581 0.525191 0.380582 0.605028 0.374896C 0.559407 0.357836 0.513787 0.340777 0.473868 0.318031C 0.525192 0.363523 0.5423 0.403326 0.5423 0.465877C 0.5423 0.710394 0.890159 0.704708 0.907267 0.477251Z"/>
<path id="path59_fill" d="M 0.175357 0.363931C 0.409165 0.363931 0.409165 -1.38829e-06 0.175357 -1.38829e-06C -0.0584506 0.00568504 -0.0584506 0.363931 0.175357 0.363931Z"/>
<path id="path60_fill" d="M 0.175355 0.363931C 0.409162 0.363931 0.409162 1.38829e-06 0.175355 1.38829e-06C -0.0584534 0.00568782 -0.0584534 0.363931 0.175355 0.363931Z"/>
<path id="path61_fill" d="M 0.275452 0.00997551C 0.0758599 0.0895855 -0.049598 0.299983 0.0188336 0.510381C 0.0530494 0.60705 0.127184 0.692346 0.218426 0.737838C 0.332478 0.794702 0.446531 0.789014 0.560584 0.743523C 0.646123 0.709404 0.668933 0.589991 0.634717 0.510381C 0.594799 0.419398 0.50926 0.385278 0.418018 0.402337C 0.440828 0.396651 0.3838 0.402337 0.3838 0.402337C 0.400908 0.402337 0.3781 0.396652 0.372397 0.396652C 0.372397 0.396652 0.355287 0.390966 0.355287 0.379593C 0.355287 0.396653 0.360991 0.356846 0.360991 0.356846C 0.372397 0.339787 0.372396 0.339788 0.406612 0.322729C 0.589096 0.243119 0.463639 -0.0582616 0.275452 0.00997551Z"/>
<path id="path62_fill" d="M 1.03002 0.51741C 0.961586 0.272893 0.813318 0.0454363 0.545294 0.00563128C 0.294378 -0.0341737 0.0890849 0.142106 0.026356 0.375249C -0.104805 0.847223 0.271568 1.359 0.756292 1.38743C 0.972992 1.39881 1.02432 1.04625 0.807617 1.00644C 0.608025 0.966636 0.442649 0.858595 0.391326 0.648197C 0.374218 0.574273 0.368513 0.420738 0.442647 0.369561C 0.573808 0.278578 0.676457 0.523096 0.70497 0.602706C 0.767699 0.813104 1.09275 0.733494 1.03002 0.51741Z"/>
<path id="path63_fill" d="M 0.902135 1.22127C 0.731056 1.11892 0.554273 0.954011 0.651218 0.743613C 0.674028 0.692435 0.725351 0.732238 0.668325 0.709493C 0.67973 0.715179 0.674028 0.715182 0.679731 0.726555C 0.753865 0.811851 0.828 0.885775 0.890729 0.982444C 1.039 1.21559 1.36975 1.10754 1.38686 0.845968C 1.40967 0.550274 1.30702 0.254579 1.039 0.095359C 0.748162 -0.0752338 0.371789 -0.0126824 0.166494 0.248893C -0.0216926 0.487723 -0.0559077 0.806162 0.0923607 1.07911C 0.229224 1.335 0.491546 1.47147 0.759569 1.56246C 0.964864 1.63069 1.08462 1.32931 0.902135 1.22127Z"/>
<path id="path64_fill" d="M 0.426381 0.582524C 0.352247 0.514287 0.392166 0.40056 0.4663 0.360755C 0.654487 0.258399 0.529027 -0.0543548 0.31803 0.00819593C -0.0640467 0.127611 -0.103963 0.645076 0.209682 0.86116C 0.375058 0.980575 0.574649 0.713312 0.426381 0.582524Z"/>
<path id="path65_fill" d="M 0.17108 0.346941C 0.393483 0.346941 0.393483 6.66669e-05 0.17108 6.66669e-05C -0.0570249 -0.00561976 -0.0570249 0.346941 0.17108 0.346941Z"/>
<path id="path66_fill" d="M 0.171078 0.346871C 0.393481 0.346871 0.393481 0 0.171078 0C -0.057027 0 -0.057027 0.346871 0.171078 0.346871Z"/>
<path id="path67_fill" d="M 0.183909 0.375305C 0.429122 0.375305 0.429122 -1.38829e-06 0.183909 -1.38829e-06C -0.061304 -1.38829e-06 -0.061304 0.375305 0.183909 0.375305Z"/>
<path id="path68_fill" d="M 0.0305271 0.258299C 0.207309 0.491443 0.29855 0.724585 0.327063 1.01459C 0.349873 1.25342 0.697734 1.25911 0.703437 1.01459C 0.714842 0.656348 0.555168 0.298103 0.304253 0.0479005C 0.173092 -0.0885738 -0.0892282 0.0933926 0.0305271 0.258299Z"/>
<path id="path69_fill" d="M 0.0203902 0.25864C 0.191469 0.611198 0.248495 0.969444 0.191469 1.35043C 0.157253 1.59495 0.527925 1.71437 0.573546 1.45848C 0.659086 0.986503 0.573546 0.491783 0.316928 0.0823601C 0.197172 -0.105292 -0.0765545 0.0596148 0.0203902 0.25864Z"/>
<path id="path70_fill" d="M 0.00786635 0.216182C 0.139027 0.654037 0.133325 1.06346 0.104812 1.507C 0.0934065 1.71171 0.412753 1.75152 0.464077 1.55818C 0.583832 1.0862 0.509698 0.574427 0.350024 0.125199C 0.27589 -0.0908856 -0.0548626 -0.00558882 0.00786635 0.216182Z"/>
<path id="path71_fill" d="M 0.00912686 0.213732C 0.180206 0.731197 0.242935 1.26004 0.208719 1.80593C 0.191611 2.05045 0.567984 2.04476 0.590794 1.80593C 0.647821 1.22592 0.562282 0.66296 0.351285 0.122749C 0.277151 -0.0876487 -0.0593047 -0.00803836 0.00912686 0.213732Z"/>
<path id="path72_fill" d="M 0.00838589 0.243622C 0.105331 0.61324 0.162357 0.988545 0.179465 1.36954C 0.19087 1.73915 0.133843 2.09171 0.111033 2.45564C 0.0996273 2.67741 0.424678 2.70585 0.487406 2.50682C 0.721214 1.76759 0.60146 0.869129 0.38476 0.13558C 0.310626 -0.10325 -0.0600457 -0.000894687 0.00838589 0.243622Z"/>
<path id="path73_fill" d="M 0.00925742 0.213733C 0.300092 1.11219 0.300092 1.96515 0.157526 2.89204C 0.12331 3.13087 0.454063 3.23322 0.522494 2.99439C 0.801923 2.07888 0.693573 1.00415 0.351415 0.12275C 0.271578 -0.087648 -0.0591742 -0.00803767 0.00925742 0.213733Z"/>
<path id="path74_fill" d="M 0.00939375 0.209628C 0.146257 0.641797 0.254607 1.08534 0.317335 1.53457C 0.385767 2.00654 0.35155 2.47283 0.385766 2.93911C 0.397171 3.14383 0.733627 3.22343 0.773546 2.99029C 0.927517 2.05772 0.682304 0.98298 0.351552 0.118643C 0.266012 -0.0860684 -0.0590378 -0.00645633 0.00939375 0.209628Z"/>
<path id="path75_fill" d="M 0.594253 2.76279C 0.753927 1.88708 0.714008 0.914704 0.349039 0.095858C 0.2635 -0.103167 -0.0501451 0.0389937 0.00688126 0.238019C 0.120934 0.653128 0.24069 1.05686 0.280609 1.48903C 0.320527 1.89846 0.303419 2.31356 0.252095 2.7173C 0.229285 2.90495 0.560038 2.95044 0.594253 2.76279Z"/>
<path id="path76_fill" d="M 0.972671 1.15594C 0.68754 0.854557 0.539273 0.530431 0.396707 0.143754C 0.305465 -0.106449 -0.0366945 -0.00409493 0.0032239 0.251794C 0.0716555 0.695336 0.379598 1.1275 0.716053 1.40614C 0.898537 1.55399 1.13805 1.32653 0.972671 1.15594Z"/>
<path id="path77_fill" d="M 1.26449 1.72557C 0.945138 1.22517 0.660004 0.707704 0.449006 0.150434C 0.346359 -0.116828 -0.0870396 0.00258528 0.0156078 0.269847C 0.255118 0.878295 0.563062 1.44125 0.979354 1.94166C 1.11051 2.10088 1.37284 1.89617 1.26449 1.72557Z"/>
<path id="path78_fill" d="M 1.22044 2.2039C 0.758524 1.56134 0.564635 0.88465 0.376448 0.134042C 0.325124 -0.0706697 -0.00563046 -0.0308634 7.21742e-05 0.185221C 0.034288 0.975634 0.42777 1.77173 0.895386 2.39155C 1.03795 2.57921 1.363 2.39724 1.22044 2.2039Z"/>
<path id="path79_fill" d="M 1.37684 2.79826C 1.12022 2.39453 0.897816 1.97373 0.738142 1.51882C 0.664008 1.30842 0.606981 1.09234 0.555657 0.870567C 0.504334 0.637423 0.510036 0.38722 0.441605 0.159763C 0.36747 -0.0904397 0.0253154 -0.027889 0.00250488 0.216627C -0.014603 0.449771 0.0595312 0.711344 0.116558 0.938801C 0.173584 1.189 0.247716 1.43352 0.338958 1.67235C 0.51574 2.13864 0.749549 2.58218 1.04609 2.98591C 1.18865 3.17925 1.508 3.00297 1.37684 2.79826Z"/>
<path id="path80_fill" d="M 1.05626 3.13542C 0.879479 2.65776 0.736915 2.16873 0.634268 1.66832C 0.582944 1.41243 0.537322 1.15654 0.508809 0.894967C 0.480296 0.65045 0.497403 0.394561 0.440377 0.155731C 0.394756 -0.043294 0.0525967 -0.0603533 0.0183809 0.155731C -0.0500507 0.65045 0.0868146 1.24753 0.195165 1.73087C 0.31492 2.25971 0.497403 2.77717 0.714103 3.27189C 0.805345 3.46523 1.13039 3.32876 1.05626 3.13542Z"/>
<path id="path81_fill" d="M 1.08156 3.27752C 0.88197 2.79986 0.727996 2.30514 0.619646 1.80473C 0.511296 1.2759 0.522702 0.752746 0.477081 0.223908C 0.448567 -0.0774725 0.0436821 -0.0717861 0.0151689 0.223908C -0.0418574 0.758432 0.0721952 1.34982 0.186248 1.87297C 0.306003 2.41318 0.494189 2.93065 0.733699 3.42537C 0.824941 3.61302 1.1614 3.47655 1.08156 3.27752Z"/>
<path id="path82_fill" d="M 1.11141 3.33394C 0.946038 2.81079 0.769256 2.29333 0.643798 1.7588C 0.581069 1.49154 0.529747 1.21859 0.506937 0.939954C 0.484126 0.678378 0.529745 0.399745 0.461313 0.149543C 0.404287 -0.0665417 0.130562 -0.0324231 0.0564277 0.149543C -0.0405171 0.388373 0.0108073 0.684065 0.0393205 0.939954C 0.0735363 1.21859 0.124861 1.49722 0.193292 1.77586C 0.335858 2.3445 0.541153 2.8904 0.763555 3.43061C 0.849095 3.63532 1.17985 3.5614 1.11141 3.33394Z"/>
<path id="path83_fill" d="M 1.04291 3.48497C 0.854722 2.97319 0.712156 2.44435 0.615211 1.90414C 0.563888 1.63119 0.529673 1.35256 0.512565 1.07392C 0.495457 0.795286 0.52397 0.50528 0.484052 0.226645C 0.455538 -0.000812121 0.0848694 -0.114543 0.0335457 0.164092C -0.0576964 0.704303 0.0563562 1.32981 0.147598 1.86434C 0.250246 2.45572 0.43273 3.03005 0.660835 3.58732C 0.75778 3.81478 1.13415 3.7238 1.04291 3.48497Z"/>
<path id="path84_fill" d="M 0.863924 3.57695C 0.704251 3.02537 0.590199 2.45673 0.533172 1.88808C 0.476146 1.32513 0.544576 0.767857 0.51036 0.210587C 0.498955 -0.0225561 0.151097 -0.0907933 0.0883679 0.153723C -0.0541979 0.716679 0.00282914 1.37062 0.0712607 1.93926C 0.139692 2.53633 0.287961 3.11066 0.498958 3.67362C 0.584498 3.89539 0.932356 3.81009 0.863924 3.57695Z"/>
<path id="path85_fill" d="M 0.711018 3.23844C 0.482912 2.23194 0.471506 1.25388 0.517127 0.230321C 0.528532 -0.0824328 0.0723201 -0.0710599 0.0381043 0.230321C -0.0759483 1.25388 0.0780255 2.35136 0.340347 3.3408C 0.397373 3.58531 0.768044 3.48295 0.711018 3.23844Z"/>
<path id="path86_fill" d="M 0.501924 3.17844C 0.365061 2.189 0.479113 1.25074 0.64449 0.272677C 0.690111 -0.000271801 0.302334 -0.119687 0.222497 0.158948C -0.0740397 1.14839 -0.0398246 2.2743 0.125552 3.2808C 0.16547 3.531 0.53614 3.42296 0.501924 3.17844Z"/>
<path id="path87_fill" d="M 0.601946 3.17762C 0.499298 2.6829 0.447973 2.17681 0.453675 1.67071C 0.459378 1.17599 0.57343 0.704022 0.613348 0.214989C 0.636159 -0.052273 0.254085 -0.0693323 0.174248 0.158125C 0.00316952 0.635785 -0.00823574 1.22717 0.00316952 1.72758C 0.0145748 2.25642 0.100113 2.77388 0.236976 3.28566C 0.299705 3.51312 0.653269 3.41645 0.601946 3.17762Z"/>
<path id="path88_fill" d="M 0.461815 2.73614C 0.36487 1.88887 0.456112 1.09845 0.621488 0.273922C 0.678514 0.000973428 0.273627 -0.11844 0.193791 0.154508C -0.0457199 0.9961 -0.0400186 1.92299 0.0854393 2.78732C 0.113952 2.99772 0.484626 2.94654 0.461815 2.73614Z"/>
<path id="path89_fill" d="M 0.425879 2.4392C 0.391663 1.69997 0.494312 1.00054 0.61977 0.272677C 0.665391 -0.000271801 0.27761 -0.119687 0.197774 0.158948C -0.0189264 0.881124 -0.036035 1.69428 0.0438018 2.4392C 0.0780176 2.67803 0.437284 2.68941 0.425879 2.4392Z"/>
<path id="path90_fill" d="M 0.372592 1.9515C 0.372592 1.65581 0.383996 1.3658 0.43532 1.07579C 0.480941 0.80284 0.572184 0.541263 0.617805 0.268315C 0.65202 0.057917 0.34408 -0.124048 0.241432 0.109096C -0.00378081 0.660679 -0.0208887 1.35442 0.0133271 1.9515C 0.0247324 2.18464 0.378295 2.18464 0.372592 1.9515Z"/>
<path id="path91_fill" d="M 0.365923 0.0844586C 0.160628 0.465449 0.0465744 0.886246 0.000953315 1.31841C -0.0218572 1.54587 0.371626 1.60274 0.405842 1.37528C 0.462869 0.977228 0.559812 0.601924 0.696675 0.226619C 0.759404 0.0332808 0.462868 -0.0918206 0.365923 0.0844586Z"/>
<path id="path92_fill" d="M 0.224827 0.0834016C 0.0480454 0.441647 -0.0260881 0.816949 0.00812772 1.215C 0.0252356 1.45383 0.401608 1.45383 0.3845 1.215C 0.355987 0.868127 0.413012 0.538316 0.544173 0.219876C 0.618307 0.0379099 0.310366 -0.0928776 0.224827 0.0834016Z"/>
<path id="path93_fill" d="M 0.0580218 0.282437C 0.462909 0.629309 0.793661 1.03305 1.04458 1.50502C 1.15293 1.70973 1.47227 1.52777 1.35822 1.32305C 1.0902 0.834021 0.730932 0.401853 0.303234 0.0436081C 0.132155 -0.0985526 -0.113057 0.140276 0.0580218 0.282437Z"/>
<path id="path94_fill" d="M 0.0514139 0.293769C 0.21679 0.424557 0.382164 0.555345 0.54754 0.691819C 0.621674 0.75437 0.724323 0.765743 0.798457 0.691819C 0.861186 0.629269 0.872591 0.498479 0.798457 0.441615C 0.633081 0.310827 0.467704 0.18004 0.302328 0.049252C 0.228193 -0.00761232 0.125548 -0.0246716 0.0514139 0.049252C -0.0113151 0.106116 -0.0227203 0.231219 0.0514139 0.293769Z"/>
<path id="path95_fill" d="M 0.680748 1.23538C 0.53248 0.899877 0.435536 0.547319 0.389915 0.183388C 0.355699 -0.0611288 -0.0320789 -0.0611288 0.00213688 0.183388C 0.0591632 0.615556 0.184621 1.01929 0.372808 1.41166C 0.469753 1.62774 0.77199 1.44577 0.680748 1.23538Z"/>
<path id="path96_fill" d="M 0.684574 1.71306C 0.530603 1.20697 0.456468 0.706563 0.388037 0.183411C 0.359524 -0.0554186 -0.0111468 -0.0667914 0.000258498 0.183411C 0.0344743 0.734995 0.165633 1.28658 0.336712 1.80973C 0.410846 2.02013 0.747303 1.93483 0.684574 1.71306Z"/>
<path id="path97_fill" d="M 0.0235227 0.181991C -0.0392063 0.77338 0.023522 1.34771 0.211709 1.91067C 0.285843 2.13812 0.64511 2.04145 0.576679 1.80831C 0.411302 1.27379 0.354277 0.733575 0.399898 0.176305C 0.417006 -0.0625253 0.0463332 -0.0568385 0.0235227 0.181991Z"/>
<path id="path98_fill" d="M 0.0790238 0.124247C 0.0162948 0.550729 -0.0122176 0.971525 0.00489025 1.40369C 0.0105929 1.63684 0.375559 1.63684 0.369857 1.40369C 0.358451 0.994271 0.375562 0.579161 0.41548 0.169738C 0.432588 -0.0236004 0.101834 -0.0690912 0.0790238 0.124247Z"/>
<path id="path99_fill" d="M 0.163415 0.118644C -0.0190693 0.61905 -0.0475811 1.13083 0.0721742 1.65398C 0.1292 1.89281 0.488464 1.79046 0.43714 1.55163C 0.334493 1.1024 0.357304 0.647483 0.494167 0.209628C 0.562598 -0.00645668 0.237549 -0.086067 0.163415 0.118644Z"/>
<path id="path100_fill" d="M 0.11949 0.132205C 0.022545 0.553001 -0.0287779 0.98517 0.0168431 1.41734C 0.0453563 1.65617 0.410324 1.66754 0.404621 1.41734C 0.393216 1.0136 0.393217 0.626925 0.473054 0.228875C 0.518675 0.00141779 0.170813 -0.100939 0.11949 0.132205Z"/>
<path id="path101_fill" d="M 0.0410146 0.728496C 0.229201 0.973013 0.48582 1.15498 0.765249 1.29145C 0.936328 1.37675 1.15873 1.20047 1.04468 1.01282C 0.885004 0.756928 0.691115 0.529471 0.468712 0.324759C 0.434496 0.444174 0.405983 0.56359 0.371767 0.683004C 0.548549 0.614767 0.713925 0.535157 0.867896 0.421428C 0.759546 0.358878 0.651196 0.296327 0.542846 0.233777C 0.542846 0.444174 0.531441 0.654572 0.542846 0.86497C 0.554252 1.02988 0.622683 1.15498 0.78806 1.20616C 0.89641 1.24027 1.05038 1.16635 1.06749 1.04694C 1.1017 0.830851 1.15873 0.62614 1.24427 0.427115C 1.11311 0.461234 0.976247 0.495353 0.845086 0.529471C 0.850789 0.540844 0.862194 0.552217 0.867896 0.557903C 0.845086 0.478293 0.827978 0.404369 0.805168 0.324759C 0.799465 0.336132 0.799464 0.347505 0.793762 0.358878C 0.679709 0.700064 1.29559 0.791046 1.27849 0.421428C 1.27278 0.319073 1.24427 0.262209 1.18154 0.188285C 1.05608 0.0347515 0.839383 0.142793 0.782357 0.29064C 0.696817 0.512411 0.651197 0.739869 0.616981 0.978699C 0.713925 0.904775 0.81087 0.830852 0.907814 0.756928C 0.999057 0.78536 0.993354 0.893402 0.987652 0.734182C 0.987652 0.677318 0.981949 0.620453 0.981949 0.563589C 0.976246 0.449861 0.976247 0.336132 0.976247 0.222404C 0.976247 0.0745564 0.788059 -0.0676041 0.651196 0.0347516C 0.531441 0.125734 0.400281 0.199658 0.263418 0.256522C 0.126555 0.313387 0.0353118 0.495353 0.166472 0.614768C 0.366064 0.791047 0.542847 0.984385 0.691115 1.20616C 0.782357 1.11517 0.879302 1.0185 0.970544 0.927521C 0.713925 0.813793 0.491523 0.660259 0.286228 0.46692C 0.120852 0.330446 -0.0901459 0.557903 0.0410146 0.728496Z"/>
<path id="path102_fill" d="M 0.0297515 0.255919C 0.109588 0.386707 0.217938 0.494748 0.326288 0.60279C 0.434638 0.710833 0.542988 0.818875 0.679851 0.892799C 0.868038 1.00084 1.06193 0.750638 0.913659 0.591418C 0.822417 0.494749 0.708364 0.415139 0.61142 0.324156C 0.508772 0.233173 0.423233 0.130817 0.314883 0.0398345C 0.155209 -0.073894 -0.0843012 0.0739533 0.0297515 0.255919Z"/>
<path id="path103_fill" d="M 0.541964 0.838977C 0.502046 0.776426 0.44502 0.696816 0.422209 0.622892C 0.353778 0.389749 0.0059171 0.43524 0.000214473 0.679757C -0.00548816 0.935646 0.102862 1.1631 0.291049 1.3337C 0.479235 1.50429 0.758664 1.2882 0.638909 1.06643C 0.57618 0.941333 0.513451 0.821918 0.445019 0.696816C 0.330967 0.480732 -0.056812 0.634265 0.0401327 0.867409C 0.14278 1.11761 0.268238 1.38487 0.524856 1.50429C 0.787177 1.6237 1.16355 1.53272 1.38595 1.3735C 1.50571 1.28821 1.55133 1.06643 1.38595 0.986824C 1.03809 0.827604 0.724449 0.577401 0.490641 0.258961C 0.35948 0.355631 0.234022 0.457986 0.102862 0.554655C 0.399398 0.821918 0.724448 1.05506 1.07231 1.2484C 1.2776 1.36213 1.56274 1.1233 1.41447 0.907214C 1.18066 0.566028 0.832798 0.116801 0.410804 0.00875901C 0.148483 -0.0594781 -0.0853249 0.287393 0.137078 0.480732C 0.273941 0.600147 0.44502 0.67407 0.593288 0.782113C 0.735854 0.890155 0.878419 1.01526 0.986769 1.15742C 1.10082 1.04369 1.21487 0.92996 1.32893 0.816232C 1.01528 0.645639 0.724449 0.440927 0.456425 0.202097C 0.216914 -0.00830062 -0.0910275 0.304453 0.108565 0.54897C 0.393696 0.901528 0.764367 1.17448 1.17496 1.36213C 1.17496 1.23134 1.17496 1.10624 1.17496 0.975452C 1.07231 1.04938 0.844204 1.14036 0.718746 1.08349C 0.598991 1.03232 0.524857 0.85035 0.479236 0.736621C 0.342372 0.793485 0.211212 0.85035 0.0743484 0.907214C 0.137077 1.03232 0.199806 1.15173 0.262535 1.27683C 0.376588 1.18585 0.496343 1.09487 0.610396 1.00957C 0.507748 0.9129 0.450722 0.804858 0.433614 0.668384C 0.313859 0.719562 0.188401 0.77074 0.0686459 0.821917C 0.137077 0.878782 0.182699 0.941333 0.234022 1.00957C 0.365183 1.20291 0.673125 1.038 0.541964 0.838977Z"/>
<path id="path104_fill" d="M 0.967176 0.320219C 0.796098 0.0757031 0.385508 -0.100576 0.100377 0.0643302C -0.0821076 0.172372 0.00343187 0.433948 0.203024 0.445321C 0.294266 0.451007 0.385508 0.422576 0.47675 0.439635C 0.567992 0.456694 0.653532 0.502186 0.733369 0.553363C 0.875934 0.644346 1.06982 0.46238 0.967176 0.320219Z"/>
<path id="path105_fill" d="M 0.441954 0.649183C 0.413441 0.580946 0.402035 0.518395 0.402035 0.444472C 0.407738 0.370548 0.441954 0.313684 0.459061 0.245447C 0.504682 0.0577949 0.276577 -0.0843656 0.134012 0.0577951C -0.0541752 0.245447 -0.025662 0.586633 0.105499 0.791344C 0.156822 0.865267 0.248064 0.905073 0.333604 0.865268C 0.407738 0.831149 0.47617 0.73448 0.441954 0.649183Z"/>
<path id="path106_fill" d="M 0.0521292 0.296127C 0.154777 0.38711 0.251721 0.483779 0.331558 0.591822C 0.388584 0.665745 0.525447 0.660059 0.588176 0.591822C 0.66231 0.512212 0.650905 0.415542 0.588176 0.335932C 0.491231 0.216517 0.388584 0.114162 0.257424 0.0288655C 0.103453 -0.0848631 -0.0961392 0.16534 0.0521292 0.296127Z"/>
<path id="path107_fill" d="M 0.0240625 0.262297C 0.183736 0.557991 0.349112 0.853688 0.537299 1.13232C 0.674162 1.33135 0.987806 1.15507 0.868051 0.938983C 0.708377 0.643289 0.520191 0.358968 0.332004 0.0860192C 0.200844 -0.107319 -0.0842875 0.0575856 0.0240625 0.262297Z"/>
<path id="path108_fill" d="M 0.0077463 0.2215C 0.144609 0.704846 0.355607 1.18819 0.663549 1.59761C 0.806115 1.78526 1.11976 1.62036 0.994303 1.40428C 0.749089 0.989167 0.520984 0.585431 0.36131 0.12483C 0.281473 -0.0912544 -0.0549827 -0.00595733 0.0077463 0.2215Z"/>
<path id="path109_fill" d="M 0.00061126 0.17816C 0.0633402 0.906023 0.285742 1.62251 0.673521 2.24233C 0.804682 2.44704 1.11262 2.26508 0.998572 2.05468C 0.667819 1.44623 0.456821 0.820727 0.359876 0.132669C 0.331363 -0.072042 -0.0164966 -0.0265513 0.00061126 0.17816Z"/>
<path id="path110_fill" d="M 0.00333121 0.226414C 0.134492 0.94859 0.362598 1.67076 0.704756 2.3247C 0.801701 2.51236 1.13815 2.38157 1.05261 2.17686C 0.778889 1.50586 0.533677 0.834861 0.356895 0.129744C 0.294166 -0.0977131 -0.0365872 -0.0010431 0.00333121 0.226414Z"/>
<path id="path111_fill" d="M 0.00451106 0.218633C 0.118564 0.804335 0.335265 1.39572 0.620396 1.92456C 0.740152 2.14633 1.04809 1.953 0.951148 1.73122C 0.723043 1.20239 0.529153 0.673548 0.346669 0.127651C 0.272535 -0.0941196 -0.04111 -0.00313815 0.00451106 0.218633Z"/>
<path id="path112_fill" d="M 0.000601112 0.17062C 0.017709 0.454942 0.069033 0.744948 0.205896 1.00084C 0.297138 1.1828 0.610783 1.0577 0.542351 0.858676C 0.456812 0.631219 0.382677 0.40945 0.359866 0.17062C 0.337056 -0.0511505 -0.0165068 -0.0625234 0.000601112 0.17062Z"/>
<path id="path113_fill" d="M 0.00397473 0.174856C -0.00743053 0.362508 0.00397473 0.567218 0.061001 0.749183C 0.140838 0.9937 0.488697 0.891345 0.443076 0.646828C 0.414563 0.487608 0.380348 0.339762 0.374646 0.174856C 0.368943 -0.0582879 0.01538 -0.0582879 0.00397473 0.174856Z"/>
<path id="path114_fill" d="M 1.14707 0.410161C 0.844835 0.279373 0.548297 0.137212 0.240355 0.0121108C 0.0407631 -0.0674991 -0.101801 0.268 0.0920882 0.358983C 0.394328 0.489771 0.702268 0.603499 1.01021 0.722914C 1.1984 0.796838 1.32956 0.489771 1.14707 0.410161Z"/>
<path id="path115_fill" d="M 0.166803 0.346873C 0.389206 0.346873 0.389206 3.47072e-07 0.166803 3.47072e-07C -0.0555993 0.00568677 -0.0555993 0.346873 0.166803 0.346873Z"/>
<path id="path116_fill" d="M 0.0104432 0.221498C 0.0788748 0.420523 0.107388 0.613862 0.124496 0.82426C 0.141604 1.06878 0.523679 1.07446 0.512274 0.82426C 0.500869 0.58543 0.443842 0.346599 0.358302 0.124828C 0.278466 -0.0912558 -0.063691 -0.00595872 0.0104432 0.221498Z"/>
<path id="path117_fill" d="M 0.0023655 0.230136C 0.0650944 0.662304 0.0764983 1.09447 0.122119 1.52664C 0.14493 1.77116 0.5099 1.78253 0.515602 1.52664C 0.521305 1.06035 0.435763 0.588381 0.355926 0.127781C 0.316007 -0.0996765 -0.0318503 0.0026785 0.0023655 0.230136Z"/>
<path id="path118_fill" d="M 0.000275723 0.172732C 0.0230862 0.758434 0.000275029 1.37257 0.102922 1.9469C 0.142841 2.16867 0.467889 2.10043 0.479295 1.89572C 0.513511 1.32708 0.410863 0.735688 0.365242 0.172732C 0.336729 -0.0547253 -0.0111295 -0.0604117 0.000275723 0.172732Z"/>
<path id="path119_fill" d="M 0.00238055 0.172732C -0.00902471 0.747061 0.0194898 1.32708 0.110732 1.89572C 0.144948 2.10612 0.509915 2.06063 0.487104 1.84454C 0.435781 1.28727 0.384456 0.735688 0.361646 0.172732C 0.355943 -0.0547253 0.00808318 -0.0604117 0.00238055 0.172732Z"/>
<path id="path120_fill" d="M 0.00507555 0.232961C 0.090615 0.676503 0.113426 1.13142 0.102021 1.58633C 0.0963183 1.82516 0.449883 1.81948 0.466991 1.58633C 0.512612 1.0973 0.466989 0.61964 0.358639 0.136293C 0.307316 -0.102537 -0.0462481 -0.00018205 0.00507555 0.232961Z"/>
<path id="path121_fill" d="M 0.00538814 0.214538C 0.0966302 0.589842 0.153656 0.965146 0.165061 1.35182C 0.170764 1.57359 0.518626 1.57359 0.512924 1.35182C 0.501518 0.936714 0.43879 0.527292 0.341845 0.123556C 0.284819 -0.0925282 -0.0459355 -0.00154673 0.00538814 0.214538Z"/>
<path id="path122_fill" d="M 6.85638e-05 0.174857C 0.0285817 0.897033 0.0970126 1.61352 0.216768 2.32433C 0.256686 2.55747 0.604547 2.45511 0.570332 2.22766C 0.473387 1.54529 0.393548 0.862915 0.365035 0.174857C 0.35363 -0.0582866 -0.00563407 -0.0582866 6.85638e-05 0.174857Z"/>
<path id="path123_fill" d="M 0.00158653 0.172731C 0.109937 1.17923 0.252502 2.1971 0.474904 3.18654C 0.531931 3.42537 0.885495 3.32301 0.839874 3.08418C 0.65739 2.11749 0.480607 1.1508 0.360852 0.172731C 0.338041 -0.054726 -0.0269266 -0.0604124 0.00158653 0.172731Z"/>
<path id="path124_fill" d="M 0.347758 2.44162C 0.439 1.69669 0.456105 0.934711 0.473213 0.189789C 0.478915 -0.0661001 0.0911384 -0.0604137 0.0797332 0.189789C 0.0341121 0.934711 -0.0172109 1.69669 0.00559966 2.44162C 0.0113023 2.66339 0.319244 2.65201 0.347758 2.44162Z"/>
<path id="path125_fill" d="M 0.376632 4.35083C 0.47928 2.96335 0.593331 1.58154 0.650358 0.194057C 0.661763 -0.0675191 0.268283 -0.0618327 0.245472 0.194057C 0.125717 1.57586 0.0743906 2.96335 0.00025645 4.35083C -0.0111488 4.58966 0.359524 4.58966 0.376632 4.35083Z"/>
<path id="path126_fill" d="M 0.390293 4.23864C 0.401698 3.56196 0.430211 2.88527 0.475832 2.20858C 0.521453 1.5319 0.618399 0.860901 0.658317 0.189903C 0.669722 -0.0261816 0.321861 -0.0773574 0.27624 0.138727C 0.00821647 1.47504 -0.00889073 2.88527 0.00251452 4.23864C 0.00251452 4.48884 0.38459 4.48884 0.390293 4.23864Z"/>
<path id="path127_fill" d="M 0.359877 3.71326C 0.49674 2.54186 0.633601 1.36477 0.69633 0.187676C 0.707735 -0.0682136 0.337066 -0.0568408 0.302851 0.187676C 0.14888 1.35339 0.0747462 2.54186 0.000611956 3.71326C -0.0164959 3.9464 0.331364 3.93503 0.359877 3.71326Z"/>
<path id="path128_fill" d="M 0.358286 3.68104C 0.386799 2.52101 0.517962 1.38372 0.717554 0.240753C 0.757473 0.00192256 0.403909 -0.106119 0.346883 0.138397C 0.0674541 1.29274 -0.0351947 2.49826 0.0104263 3.68104C 0.0218316 3.9085 0.352583 3.9085 0.358286 3.68104Z"/>
<path id="path129_fill" d="M 0.370935 2.92928C 0.473583 2.01377 0.610446 1.10394 0.713093 0.194112C 0.735904 -0.0276586 0.359532 -0.0788378 0.319614 0.142933C 0.15994 1.06413 0.0743986 2.0024 0.000264439 2.93497C -0.0111408 3.16811 0.348125 3.16243 0.370935 2.92928Z"/>
<path id="path130_fill" d="M 0.382139 2.18637C 0.410652 1.53243 0.496191 0.889865 0.598838 0.247299C 0.638757 0.0027826 0.268088 -0.110945 0.216765 0.144944C 0.0741988 0.815942 0.0171697 1.504 6.18116e-05 2.18637C -0.00564082 2.43089 0.376436 2.43089 0.382139 2.18637Z"/>
<path id="path131_fill" d="M 0.38214 2.03652C 0.40495 1.4167 0.490492 0.808246 0.558923 0.194112C 0.581734 -0.0276586 0.211061 -0.0788378 0.16544 0.142933C 0.0456852 0.762753 0.011468 1.40532 6.27571e-05 2.03652C -0.00563987 2.28672 0.370734 2.28103 0.38214 2.03652Z"/>
<path id="path132_fill" d="M 0.405123 1.01218C 0.416529 0.739236 0.427932 0.460601 0.439338 0.187652C 0.450743 -0.0625507 0.0629661 -0.0625507 0.0458582 0.187652C 0.0287503 0.460601 0.0173458 0.739236 0.000237871 1.01218C -0.0111674 1.26807 0.393718 1.26807 0.405123 1.01218Z"/>
<path id="path133_fill" d="M 0.0121588 0.21332C 0.445559 1.37904 0.776311 2.57319 1.06715 3.77871C 1.11847 4.00048 1.45492 3.9095 1.4093 3.68204C 1.15839 2.47083 0.782014 1.27668 0.348614 0.11665C 0.268777 -0.0880611 -0.0676781 -0.00276401 0.0121588 0.21332Z"/>
</defs>
</svg>
