<svg width="73" height="34" viewBox="0 0 73 34" version="1.1" xmlns="http://www.w3.org/2000/svg" xmlns:xlink="http://www.w3.org/1999/xlink">
<title>Plastskra&#204;&#136;p</title>
<desc>Created using Figma</desc>
<g id="Canvas" transform="translate(-1523 -2391)">
<g id="Plastskra&#204;&#136;p">
<g id="Group">
<g id="Group">
<g id="Vector">
<use xlink:href="#path0_fill" transform="translate(1562.22 2398.32)" fill="#FFFFFF"/>
</g>
</g>
</g>
<g id="Group">
<g id="Group">
<g id="Vector">
<use xlink:href="#path1_fill" transform="translate(1539.28 2420.37)" fill="#FFFFFF"/>
</g>
</g>
</g>
<g id="Group">
<g id="Group">
<g id="Vector">
<use xlink:href="#path2_fill" transform="translate(1553.07 2410.24)" fill="#FFFFFF"/>
</g>
</g>
</g>
<g id="Group">
<g id="Group">
<g id="Vector">
<use xlink:href="#path3_fill" transform="translate(1546.85 2412.98)" fill="#FFFFFF"/>
</g>
</g>
</g>
<g id="Group">
<g id="Group">
<g id="Vector">
<use xlink:href="#path4_fill" transform="translate(1539.07 2410.09)" fill="#FFFFFF"/>
</g>
</g>
</g>
<g id="Group">
<g id="Group">
<g id="Vector">
<use xlink:href="#path5_fill" transform="translate(1579.96 2404)" fill="#FFFFFF"/>
</g>
</g>
</g>
<g id="Group">
<g id="Group">
<g id="Vector">
<use xlink:href="#path6_fill" transform="translate(1572.27 2405.9)" fill="#FFFFFF"/>
</g>
</g>
</g>
<g id="Group">
<g id="Group">
<g id="Vector">
<use xlink:href="#path7_fill" transform="translate(1539.68 2398.14)" fill="#FFFFFF"/>
</g>
</g>
</g>
<g id="Group">
<g id="Group">
<g id="Vector">
<use xlink:href="#path8_fill" transform="translate(1544.74 2399.79)" fill="#FFFFFF"/>
</g>
</g>
</g>
<g id="Group">
<g id="Group">
<g id="Vector">
<use xlink:href="#path9_fill" transform="translate(1548.97 2401.55)" fill="#FFFFFF"/>
</g>
</g>
</g>
<g id="Group">
<g id="Group">
<g id="Vector">
<use xlink:href="#path10_fill" transform="translate(1561.87 2398.05)" fill="#FFFFFF"/>
</g>
</g>
</g>
<g id="Group">
<g id="Group">
<g id="Vector">
<use xlink:href="#path11_fill" transform="translate(1565.72 2396.42)" fill="#FFFFFF"/>
</g>
</g>
</g>
<g id="Group">
<g id="Group">
<g id="Vector">
<use xlink:href="#path12_fill" transform="translate(1561.87 2396.33)" fill="#FFFFFF"/>
</g>
</g>
</g>
<g id="Group">
<g id="Group">
<g id="Vector">
<use xlink:href="#path13_fill" transform="translate(1525.48 2411.55)" fill="#FFFFFF"/>
</g>
</g>
</g>
<g id="Group">
<g id="Group">
<g id="Vector">
<use xlink:href="#path14_fill" transform="translate(1532.55 2413.81)" fill="#FFFFFF"/>
</g>
</g>
</g>
<g id="Group">
<g id="Group">
<g id="Vector">
<use xlink:href="#path15_fill" transform="translate(1530.3 2414.78)" fill="#FFFFFF"/>
</g>
</g>
</g>
<g id="Group">
<g id="Group">
<g id="Vector">
<use xlink:href="#path16_fill" transform="translate(1555.03 2406.33)" fill="#FFFFFF"/>
</g>
</g>
</g>
<g id="Group">
<g id="Group">
<g id="Vector">
<use xlink:href="#path17_fill" transform="translate(1557.29 2408.34)" fill="#FFFFFF"/>
</g>
</g>
</g>
<g id="Group">
<g id="Group">
<g id="Vector">
<use xlink:href="#path18_fill" transform="translate(1523 2405.39)" fill="#FFFFFF"/>
</g>
</g>
</g>
<g id="Group">
<g id="Group">
<g id="Vector">
<use xlink:href="#path19_fill" transform="translate(1528.71 2404.41)" fill="#FFFFFF"/>
</g>
</g>
</g>
<g id="Group">
<g id="Group">
<g id="Vector">
<use xlink:href="#path20_fill" transform="translate(1529.81 2406.3)" fill="#FFFFFF"/>
</g>
</g>
</g>
<g id="Group">
<g id="Group">
<g id="Vector">
<use xlink:href="#path21_fill" transform="translate(1532.12 2391)" fill="#FFFFFF"/>
</g>
</g>
</g>
<g id="Group">
<g id="Group">
<g id="Vector">
<use xlink:href="#path22_fill" transform="translate(1540.31 2395.04)" fill="#FFFFFF"/>
</g>
</g>
</g>
<g id="Group">
<g id="Group">
<g id="Vector">
<use xlink:href="#path23_fill" transform="translate(1538.19 2396.52)" fill="#FFFFFF"/>
</g>
</g>
</g>
<g id="Group">
<g id="Group">
<g id="Vector">
<use xlink:href="#path24_fill" transform="translate(1540.51 2398.17)" fill="#FFFFFF"/>
</g>
</g>
</g>
<g id="Group">
<g id="Group">
<g id="Vector">
<use xlink:href="#path25_fill" transform="translate(1549.8 2391.21)" fill="#FFFFFF"/>
</g>
</g>
</g>
</g>
</g>
<defs>
<path id="path0_fill" d="M 0.380279 7.72181C 7.90842 5.92499 15.3231 3.47307 22.5486 0.702965C 22.4162 0.665531 22.3027 0.646814 22.1703 0.60938C 25.575 3.2859 29.2634 5.58808 33.1599 7.49721C 33.1409 7.29132 33.1031 7.10415 33.0842 6.89827C 31.3629 8.80739 28.9229 10.286 26.6531 11.4652C 24.3077 12.6818 21.8298 13.5989 19.2574 14.2353C 16.7606 14.853 14.1504 15.4145 11.5779 15.377C 10.9916 15.3583 10.4052 15.2835 9.83775 15.2647C 9.10006 15.246 8.47587 15.3396 7.71927 15.1712C 6.41414 14.853 5.20359 14.2166 4.18219 13.3743C 4.18219 13.5802 4.18219 13.7674 4.18219 13.9733C 5.05227 12.9625 6.13043 11.4839 5.50623 10.1176C 5.18468 9.40633 4.48482 9.05071 3.78497 8.73252C 2.76356 8.2646 1.74216 7.79668 0.739667 7.31004C 0.285709 7.10415 -0.111512 7.75924 0.342447 7.98385C 1.53409 8.54535 2.8014 9.03199 3.95521 9.66837C 5.67647 10.6229 4.56048 12.3075 3.59582 13.3743C 3.4445 13.5428 3.40667 13.8048 3.59582 13.9733C 4.59831 14.8342 5.69538 15.4706 6.94376 15.9385C 8.17323 16.4065 9.40271 16.9305 10.7268 17.0241C 13.564 17.23 16.4769 16.968 19.2196 16.2754C 22.019 15.5829 24.7806 14.5348 27.2584 13.0561C 28.4311 12.3636 29.5282 11.5588 30.5685 10.6978C 31.7412 9.72452 32.6492 8.6015 33.6706 7.47849C 33.8219 7.31004 33.8219 6.99185 33.5949 6.87955C 30.9468 5.58808 28.3933 4.10944 25.9533 2.46235C 25.2913 2.01315 24.6481 1.56394 24.0239 1.0773C 23.6078 0.777833 23.0782 0.104021 22.5864 0.0104366C 22.1135 -0.083148 21.1489 0.47836 20.676 0.665529C 19.9383 0.946283 19.2006 1.20832 18.463 1.48907C 12.4858 3.66024 6.39523 5.47578 0.247872 7.17902C -0.168256 7.23517 -0.0169345 7.8154 0.380279 7.72181Z"/>
<path id="path1_fill" d="M 0.585297 2.73849C 1.68236 2.25185 2.7416 1.69034 3.91433 1.37216C 4.55743 1.18499 4.93573 1.11012 5.44643 1.54061C 5.7869 1.84008 6.12737 2.13955 6.48675 2.4203C 8.05669 3.69305 9.89145 4.31072 11.8964 4.53532C 14.0149 4.77864 16.1334 4.49788 18.2329 4.29199C 20.881 4.01124 23.4535 4.27328 26.1015 4.25457C 26.4988 4.25457 26.6122 3.61818 26.1961 3.54332C 23.6048 3.05668 20.8432 3.05668 18.2329 2.83207C 15.9821 2.62619 13.6744 2.79465 11.4425 2.43902C 10.4211 2.27057 9.41857 1.98982 8.54849 1.44703C 7.73514 0.96039 6.99746 0.0432581 5.97605 0.00582426C 4.0089 -0.0877604 1.62562 0.960383 0.13134 2.17698C -0.228044 2.43902 0.225913 2.88823 0.585297 2.73849Z"/>
<path id="path2_fill" d="M 12.6033 13.6909C 8.19613 9.55441 4.20507 5.06236 0.705807 0.158521C 0.440998 -0.215818 -0.202102 0.139804 0.0627066 0.532859C 3.50522 5.53028 7.57193 10.1533 12.1493 14.1401C 12.452 14.4021 12.9059 13.9716 12.6033 13.6909Z"/>
<path id="path3_fill" d="M 4.63664 0.0936445C 3.12345 1.60972 1.57242 3.08835 0.097058 4.62314C -0.205581 4.94133 0.267294 5.40925 0.588847 5.10978C 2.10204 3.61242 3.55849 2.0402 5.07168 0.524131C 5.31758 0.224661 4.90145 -0.187109 4.63664 0.0936445Z"/>
<path id="path4_fill" d="M 14.3369 0.0622994C 13.0128 -0.312039 11.8401 1.09173 10.9322 1.84041C 9.5514 3.00086 8.17061 4.18002 6.82765 5.39662C 5.48469 6.59451 4.14173 7.82983 2.8366 9.06515C 1.85302 10.001 0.472231 10.9556 0.0182725 12.2657C -0.114132 12.6588 0.510062 12.9208 0.699211 12.5465C 1.3234 11.3673 2.43938 10.5063 3.38513 9.60793C 4.48219 8.5785 5.57926 7.54908 6.69524 6.53836C 7.77339 5.56508 8.85155 4.61051 9.94861 3.65595C 10.4971 3.18803 11.0457 2.70139 11.5753 2.23347C 12.2184 1.69068 13.2398 0.474072 14.1666 0.623807C 14.5449 0.698675 14.7152 0.174601 14.3369 0.0622994Z"/>
<path id="path5_fill" d="M 7.84291 0.0532943C 5.25156 1.73782 2.67913 3.45978 0.144527 5.23788C -0.195942 5.4812 0.12561 6.04271 0.484994 5.79939C 3.07634 4.11487 5.62986 2.37419 8.16446 0.614802C 8.50493 0.371482 8.20229 -0.171309 7.84291 0.0532943Z"/>
<path id="path6_fill" d="M 5.70855 0.0232208C 3.8738 0.753181 2.03906 1.48314 0.204308 2.2131C -0.155075 2.36284 -0.00375137 2.94306 0.374547 2.79332C 2.2093 2.08208 4.06295 1.35212 5.8977 0.640877C 6.25708 0.491142 6.08685 -0.126515 5.70855 0.0232208Z"/>
<path id="path7_fill" d="M 3.40491 5.7064C 6.60153 6.43636 9.7225 7.24119 13.0137 7.20376C 15.4726 7.16632 18.7638 7.54067 20.7499 5.76256C 21.6011 4.99516 20.8445 4.32135 20.2581 3.66626C 19.7663 3.10475 19.2745 2.52453 18.7828 1.96302C 18.3477 1.45766 18.064 0.858723 17.3641 0.765138C 15.8699 0.577969 14.3945 1.10204 12.9191 0.933589C 11.5005 0.783854 10.2521 -0.133274 8.79567 0.0164609C 7.35813 0.147479 6.14758 1.25178 5.01268 2.01917C 3.386 3.14219 1.77822 4.2652 0.15154 5.3695C -0.0186948 5.4818 -0.0565224 5.7064 0.0947971 5.87486C 0.737905 6.54866 1.51341 7.29735 2.51591 7.24119C 3.25359 7.18504 3.91561 6.71712 4.01018 5.96844C 4.06693 5.55667 3.44274 5.38822 3.38599 5.79999C 3.1401 7.55938 1.1162 6.02459 0.548754 5.42565C 0.529839 5.5941 0.510927 5.76256 0.492012 5.93101C 1.96738 4.9203 3.42382 3.89086 4.89919 2.88015C 6.16649 2.00045 7.73643 0.5031 9.40094 0.652835C 10.8574 0.765137 12.1058 1.6074 13.619 1.58868C 14.4134 1.56996 15.2078 1.42023 16.0023 1.36408C 16.3238 1.34536 16.7021 1.28921 17.0237 1.34536C 17.7046 1.47638 17.9505 1.90687 18.3666 2.39351C 18.8962 3.01117 19.4637 3.61011 19.9366 4.24649C 20.3338 4.78928 20.6553 5.01388 19.9933 5.40693C 19.6528 5.61282 19.2745 5.76255 18.8773 5.87486C 17.402 6.30534 15.8699 6.39893 14.3377 6.51124C 12.5597 6.62354 10.7628 6.60482 8.98481 6.30535C 7.16898 5.98716 5.39098 5.53795 3.59406 5.1449C 3.19685 5.08875 3.04553 5.63154 3.40491 5.7064Z"/>
<path id="path8_fill" d="M 3.14892 0.0563692C 2.18426 0.748895 1.18177 1.36655 0.141451 1.90934C -0.180103 2.0778 0.103621 2.56444 0.425175 2.39598C 1.4655 1.83448 2.46799 1.21682 3.43265 0.54301C 3.73529 0.337124 3.45156 -0.168234 3.14892 0.0563692Z"/>
<path id="path9_fill" d="M 0.283726 0.580227C 0.662025 0.580227 0.662025 1.14239e-06 0.283726 1.14239e-06C -0.0945724 1.14239e-06 -0.0945724 0.580227 0.283726 0.580227Z"/>
<path id="path10_fill" d="M 0.220644 0.600732C 1.9419 0.937637 3.66316 1.25582 5.36551 1.57401C 6.97328 1.87348 8.71345 2.49114 10.3401 2.49114C 11.1346 2.49114 11.2859 1.34941 10.5293 1.1248C 8.97826 0.65688 7.1246 0.750465 5.49792 0.563296C 3.75774 0.376127 2.01757 0.17024 0.296309 0.00178819C -0.0441603 -0.0356457 -0.119825 0.525864 0.220644 0.600732Z"/>
<path id="path11_fill" d="M 7.02728 2.97587C 6.34634 2.17105 5.4195 1.77799 4.45484 1.42237C 3.11188 0.935725 1.75001 0.449085 0.388132 0.018596C -0.00908144 -0.112422 -0.160394 0.486522 0.217905 0.636258C 1.3528 1.06675 2.5066 1.4598 3.66041 1.85286C 4.73856 2.2272 5.81672 2.54538 6.63006 3.36893C 6.89487 3.63097 7.25426 3.25663 7.02728 2.97587Z"/>
<path id="path12_fill" d="M 0.451897 2.14362C 1.66245 1.46981 2.91084 1.00188 4.23488 0.627544C 4.6321 0.515242 4.46187 -0.0837027 4.06466 0.00988195C 2.68387 0.346787 1.37873 0.908297 0.149262 1.63826C -0.191207 1.82543 0.111428 2.33079 0.451897 2.14362Z"/>
<path id="path13_fill" d="M 16.3195 0.980621C 11.7989 2.60899 7.94023 5.30423 4.19507 8.24278C 4.40313 8.31765 4.59228 8.41125 4.80034 8.48611C 4.81926 8.03691 4.70577 7.64385 4.32747 7.3631C 4.10049 7.19465 3.93026 7.17593 3.66545 7.13849C 3.02234 7.00747 2.81428 6.95132 2.30358 6.55826C 1.77396 6.14649 1.01736 5.79088 0.9417 5.11707C 0.86604 4.34967 0.866041 3.7133 0.582317 2.96462C 0.506657 3.09564 0.430996 3.20794 0.374252 3.33896C 1.86853 3.05821 3.36281 2.77745 4.85709 2.4967C 5.97307 2.29081 7.33495 2.19722 8.24287 1.44854C 8.39419 1.31753 8.50768 1.14907 8.64008 1.03677C 8.98055 0.756015 9.26427 0.699871 9.71823 0.681154C 10.4181 0.625004 11.1368 0.662433 11.8178 0.699867C 13.4256 0.774734 15.0144 1.01806 16.5844 1.3924C 17.0194 1.5047 17.2085 0.830892 16.7735 0.71859C 15.2603 0.362969 13.7282 0.138359 12.1772 0.0447743C 11.4773 0.00734045 10.7775 -0.0113788 10.0776 0.00733817C 9.60474 0.0260551 8.99946 -0.0300888 8.58333 0.213231C 8.07263 0.512702 7.84565 1.03678 7.25929 1.2801C 6.63509 1.56085 5.91633 1.65443 5.23539 1.78545C 3.57088 2.10363 1.88745 2.44054 0.222934 2.75873C 0.071615 2.79616 -0.0418757 2.98333 0.0148691 3.13307C 0.128359 3.43254 0.241848 3.75073 0.298593 4.06891C 0.374253 4.4994 0.222934 5.13578 0.317509 5.52883C 0.393169 5.88445 0.620146 5.99676 0.9417 6.24008C 1.41457 6.61442 1.86853 7.00748 2.36032 7.3631C 2.73862 7.64385 4.15724 8.01819 4.13832 8.48611C 4.11941 8.72943 4.45988 8.93532 4.66794 8.78558C 8.39419 5.99676 12.5744 3.84431 16.6222 1.57956C 16.887 1.3924 16.6789 0.849602 16.3195 0.980621Z"/>
<path id="path14_fill" d="M 0.304392 0.204482C 0.190902 0.897008 0.0774117 1.58954 0.00175192 2.30078C -0.036078 2.63768 0.550287 2.71255 0.607032 2.37564C 0.720522 1.68311 0.796181 0.971869 0.890756 0.279343C 0.928586 -0.0388445 0.361137 -0.113705 0.304392 0.204482Z"/>
<path id="path15_fill" d="M 0.449557 0.204553C 0.298237 0.653759 0.165835 1.12168 0.0145158 1.57089C -0.0989738 1.92651 0.487389 2.09496 0.581964 1.72062C 0.714368 1.2527 0.865684 0.803485 0.998089 0.335562C 1.11158 -0.00134217 0.563047 -0.151068 0.449557 0.204553Z"/>
<path id="path16_fill" d="M 0.516882 4.59051C 1.23565 4.34719 1.97334 4.68409 2.67319 4.85254C 3.3163 5.00228 3.9594 5.15202 4.6025 5.26432C 5.18887 5.3579 5.77524 5.47021 6.3616 5.48892C 7.02362 5.50764 7.53433 5.26432 8.15852 5.22688C 8.46116 5.20817 8.59356 4.92741 8.48007 4.66537C 8.44224 4.44077 8.42332 4.21617 8.38549 4.01028C 8.40441 3.84183 8.36658 3.71082 8.21526 3.61723C 7.74239 3.29904 7.47757 2.79368 7.06145 2.41934C 6.73989 2.11987 6.34268 1.89527 5.96438 1.7081C 5.01863 1.22146 3.99723 0.940714 3.29738 0.0984521C 3.12715 -0.107434 2.8245 0.0422991 2.74884 0.248185C 2.20031 1.76426 0.308815 2.2509 0.00617622 3.93542C -0.0694835 4.34719 0.573622 4.51564 0.630367 4.10387C 0.895176 2.51293 2.8245 1.91399 3.37303 0.416636C 3.18388 0.472787 3.01366 0.510224 2.82451 0.566375C 3.50544 1.38992 4.45119 1.72682 5.39693 2.17603C 5.88872 2.41935 6.38051 2.68139 6.75881 3.09316C 7.13711 3.50493 7.38301 3.93542 7.83696 4.25361C 7.78022 4.12259 7.72347 3.99157 7.66673 3.86055C 7.59107 4.27232 7.60999 4.59052 7.78022 5.00229C 7.89371 4.85255 8.02611 4.6841 8.1396 4.53437C 7.43975 4.53437 6.68316 4.29104 5.9833 4.27232C 5.16996 4.25361 4.35661 4.23489 3.54327 4.1413C 2.42729 4.01028 1.2924 3.52365 0.214247 4.02901C -0.107306 4.12259 0.138583 4.72153 0.516882 4.59051Z"/>
<path id="path17_fill" d="M 0.282305 0.883401C 1.0389 0.789816 1.81441 0.714949 2.57101 0.602647C 2.94931 0.546496 2.96822 -0.0524419 2.57101 0.00370886C 1.77658 0.0972935 0.982153 0.209592 0.206641 0.321893C -0.114913 0.378044 -0.0392486 0.920835 0.282305 0.883401Z"/>
<path id="path18_fill" d="M 13.7286 2.55455C 11.1562 2.70429 8.58376 2.91018 6.03025 3.22837C 3.79829 3.52784 1.98246 5.10005 0.147707 6.29794C 0.280111 6.42896 0.412511 6.55998 0.544916 6.691C 2.22835 4.46369 4.10092 2.40482 6.14374 0.495691C 6.42746 0.233654 5.99242 -0.178115 5.72761 0.0839224C 3.64697 2.03048 1.77439 4.14549 0.0531321 6.39152C -0.136017 6.63484 0.223362 6.93432 0.450341 6.78458C 1.45283 6.14821 2.45533 5.49311 3.45782 4.85673C 4.46031 4.22036 5.36823 3.90218 6.57878 3.75244C 8.96207 3.47169 11.3643 3.28452 13.7475 3.07863C 14.088 3.07863 14.088 2.53584 13.7286 2.55455Z"/>
<path id="path19_fill" d="M 0.278996 1.70627C 3.34322 1.35065 6.40744 0.99503 9.47166 0.620691C 9.37708 0.470956 9.28251 0.302503 9.18793 0.152768C 8.58265 1.35065 8.05304 2.56725 7.58016 3.80257C 7.42884 4.17691 8.05303 4.34536 8.18544 3.97102C 8.6394 2.77314 9.16902 1.61268 9.73646 0.470952C 9.83104 0.283783 9.71755 -0.0344046 9.45274 0.00302924C 6.38852 0.377368 3.3243 0.770424 0.26008 1.14476C -0.0803885 1.1822 -0.0993023 1.76242 0.278996 1.70627Z"/>
<path id="path20_fill" d="M 0.672063 0.0754488C 0.482914 0.318769 0.293763 0.543375 0.0856992 0.786695C -0.00887549 0.917714 -0.0467054 1.08616 0.0856992 1.21718C 0.199189 1.32948 0.407257 1.3482 0.520746 1.21718C 0.709895 0.973862 0.899045 0.730544 1.08819 0.505941C 1.18277 0.374923 1.20168 0.225185 1.08819 0.0941668C 0.974705 -0.0181347 0.766638 -0.0368528 0.672063 0.0754488Z"/>
<path id="path21_fill" d="M 8.52591 8.67529C 11.174 5.83032 13.9167 3.09765 16.8106 0.514715C 17.0944 0.252678 16.735 -0.102944 16.4324 0.0280741C 11.1173 2.34897 5.83999 4.89448 0.241164 6.54157C -0.0803896 6.63515 -0.0803896 7.08436 0.241164 7.17794C 3.34321 8.05764 6.4831 8.86246 9.64189 9.53627C 9.81212 9.57371 10.0202 9.48012 10.058 9.31167C 10.1904 8.45069 10.3417 7.60843 10.4552 6.74745C 10.512 6.35439 9.9067 6.16722 9.83104 6.579C 9.67972 7.42126 9.54731 8.28224 9.41491 9.14322C 9.54731 9.06835 9.67972 8.99348 9.83104 8.91861C 6.67224 8.22609 3.55128 7.43998 0.430314 6.54157C 0.430314 6.74745 0.430314 6.97205 0.430314 7.17794C 6.06696 5.51214 11.401 2.94791 16.7539 0.570864C 16.6215 0.402411 16.4891 0.233964 16.3756 0.0842283C 13.5005 2.68588 10.739 5.41855 8.12869 8.28224C 7.84497 8.54428 8.2611 8.95605 8.52591 8.67529Z"/>
<path id="path22_fill" d="M 0.714357 0.202168C 0.449548 0.875978 0.203651 1.54979 0.0145019 2.26103C -0.0989877 2.63537 0.487376 2.7851 0.600866 2.42948C 0.80893 1.73695 1.03591 1.04443 1.2818 0.370619C 1.41421 -0.00371897 0.846761 -0.153453 0.714357 0.202168Z"/>
<path id="path23_fill" d="M 0.449967 0.139969C 0.2d79733 0.458156 0.12841 0.813777 0.0149205 1.15068C -0.0985692 1.5063 0.468879 1.65604 0.582369 1.30042C 0.676943 1.00095 0.809348 0.701476 0.960667 0.420723C 1.1309 0.102535 0.620202 -0.178219 0.449967 0.139969Z"/>
<path id="path24_fill" d="M 0.528689 1.43253C 0.698923 1.11435 0.906991 0.814874 1.15288 0.552837C 0.982651 0.459253 0.793498 0.34695 0.623263 0.253365C 0.471944 0.665138 0.396285 1.07691 0.358456 1.48868C 0.320626 1.88174 0.888072 1.90046 1.00156 1.58227C 1.15288 1.18921 1.32312 0.79616 1.47444 0.403104C 1.26637 0.346953 1.03939 0.290798 0.831329 0.234647C 0.698924 0.758721 0.661096 1.2828 0.75567 1.80687C 0.812415 2.1625 1.41769 2.08763 1.39878 1.71329C 1.37986 1.26408 1.37986 0.833593 1.47444 0.403104C 1.56901 -0.0273851 0.982648 -0.158408 0.831329 0.234647C 0.680009 0.627703 0.52869 1.02076 0.358456 1.41382C 0.56652 1.45125 0.793498 1.46997 1.00156 1.5074C 1.02048 1.13306 1.09614 0.777439 1.20963 0.440535C 1.3042 0.141064 0.888076 -0.102257 0.680012 0.141063C 0.396288 0.45925 0.188223 0.796155 0.017989 1.17049C -0.0955006 1.46996 0.358454 1.75072 0.528689 1.43253Z"/>
<path id="path25_fill" d="M 0.377395 5.45284C 3.61185 5.56514 6.82739 5.56514 10.0429 5.39669C 10.4591 5.37797 11.1778 5.50899 11.5372 5.24695C 11.6885 5.13465 11.8398 4.79775 11.9533 4.64801C 12.2181 4.27367 12.5019 3.91805 12.8045 3.58115C 13.7503 2.47685 14.8284 1.50357 15.8876 0.511572C 16.1335 0.286969 15.8687 -0.0499376 15.585 0.00621317C 12.9937 0.455419 10.5158 1.29768 8.01903 2.12123C 5.42769 2.98221 2.81742 3.82447 0.226078 4.70416C -0.171136 4.83518 -0.000896658 5.45284 0.396317 5.32182C 3.00658 4.47956 5.59793 3.58115 8.18927 2.72017C 10.6671 1.89662 13.1639 1.01693 15.7552 0.605157C 15.6607 0.436705 15.5472 0.26825 15.4526 0.0997978C 14.469 1.01693 13.4665 1.93406 12.5775 2.92605C 12.1803 3.37526 11.8399 3.91805 11.4237 4.36726C 10.913 4.91005 10.2321 4.79775 9.4944 4.83518C 6.44909 4.9662 3.40379 4.98492 0.358485 4.89133C -0.000898958 4.87261 -0.00090358 5.45284 0.377395 5.45284Z"/>
</defs>
</svg>
