<svg width="49" height="53" viewBox="0 0 49 53" version="1.1" xmlns="http://www.w3.org/2000/svg" xmlns:xlink="http://www.w3.org/1999/xlink">
<title>Sytra&#204;&#138;d</title>
<desc>Created using Figma</desc>
<g id="Canvas" transform="translate(-1612 -2379)">
<g id="Sytra&#204;&#138;d">
<g id="Vector">
<use xlink:href="#path0_stroke" transform="translate(1613.91 2380)" fill="#FFFFFF"/>
</g>
<g id="Vector">
<use xlink:href="#path1_stroke" transform="translate(1623.86 2382.47)" fill="#FFFFFF"/>
</g>
<g id="Vector">
<use xlink:href="#path2_stroke" transform="translate(1613.2 2414.11)" fill="#FFFFFF"/>
</g>
<g id="Vector">
<use xlink:href="#path3_stroke" transform="translate(1613.72 2417.84)" fill="#FFFFFF"/>
</g>
<g id="Vector">
<use xlink:href="#path1_stroke" transform="translate(1623.86 2382.47)" fill="#FFFFFF"/>
</g>
<g id="Vector">
<use xlink:href="#path4_stroke" transform="translate(1613.91 2384.07)" fill="#FFFFFF"/>
</g>
<g id="Vector">
<use xlink:href="#path5_stroke" transform="translate(1642.73 2387.3)" fill="#FFFFFF"/>
</g>
<g id="Vector">
<use xlink:href="#path6_stroke" transform="translate(1614.25 2387.32)" fill="#FFFFFF"/>
</g>
<g id="Vector">
<use xlink:href="#path7_stroke" transform="translate(1613 2410.34)" fill="#FFFFFF"/>
</g>
<g id="Vector">
<use xlink:href="#path8_stroke" transform="translate(1613.19 2414.28)" fill="#FFFFFF"/>
</g>
<g id="Vector">
<use xlink:href="#path9_stroke" transform="translate(1642.14 2414)" fill="#FFFFFF"/>
</g>
<g id="Vector">
<use xlink:href="#path10_stroke" transform="translate(1642.51 2414.96)" fill="#FFFFFF"/>
</g>
<g id="Vector">
<use xlink:href="#path11_stroke" transform="translate(1613.07 2415.23)" fill="#FFFFFF"/>
</g>
<g id="Vector">
<use xlink:href="#path12_stroke" transform="translate(1613.02 2415.13)" fill="#FFFFFF"/>
</g>
<g id="Vector">
<use xlink:href="#path13_stroke" transform="translate(1615.67 2390.09)" fill="#FFFFFF"/>
</g>
<g id="Vector">
<use xlink:href="#path14_stroke" transform="translate(1615.68 2410.55)" fill="#FFFFFF"/>
</g>
<g id="Vector">
<use xlink:href="#path15_stroke" transform="translate(1640.54 2410.56)" fill="#FFFFFF"/>
</g>
<g id="Vector">
<use xlink:href="#path16_stroke" transform="translate(1616.09 2394.66)" fill="#FFFFFF"/>
</g>
<g id="Vector">
<use xlink:href="#path17_stroke" transform="translate(1616.01 2396.62)" fill="#FFFFFF"/>
</g>
<g id="Vector">
<use xlink:href="#path16_stroke" transform="translate(1616.18 2391.88)" fill="#FFFFFF"/>
</g>
<g id="Vector">
<use xlink:href="#path16_stroke" transform="translate(1616.18 2391.01)" fill="#FFFFFF"/>
</g>
<g id="Vector">
<use xlink:href="#path18_stroke" transform="translate(1616.09 2393.74)" fill="#FFFFFF"/>
</g>
<g id="Vector">
<use xlink:href="#path19_stroke" transform="translate(1616.09 2395.64)" fill="#FFFFFF"/>
</g>
<g id="Vector">
<use xlink:href="#path18_stroke" transform="translate(1615.93 2397.59)" fill="#FFFFFF"/>
</g>
<g id="Vector">
<use xlink:href="#path20_stroke" transform="translate(1616.18 2392.8)" fill="#FFFFFF"/>
</g>
<g id="Vector">
<use xlink:href="#path19_stroke" transform="translate(1615.93 2402.14)" fill="#FFFFFF"/>
</g>
<g id="Vector">
<use xlink:href="#path16_stroke" transform="translate(1615.84 2404.11)" fill="#FFFFFF"/>
</g>
<g id="Vector">
<use xlink:href="#path19_stroke" transform="translate(1616.01 2399.37)" fill="#FFFFFF"/>
</g>
<g id="Vector">
<use xlink:href="#path19_stroke" transform="translate(1616.01 2398.49)" fill="#FFFFFF"/>
</g>
<g id="Vector">
<use xlink:href="#path21_stroke" transform="translate(1615.93 2401.22)" fill="#FFFFFF"/>
</g>
<g id="Vector">
<use xlink:href="#path20_stroke" transform="translate(1615.93 2403.12)" fill="#FFFFFF"/>
</g>
<g id="Vector">
<use xlink:href="#path22_stroke" transform="translate(1615.76 2405.08)" fill="#FFFFFF"/>
</g>
<g id="Vector">
<use xlink:href="#path23_stroke" transform="translate(1615.85 2406.96)" fill="#FFFFFF"/>
</g>
<g id="Vector">
<use xlink:href="#path24_stroke" transform="translate(1615.77 2408.92)" fill="#FFFFFF"/>
</g>
<g id="Vector">
<use xlink:href="#path19_stroke" transform="translate(1615.84 2406.04)" fill="#FFFFFF"/>
</g>
<g id="Vector">
<use xlink:href="#path22_stroke" transform="translate(1615.84 2407.94)" fill="#FFFFFF"/>
</g>
<g id="Vector">
<use xlink:href="#path19_stroke" transform="translate(1615.68 2409.89)" fill="#FFFFFF"/>
</g>
<g id="Vector">
<use xlink:href="#path25_stroke" transform="translate(1615.74 2410.8)" fill="#FFFFFF"/>
</g>
<g id="Vector">
<use xlink:href="#path18_stroke" transform="translate(1616.01 2400.29)" fill="#FFFFFF"/>
</g>
<g id="Vector">
<use xlink:href="#path26_stroke" transform="translate(1624.41 2383.16)" fill="#FFFFFF"/>
</g>
<g id="Vector">
<use xlink:href="#path27_stroke" transform="translate(1625.24 2382.84)" fill="#FFFFFF"/>
</g>
<g id="Vector">
<use xlink:href="#path28_stroke" transform="translate(1626 2382.67)" fill="#FFFFFF"/>
</g>
<g id="Vector">
<use xlink:href="#path29_stroke" transform="translate(1626.75 2382.56)" fill="#FFFFFF"/>
</g>
<g id="Vector">
<use xlink:href="#path30_stroke" transform="translate(1627.57 2382.5)" fill="#FFFFFF"/>
</g>
<g id="Vector">
<use xlink:href="#path31_stroke" transform="translate(1628.32 2382.47)" fill="#FFFFFF"/>
</g>
<g id="Vector">
<use xlink:href="#path32_stroke" transform="translate(1629.2 2382.49)" fill="#FFFFFF"/>
</g>
<g id="Vector">
<use xlink:href="#path33_stroke" transform="translate(1629.89 2382.53)" fill="#FFFFFF"/>
</g>
<g id="Vector">
<use xlink:href="#path34_stroke" transform="translate(1630.57 2382.6)" fill="#FFFFFF"/>
</g>
<g id="Vector">
<use xlink:href="#path35_stroke" transform="translate(1631.35 2382.74)" fill="#FFFFFF"/>
</g>
<g id="Vector">
<use xlink:href="#path36_stroke" transform="translate(1632.18 2382.99)" fill="#FFFFFF"/>
</g>
<g id="Vector">
<use xlink:href="#path37_stroke" transform="translate(1614.61 2385.26)" fill="#FFFFFF"/>
</g>
<g id="Vector">
<use xlink:href="#path37_stroke" transform="translate(1615.4 2385.92)" fill="#FFFFFF"/>
</g>
<g id="Vector">
<use xlink:href="#path38_stroke" transform="translate(1616.52 2386.42)" fill="#FFFFFF"/>
</g>
<g id="Vector">
<use xlink:href="#path39_stroke" transform="translate(1642.49 2385.26)" fill="#FFFFFF"/>
</g>
<g id="Vector">
<use xlink:href="#path40_stroke" transform="translate(1641.79 2385.77)" fill="#FFFFFF"/>
</g>
<g id="Vector">
<use xlink:href="#path41_stroke" transform="translate(1640.88 2386.32)" fill="#FFFFFF"/>
</g>
<g id="Vector">
<use xlink:href="#path39_stroke" transform="translate(1639.7 2386.67)" fill="#FFFFFF"/>
</g>
<g id="Vector">
<use xlink:href="#path42_stroke" transform="translate(1638.3 2387.11)" fill="#FFFFFF"/>
</g>
<g id="Vector">
<use xlink:href="#path43_stroke" transform="translate(1614.11 2416.55)" fill="#FFFFFF"/>
</g>
<g id="Vector">
<use xlink:href="#path44_stroke" transform="translate(1614.8 2417.01)" fill="#FFFFFF"/>
</g>
<g id="Vector">
<use xlink:href="#path45_stroke" transform="translate(1615.89 2417.41)" fill="#FFFFFF"/>
</g>
<g id="Vector">
<use xlink:href="#path46_stroke" transform="translate(1641.59 2416.15)" fill="#FFFFFF"/>
</g>
<g id="Vector">
<use xlink:href="#path47_stroke" transform="translate(1640.88 2416.69)" fill="#FFFFFF"/>
</g>
<g id="Vector">
<use xlink:href="#path48_stroke" transform="translate(1639.81 2417.11)" fill="#FFFFFF"/>
</g>
<g id="Vector">
<use xlink:href="#path49_stroke" transform="translate(1638.61 2417.69)" fill="#FFFFFF"/>
</g>
<g id="Vector">
<use xlink:href="#path50_stroke" transform="translate(1637.65 2417.99)" fill="#FFFFFF"/>
</g>
</g>
</g>
<defs>
<path id="path0_stroke" d="M 0.623521 5.25586L 0.793022 5.07209L 0.792361 5.07149L 0.623521 5.25586ZM 6.58439 7.48587L 6.53897 7.73171L 6.53909 7.73173L 6.58439 7.48587ZM 22.5964 7.48587L 22.6416 7.73176L 22.6419 7.73171L 22.5964 7.48587ZM 28.5573 5.25586L 28.7268 5.43963L 28.728 5.43849L 28.5573 5.25586ZM 29.1808 4.07868L 29.4308 4.07868L 29.4308 4.07684L 29.1808 4.07868ZM 19.0133 4.13671L 19.183 4.32024L 19.1836 4.31972L 19.0133 4.13671ZM 10.1509 4.13671L 9.98062 4.31972L 9.98119 4.32024L 10.1509 4.13671ZM 19.2128 3.76366L 19.4628 3.76366L 19.2128 3.76366ZM 14.5821 -0.250001C 10.5386 -0.249517 6.85931 0.210861 4.20276 0.952996C 2.86944 1.32628 1.7662 1.78116 1.00765 2.28161C 0.248981 2.78355 -0.250001 3.38569 -0.250001 4.07868L 0.249999 4.07868C 0.249999 3.64423 0.566791 3.17281 1.28354 2.69861C 2.00039 2.22292 3.0322 1.79905 4.33741 1.43452C 6.95793 0.701038 10.5697 0.249516 14.5821 0.249999L 14.5821 -0.250001ZM -0.250001 4.07868C -0.250001 4.58 0.0174731 5.03986 0.454681 5.44023L 0.792361 5.07149C 0.414833 4.72576 0.249999 4.38978 0.249999 4.07868L -0.250001 4.07868ZM 0.454021 5.43962C 1.50854 6.41229 3.70922 7.20886 6.53897 7.73171L 6.62982 7.24003C 3.8063 6.71834 1.73377 5.93981 0.793021 5.07209L 0.454021 5.43962ZM 6.53909 7.73173C 8.84502 8.15635 11.6195 8.40711 14.5904 8.40736L 14.5904 7.90736C 11.642 7.90761 8.91289 7.66098 6.62969 7.24001L 6.53909 7.73173ZM 14.5904 8.40736C 17.5614 8.4071 20.3275 8.15635 22.6416 7.73176L 22.5513 7.23998C 20.2597 7.66097 17.5388 7.90762 14.5904 7.90736L 14.5904 8.40736ZM 22.6419 7.73171C 25.4716 7.20886 27.6723 6.41229 28.7268 5.43962L 28.3878 5.07209C 27.4471 5.93981 25.3745 6.71834 22.551 7.24003L 22.6419 7.73171ZM 28.728 5.43849C 29.1531 5.0411 29.4308 4.58175 29.4308 4.07868L 28.9308 4.07868C 28.9308 4.38803 28.7596 4.72452 28.3866 5.07323L 28.728 5.43849ZM 29.4308 4.07684C 29.4257 3.38464 28.9241 2.78319 28.1633 2.28141C 27.4025 1.78104 26.2978 1.32625 24.9635 0.952982C 22.3049 0.210856 18.6256 -0.249517 14.5821 -0.250001L 14.5821 0.249999C 18.5945 0.249516 22.2063 0.701043 24.8289 1.43454C 26.1352 1.79908 27.1687 2.22303 27.888 2.69881C 28.6072 3.17317 28.9276 3.64528 28.9308 4.08052L 29.4308 4.07684ZM 18.8435 3.95318C 18.6103 4.16884 18.0838 4.38847 17.3134 4.55116C 16.5514 4.71247 15.6129 4.80722 14.5821 4.8069L 14.5821 5.3069C 15.638 5.30658 16.6283 5.20652 17.4167 5.04037C 18.1969 4.8756 18.8426 4.63514 19.183 4.32024L 18.8435 3.95318ZM 14.5821 4.8069C 13.5513 4.80722 12.6128 4.71247 11.8508 4.55116C 11.0804 4.38847 10.5539 4.16884 10.3207 3.95318L 9.98119 4.32024C 10.3216 4.63514 10.9673 4.8756 11.7475 5.04037C 12.5359 5.20652 13.5262 5.30658 14.5821 5.3069L 14.5821 4.8069ZM 10.3213 3.9537C 10.2221 3.86143 10.2014 3.79032 10.2014 3.76366L 9.70141 3.76366C 9.70141 3.9857 9.83036 4.17987 9.98062 4.31972L 10.3213 3.9537ZM 10.2014 3.76366C 10.2014 3.71497 10.2393 3.61037 10.4527 3.4694C 10.666 3.32708 10.9691 3.20318 11.3739 3.09045C 12.1935 2.86058 13.3174 2.71994 14.5821 2.72042L 14.5821 2.22042C 13.2862 2.22091 12.0948 2.37041 11.2392 2.60892C 10.8064 2.73039 10.4319 2.88523 10.1771 3.05224C 9.92226 3.22059 9.70141 3.45588 9.70141 3.76366L 10.2014 3.76366ZM 14.5821 2.72042C 15.8427 2.71994 16.9666 2.86059 17.7873 3.09048C 18.1926 3.20322 18.4967 3.32721 18.7106 3.46958C 18.9249 3.61078 18.9628 3.71538 18.9628 3.76366L 19.4628 3.76366C 19.4628 3.45547 19.2409 3.22018 18.9857 3.05206C 18.7302 2.88511 18.3551 2.73035 17.9218 2.6089C 17.0652 2.3704 15.8738 2.22091 14.5821 2.22042L 14.5821 2.72042ZM 18.9628 3.76366C 18.9628 3.79661 18.9443 3.85935 18.8429 3.9537L 19.1836 4.31972C 19.3316 4.18194 19.4628 3.99599 19.4628 3.76366L 18.9628 3.76366Z"/>
<path id="path1_stroke" d="M 9.06185 1.66629L 8.89742 1.47783L 8.8921 1.48276L 9.06185 1.66629ZM 0.199527 1.66629L 0.0292058 1.8493L 0.0297759 1.84982L 0.199527 1.66629ZM 9.01138 1.29324C 9.01138 1.33175 8.99513 1.39272 8.89749 1.47791L 9.22621 1.85467C 9.39461 1.70773 9.51138 1.52001 9.51138 1.29324L 9.01138 1.29324ZM 8.8921 1.48276C 8.65892 1.69842 8.13235 1.91805 7.36202 2.08074C 6.59999 2.24205 5.66147 2.3368 4.63069 2.33648L 4.63069 2.83648C 5.68663 2.83616 6.67688 2.7361 7.46534 2.56995C 8.2455 2.40518 8.89114 2.16472 9.2316 1.84982L 8.8921 1.48276ZM 4.63069 2.33648C 3.59991 2.3368 2.6614 2.24205 1.89936 2.08074C 1.12904 1.91805 0.602457 1.69842 0.369277 1.48276L 0.0297759 1.84982C 0.370236 2.16472 1.01588 2.40518 1.79604 2.56995C 2.5845 2.7361 3.57475 2.83616 4.63069 2.83648L 4.63069 2.33648ZM 0.369847 1.48328C 0.2707 1.39101 0.25 1.3199 0.25 1.29324L -0.25 1.29324C -0.25 1.51528 -0.121055 1.70945 0.0292066 1.84929L 0.369847 1.48328ZM 0.25 1.29324C 0.25 1.24455 0.287916 1.13995 0.501276 0.998983C 0.714555 0.856664 1.01768 0.732755 1.42244 0.620034C 2.24206 0.390159 3.36597 0.249515 4.63069 0.250001L 4.63069 -0.249999C 3.33482 -0.249513 2.14338 -0.100008 1.2878 0.138502C 0.854965 0.259972 0.48053 0.414814 0.225647 0.581815C -0.0291542 0.750166 -0.25 0.98546 -0.25 1.29324L 0.25 1.29324ZM 4.63069 0.250001C 5.89126 0.249515 7.01521 0.390167 7.8359 0.620055C 8.24124 0.732801 8.54524 0.856786 8.7592 0.999158C 8.9735 1.14036 9.01138 1.24496 9.01138 1.29324L 9.51138 1.29324C 9.51138 0.985045 9.28946 0.749762 9.0343 0.58164C 8.7788 0.414692 8.40369 0.259926 7.97038 0.13848C 7.1138 -0.100016 5.92241 -0.249513 4.63069 -0.249999L 4.63069 0.250001Z"/>
<path id="path2_stroke" d="M -1.01485e-06 0.165802L -0.216909 0.0415011L 0.209432 0.302323L -1.01485e-06 0.165802ZM 0.108078 2.02393e-06L 0.31751 0.136523L -0.0951599 -0.145581L 0.108078 2.02393e-06ZM 0.216907 0.290103C 0.245748 0.239477 0.272069 0.200319 0.311315 0.145585L -0.0951599 -0.145581C -0.13905 -0.0842545 -0.179241 -0.0239331 -0.216909 0.0415011L 0.216907 0.290103ZM -0.101355 -0.136519L -0.209434 0.029281L 0.209432 0.302323L 0.31751 0.136523L -0.101355 -0.136519Z"/>
<path id="path3_stroke" d="M 0.124705 0.455949L -0.116125 0.523037L 0.365848 0.389995L 0.124705 0.455949ZM 5.07424e-07 0.00829202L -0.249999 0.00829202L -0.249999 0.0424629L -0.24083 0.0753804L 5.07424e-07 0.00829202ZM 5.07424e-07 -1.01196e-06L 0.241144 -0.0659548L -0.249999 -1.8617L -0.249999 -1.01196e-06L 5.07424e-07 -1.01196e-06ZM 0.365535 0.388861L 0.240831 -0.0587963L -0.24083 0.0753804L -0.116125 0.523037L 0.365535 0.388861ZM 0.250001 0.00829202L 0.250001 -1.01196e-06L -0.249999 -1.01196e-06L -0.249999 0.00829202L 0.250001 0.00829202ZM -0.241143 0.0659528L -0.116438 0.521903L 0.365848 0.389995L 0.241144 -0.0659548L -0.241143 0.0659528Z"/>
<path id="path4_stroke" d="M 28.815 3.24139L 28.6195 3.08565L 28.6192 3.08594L 28.815 3.24139ZM 26.1214 4.84965L 26.0367 4.61445L 26.0367 4.61445L 26.1214 4.84965ZM 3.04279 4.84965L 3.12777 4.61454L 3.12704 4.61428L 3.04279 4.84965ZM 0.340859 3.2331L 0.537985 3.07934L 0.528409 3.06707L 0.517384 3.05607L 0.340859 3.2331ZM 0.32423 3.21652L 0.128072 3.37151L 0.137237 3.38311L 0.147705 3.39355L 0.32423 3.21652ZM 0.623522 1.17718L 0.793023 0.993415L 0.792362 0.992809L 0.623522 1.17718ZM 6.58439 3.40719L 6.53897 3.65303L 6.53909 3.65305L 6.58439 3.40719ZM 22.5964 3.40719L 22.6416 3.65308L 22.6419 3.65303L 22.5964 3.40719ZM 28.5573 1.17718L 28.7268 1.36097L 28.7299 1.35809L 28.5573 1.17718ZM 28.9059 0.00829051L 28.9059 2.36265L 29.4059 2.36265L 29.4059 0.00829051L 28.9059 0.00829051ZM 28.9059 2.36265C 28.9059 2.60055 28.8172 2.83741 28.6195 3.08565L 29.0106 3.39713C 29.2618 3.08166 29.4059 2.73821 29.4059 2.36265L 28.9059 2.36265ZM 28.6192 3.08594C 28.19 3.62659 27.314 4.15429 26.0367 4.61445L 26.2062 5.08485C 27.5061 4.61653 28.4923 4.04995 29.0108 3.39684L 28.6192 3.08594ZM 26.0367 4.61445C 23.4048 5.56283 19.2628 6.18304 14.5821 6.18304L 14.5821 6.68304C 19.2958 6.68304 23.5007 6.05976 26.2062 5.08485L 26.0367 4.61445ZM 14.5821 6.18304C 9.90123 6.18304 5.7511 5.56279 3.12777 4.61454L 2.9578 5.08476C 5.6552 6.05979 9.86857 6.68304 14.5821 6.68304L 14.5821 6.18304ZM 3.12704 4.61428C 1.84153 4.15412 0.958468 3.61843 0.537985 3.07934L 0.143733 3.38686C 0.654376 4.04153 1.65019 4.6167 2.95853 5.08503L 3.12704 4.61428ZM 0.517384 3.05607L 0.500755 3.03949L 0.147705 3.39355L 0.164334 3.41013L 0.517384 3.05607ZM 0.520389 3.06153C 0.325941 2.82033 0.246037 2.60846 0.249999 2.35436L -0.250001 2.35436C -0.246038 2.69713 -0.109789 3.06557 0.128072 3.37151L 0.520389 3.06153ZM 0.249999 2.35436L 0.249999 -4.71232e-15L -0.250001 -4.71232e-15L -0.250001 2.35436L 0.249999 2.35436ZM -0.250001 -4.71232e-15C -0.250001 0.501323 0.0174732 0.961176 0.454681 1.36155L 0.792362 0.992809C 0.414834 0.647086 0.249999 0.311097 0.249999 -4.71232e-15L -0.250001 -4.71232e-15ZM 0.454022 1.36095C 1.50854 2.33361 3.70922 3.13018 6.53897 3.65303L 6.62982 3.16135C 3.8063 2.63966 1.73377 1.86114 0.793022 0.993416L 0.454022 1.36095ZM 6.53909 3.65305C 8.84502 4.07767 11.6195 4.32843 14.5904 4.32868L 14.5904 3.82868C 11.642 3.82894 8.91289 3.5823 6.62969 3.16133L 6.53909 3.65305ZM 14.5904 4.32868C 17.5614 4.32843 20.3275 4.07767 22.6416 3.65308L 22.5513 3.1613C 20.2597 3.58229 17.5388 3.82894 14.5904 3.82868L 14.5904 4.32868ZM 22.6419 3.65303C 25.4716 3.13018 27.6723 2.33361 28.7268 1.36095L 28.3878 0.993416C 27.4471 1.86114 25.3745 2.63966 22.551 3.16135L 22.6419 3.65303ZM 28.7299 1.35809C 29.1404 0.966542 29.4059 0.507641 29.4059 0.00829051L 28.9059 0.00829051C 28.9059 0.32136 28.7391 0.6583 28.3848 0.996275L 28.7299 1.35809Z"/>
<path id="path5_stroke" d="M -0.191578 -0.138815L -0.207919 -0.114338L 0.207919 0.163291L 0.224261 0.138814L -0.191578 -0.138815Z"/>
<path id="path6_stroke" d="M 28.4825 1.01196e-06L 28.6854 0.146046L 28.2867 -0.155446L 28.4825 1.01196e-06ZM 26.4955 2.76057L 26.2926 2.61453L 26.2455 2.67996L 26.2455 2.76057L 26.4955 2.76057ZM 26.4373 3.09217L 26.2037 3.00206L 26.1994 3.01547L 26.4373 3.09217ZM 25.9718 3.75537L 25.8019 3.57193L 25.8019 3.57197L 25.9718 3.75537ZM 2.51072 3.75537L 2.68111 3.57243L 2.6804 3.57177L 2.51072 3.75537ZM 1.98696 2.76886L 2.23696 2.76886L 2.23696 2.68844L 2.19007 2.6231L 1.98696 2.76886ZM -5.07424e-07 1.01196e-06L 0.197126 -0.153756L -0.203114 0.145757L -5.07424e-07 1.01196e-06ZM 2.70193 1.61655L 2.61634 1.85145L 2.61718 1.85175L 2.70193 1.61655ZM 25.7806 1.61655L 25.8655 1.85166L 25.8661 1.85145L 25.7806 1.61655ZM 28.2796 -0.146044L 26.2926 2.61453L 26.6984 2.90661L 28.6854 0.146046L 28.2796 -0.146044ZM 26.2455 2.76057C 26.2462 2.85057 26.237 2.92129 26.2041 3.0022L 26.6706 3.18214C 26.7208 3.04751 26.7449 2.88611 26.7455 2.76057L 26.2455 2.76057ZM 26.1994 3.01547C 26.1424 3.19212 26.0168 3.37292 25.8019 3.57193L 26.1416 3.93881C 26.3923 3.70674 26.5826 3.45646 26.6753 3.16887L 26.1994 3.01547ZM 25.8019 3.57197C 25.0948 4.22693 23.6039 4.8258 21.5575 5.25788C 19.5194 5.68861 16.993 5.94295 14.2412 5.94263L 14.2412 6.44263C 17.0181 6.44232 19.5962 6.18267 21.6608 5.74709C 23.7173 5.31288 25.3273 4.69311 26.1417 3.93877L 25.8019 3.57197ZM 14.2412 5.94263C 11.4853 5.94294 8.95684 5.68861 6.91871 5.25788C 4.87221 4.82576 3.3838 4.22693 2.68111 3.57243L 2.34032 3.93831C 3.15071 4.69311 4.75913 5.31291 6.81541 5.74709C 8.88005 6.18267 11.4603 6.44232 14.2412 6.44263L 14.2412 5.94263ZM 2.6804 3.57177C 2.36752 3.28261 2.23696 3.01269 2.23696 2.76886L 1.73696 2.76886C 1.73696 3.20481 1.9722 3.59809 2.34103 3.93897L 2.6804 3.57177ZM 2.19007 2.6231L 0.203113 -0.145755L -0.203114 0.145757L 1.78384 2.91462L 2.19007 2.6231ZM -0.197127 0.153758C 0.313832 0.808838 1.31042 1.37564 2.61634 1.85145L 2.78751 1.38166C 1.49958 0.912405 0.617293 0.384924 0.197126 -0.153756L -0.197127 0.153758ZM 2.61718 1.85175C 5.32267 2.82666 9.52757 3.44994 14.2412 3.44994L 14.2412 2.94994C 9.56052 2.94994 5.41853 2.32973 2.78668 1.38136L 2.61718 1.85175ZM 14.2412 3.44994C 18.9548 3.44994 23.1681 2.82669 25.8655 1.85166L 25.6956 1.38144C 23.0722 2.32969 18.9221 2.94994 14.2412 2.94994L 14.2412 3.44994ZM 25.8661 1.85145C 27.1736 1.37507 28.1598 0.808496 28.6783 0.155448L 28.2867 -0.155446C 27.8574 0.385266 26.9814 0.912968 25.695 1.38166L 25.8661 1.85145Z"/>
<path id="path7_stroke" d="M 29.5051 4.8911L 29.2639 4.82515L 29.2606 4.83738L 29.2585 4.84989L 29.5051 4.8911ZM 29.4635 5.03203L 29.6977 5.12009L 29.7006 5.11129L 29.4635 5.03203ZM 28.9065 5.81129L 28.7386 5.62605L 28.7358 5.62866L 28.9065 5.81129ZM 28.4492 6.16776L 28.3108 5.95954L 28.3076 5.96174L 28.4492 6.16776ZM 1.29693 6.31698L 1.1647 6.52915L 1.16545 6.52961L 1.29693 6.31698ZM 0.623522 5.81129L 0.79589 5.6302L 0.794248 5.62866L 0.623522 5.81129ZM 0.0748216 5.04032L -0.162445 5.11964L -0.159178 5.12832L 0.0748216 5.04032ZM 0.0166278 4.8082L 0.265113 4.78051L 0.264686 4.77711L 0.0166278 4.8082ZM 0.0831358 4.18645L 0.314222 4.28188L 0.315164 4.27953L 0.0831358 4.18645ZM 0.199526 3.93775L -0.00990653 3.80123L -0.0176211 3.81307L -0.0239532 3.82569L 0.199526 3.93775ZM 0.307605 3.77195L 0.0995396 3.63333L 0.0981721 3.63543L 0.307605 3.77195ZM 2.67699 0.21554L 2.88505 0.354156L 2.88605 0.352625L 2.67699 0.21554ZM 2.81832 2.02393e-06L 3.04373 0.108116L 2.60925 -0.137083L 2.81832 2.02393e-06ZM 2.66867 0.572009L 2.41867 0.561108L 2.41867 0.572009L 2.66867 0.572009ZM 3.19243 1.84867L 3.38445 1.6882L 3.37699 1.68004L 3.19243 1.84867ZM 3.34208 1.99789L 3.51681 1.81909L 3.51085 1.81326L 3.50451 1.80785L 3.34208 1.99789ZM 7.76493 4.00407L 7.70539 4.24688L 7.7061 4.24705L 7.76493 4.00407ZM 22.1475 4.00407L 22.0885 3.76113L 22.0877 3.76132L 22.1475 4.00407ZM 26.4706 2.09737L 26.6379 2.28316L 26.6385 2.28259L 26.4706 2.09737ZM 26.72 1.84867L 26.9056 2.01618L 26.9064 2.01528L 26.72 1.84867ZM 27.1606 0.157509L 27.3795 0.0367629L 26.9247 0.240306L 27.1606 0.157509ZM 27.2521 0.323309L 27.0332 0.44406L 27.0343 0.446088L 27.2521 0.323309ZM 29.1309 3.65589L 28.9132 3.77867L 28.9256 3.80064L 28.9421 3.81969L 29.1309 3.65589ZM 29.2883 4.61753C 29.2886 4.69736 29.284 4.75541 29.2639 4.82515L 29.7462 4.95706C 29.776 4.84441 29.7881 4.72008 29.7883 4.61753L 29.2883 4.61753ZM 29.2585 4.84989C 29.256 4.8733 29.2455 4.89608 29.2264 4.95277L 29.7006 5.11129C 29.7148 5.0685 29.7375 5.00838 29.7516 4.93232L 29.2585 4.84989ZM 29.2295 4.94403C 29.1422 5.1815 28.9927 5.39793 28.7386 5.62607L 29.0744 5.99651C 29.3689 5.72725 29.5853 5.41312 29.6975 5.12003L 29.2295 4.94403ZM 28.7358 5.62866C 28.6113 5.74535 28.4779 5.84869 28.3108 5.95956L 28.5876 6.37595C 28.7697 6.25471 28.9356 6.12593 29.0772 5.99392L 28.7358 5.62866ZM 28.3076 5.96174C 27.2536 6.68631 25.4202 7.32306 23.0564 7.77714C 20.6948 8.23109 17.8461 8.49622 14.765 8.49595L 14.765 8.99595C 17.8693 8.99568 20.7652 8.72611 23.1507 8.26816C 25.534 7.81034 27.4501 7.15799 28.5909 6.37378L 28.3076 5.96174ZM 14.765 8.49595C 11.7791 8.4962 9.01455 8.24954 6.69819 7.8234C 4.38116 7.39741 2.54877 6.79707 1.4284 6.10434L 1.16545 6.52961C 2.36459 7.27105 4.26917 7.8852 6.60778 8.31516C 8.94705 8.74496 11.7568 8.99571 14.765 8.99595L 14.765 8.49595ZM 1.42915 6.10481C 1.17138 5.94439 0.96718 5.79392 0.795883 5.63021L 0.45116 5.99237C 0.645663 6.17684 0.8904 6.35797 1.1647 6.52915L 1.42915 6.10481ZM 0.794248 5.62866C 0.545634 5.39797 0.395272 5.18814 0.308822 4.95232L -0.159178 5.12832C -0.0461012 5.42306 0.169337 5.72721 0.452795 5.99392L 0.794248 5.62866ZM 0.311925 4.96106C 0.28816 4.89006 0.269878 4.83275 0.26509 4.78052L -0.231835 4.83589C -0.219996 4.93287 -0.188399 5.04136 -0.162282 5.11958L 0.311925 4.96106ZM 0.264686 4.77711C 0.25609 4.70861 0.249367 4.66608 0.249999 4.61753L -0.250001 4.61753C -0.249368 4.70162 -0.239461 4.77516 -0.231431 4.8393L 0.264686 4.77711ZM 0.249999 4.61753C 0.249041 4.49018 0.264969 4.39728 0.31421 4.28187L -0.147938 4.09103C -0.215088 4.25748 -0.249042 4.44644 -0.250001 4.61753L 0.249999 4.61753ZM 0.315164 4.27953C 0.344342 4.20621 0.381437 4.13271 0.423005 4.04981L -0.0239532 3.82569C -0.0655217 3.90859 -0.111561 4.0009 -0.148892 4.09338L 0.315164 4.27953ZM 0.408959 4.07427L 0.517037 3.90847L 0.0981721 3.63543L -0.00990653 3.80123L 0.408959 4.07427ZM 0.515659 3.91056L 2.88504 0.354152L 2.46893 0.0769281L 0.0995501 3.63334L 0.515659 3.91056ZM 2.88605 0.352625L 3.02738 0.137087L 2.60925 -0.137083L 2.46792 0.078455L 2.88605 0.352625ZM 2.5929 -0.108112C 2.49216 0.104585 2.42978 0.344047 2.41891 0.561119L 2.91844 0.582899C 2.92419 0.418631 2.96158 0.276759 3.04373 0.108116L 2.5929 -0.108112ZM 2.41867 0.572009L 2.41867 0.654909L 2.91867 0.654909L 2.91867 0.572009L 2.41867 0.572009ZM 2.41867 0.654909C 2.41867 1.1472 2.63659 1.61096 3.00787 2.01731L 3.37699 1.68004C 3.06655 1.34028 2.91867 0.991617 2.91867 0.654909L 2.41867 0.654909ZM 3.0006 2.00899C 3.04963 2.06726 3.11428 2.13182 3.17965 2.18793L 3.50451 1.80785C 3.45348 1.76448 3.41837 1.72956 3.38426 1.68836L 3.0006 2.00899ZM 3.16735 2.17669C 4.04808 3.03736 5.66552 3.7467 7.70539 4.24688L 7.82446 3.76126C 5.80728 3.26665 4.2988 2.58326 3.51681 1.81909L 3.16735 2.17669ZM 7.7061 4.24705C 9.74075 4.73921 12.256 5.04118 14.9562 5.04162L 14.9562 4.54162C 12.2858 4.54207 9.82953 4.24715 7.82375 3.76109L 7.7061 4.24705ZM 14.9562 5.04162C 17.656 5.0412 20.1718 4.74749 22.2073 4.24682L 22.0877 3.76132C 20.0828 4.25546 17.627 4.54204 14.9562 4.54162L 14.9562 5.04162ZM 22.2065 4.24701C 24.165 3.7713 25.7351 3.09595 26.6379 2.28316L 26.3033 1.91158C 25.4935 2.64074 24.0208 3.29178 22.0885 3.76114L 22.2065 4.24701ZM 26.6385 2.28259C 26.7343 2.19565 26.8263 2.1039 26.9056 2.01618L 26.5344 1.68117C 26.4641 1.75925 26.3898 1.83329 26.3027 1.91215L 26.6385 2.28259ZM 26.9064 2.01528C 27.2747 1.60322 27.4938 1.1485 27.4938 0.654909L 26.9938 0.654909C 26.9938 0.990315 26.847 1.33144 26.5336 1.68206L 26.9064 2.01528ZM 27.4938 0.654909C 27.4931 0.470463 27.4614 0.263049 27.3965 0.0747118L 26.9247 0.240306C 26.9762 0.383569 26.9945 0.507755 26.9938 0.654909L 27.4938 0.654909ZM 26.9417 0.278255L 27.0332 0.444055L 27.471 0.202563L 27.3795 0.0367629L 26.9417 0.278255ZM 27.0343 0.446088L 28.9132 3.77867L 29.3487 3.53311L 27.4698 0.20053L 27.0343 0.446088ZM 28.9421 3.81969C 29.1802 4.09419 29.2883 4.36157 29.2883 4.61753L 29.7883 4.61753C 29.7883 4.21029 29.6138 3.83105 29.3198 3.49209L 28.9421 3.81969Z"/>
<path id="path8_stroke" d="M -0.166672 -0.177336L -0.176212 -0.167856L 0.176215 0.186821L 0.185755 0.177341L -0.166672 -0.177336Z"/>
<path id="path9_stroke" d="M 0.567149 0.499335L 0.217981 -0.122415L -0.217977 0.122415L 0.131192 0.744165L 0.567149 0.499335Z"/>
<path id="path10_stroke" d="M -0.214917 -0.0301707L -0.248174 0.243403L 0.248172 0.303741L 0.281429 0.0301667L -0.214917 -0.0301707Z"/>
<path id="path11_stroke" d="M 29.4302 2.02393e-06L 29.6784 0.029904L 29.1837 -0.0412117L 29.4302 2.02393e-06ZM 29.1226 2.55332L 28.8744 2.52342L 28.8726 2.53832L 28.8726 2.55332L 29.1226 2.55332ZM 28.5157 3.70563L 28.3471 3.52109L 28.3454 3.52268L 28.5157 3.70563ZM 1.24704 3.70563L 1.07672 3.88864L 1.07755 3.8894L 1.24704 3.70563ZM 0.648463 2.61135L 0.889294 2.54426L 0.303633 0.441892L 0.398701 2.62224L 0.648463 2.61135ZM 0.773168 3.05901L 0.532338 3.1261L 1.01431 2.99306L 0.773168 3.05901ZM 0.648463 2.60306L 0.406752 2.66694L 0.40732 2.66901L 0.648463 2.60306ZM -1.01485e-06 0.149221L 0.233999 0.0612209L -0.241704 0.213095L -1.01485e-06 0.149221ZM 0.548699 0.92019L 0.721068 0.739099L 0.719425 0.737563L 0.548699 0.92019ZM 1.2221 1.42588L 1.08682 1.63616L 1.09063 1.63851L 1.2221 1.42588ZM 28.3744 1.27666L 28.236 1.06843L 28.2323 1.07101L 28.3744 1.27666ZM 28.8317 0.92019L 28.9961 1.10868L 29.0024 1.10282L 28.8317 0.92019ZM 29.3887 0.140928L 29.6228 0.228989L 29.6258 0.220188L 29.3887 0.140928ZM 29.182 -0.0298999L 28.8744 2.52342L 29.3708 2.58322L 29.6784 0.029904L 29.182 -0.0298999ZM 28.8726 2.55332C 28.8726 2.85729 28.7149 3.18487 28.3471 3.5211L 28.6844 3.89016C 29.1147 3.49686 29.3726 3.04519 29.3726 2.55332L 28.8726 2.55332ZM 28.3454 3.52268C 27.518 4.29318 25.7782 4.98945 23.3992 5.48996C 21.0285 5.98909 18.0863 6.28283 14.8814 6.28252L 14.8814 6.78252C 18.1112 6.78221 21.1049 6.48322 23.5021 5.97925C 25.891 5.47667 27.751 4.7595 28.6861 3.88858L 28.3454 3.52268ZM 14.8814 6.28252C 11.6765 6.28284 8.7365 5.98704 6.36683 5.48688C 3.98911 4.98539 2.24844 4.28908 1.41653 3.52185L 1.07755 3.8894C 2.01645 4.75531 3.87558 5.47244 6.26364 5.97612C 8.65976 6.48112 11.6515 6.78221 14.8814 6.78252L 14.8814 6.28252ZM 1.41736 3.52262C 1.07051 3.19981 0.910958 2.89247 0.898226 2.60046L 0.398701 2.62224C 0.419223 3.09292 0.675349 3.51508 1.07672 3.88863L 1.41736 3.52262ZM 0.407633 2.67844L 0.532338 3.1261L 1.014 2.99192L 0.889294 2.54426L 0.407633 2.67844ZM 1.01431 2.99306L 0.889607 2.53711L 0.40732 2.66901L 0.532025 3.12496L 1.01431 2.99306ZM 0.890166 2.53919L 0.241702 0.0853474L -0.241704 0.213095L 0.406761 2.66693L 0.890166 2.53919ZM -0.234001 0.237221C -0.120924 0.531964 0.094514 0.836111 0.377973 1.10282L 0.719425 0.737563C 0.470812 0.506869 0.320449 0.297038 0.233999 0.0612209L -0.234001 0.237221ZM 0.376337 1.10127C 0.572501 1.28712 0.824195 1.46708 1.08684 1.63613L 1.35736 1.21563C 1.10457 1.05308 0.890697 0.901439 0.721061 0.739106L 0.376337 1.10127ZM 1.09063 1.63851C 2.28977 2.37995 4.19435 2.9941 6.53295 3.42406C 8.87222 3.85386 11.682 4.1046 14.6902 4.10485L 14.6902 3.60485C 11.7042 3.6051 8.93972 3.35844 6.62336 2.9323C 4.30633 2.50631 2.47394 1.90597 1.35358 1.21324L 1.09063 1.63851ZM 14.6902 4.10485C 17.7944 4.10459 20.6903 3.8371 23.0758 3.38019C 25.4591 2.92341 27.3755 2.27104 28.5166 1.48231L 28.2323 1.07101C 27.1785 1.79935 25.3455 2.43607 22.9817 2.88913C 20.6201 3.34204 17.7713 3.60512 14.6902 3.60485L 14.6902 4.10485ZM 28.5128 1.48485C 28.6983 1.36112 28.8607 1.22659 28.996 1.10857L 28.6673 0.731814C 28.5366 0.845908 28.3997 0.960077 28.236 1.06846L 28.5128 1.48485ZM 29.0024 1.10282C 29.2853 0.836675 29.5092 0.524333 29.6227 0.228928L 29.1547 0.0529279C 29.0686 0.288083 28.91 0.506305 28.6609 0.737563L 29.0024 1.10282ZM 29.6258 0.220188C 29.64 0.177397 29.6626 0.117284 29.6768 0.0412157L 29.1837 -0.0412117C 29.1812 -0.0177998 29.1706 0.00497902 29.1516 0.0616684L 29.6258 0.220188Z"/>
<path id="path12_stroke" d="M 5.07424e-07 0.016582L -0.249999 0.016582L -0.249999 0.0516913L -0.240329 0.0854425L 5.07424e-07 0.016582ZM 0.306838 0.179841L 0.24033 -0.0522785L -0.240329 0.0854425L -0.173821 0.317562L 0.306838 0.179841ZM 0.250001 0.016582L 0.250001 1.01196e-06L -0.249999 1.01196e-06L -0.249999 0.016582L 0.250001 0.016582Z"/>
<path id="path13_stroke" d="M 24.5834 20.5758L 24.3645 20.6965L 24.8162 21.5154L 24.8334 20.5804L 24.5834 20.5758ZM 24.4919 20.41L 24.7109 20.2892L 24.2561 20.4928L 24.4919 20.41ZM 24.0513 22.1011L 23.8668 21.9325L 23.8657 21.9336L 24.0513 22.1011ZM 23.8019 22.3498L 23.9692 22.5356L 23.9698 22.5351L 23.8019 22.3498ZM 19.4788 24.2565L 19.4201 24.0135L 19.42 24.0136L 19.4788 24.2565ZM 5.09625 24.2565L 5.15602 24.0138L 5.15579 24.0137L 5.09625 24.2565ZM 0.673404 22.2504L 0.49687 22.4274L 0.498676 22.4292L 0.673404 22.2504ZM 0.523758 22.1011L 0.337365 22.2677L 0.342149 22.2731L 0.347233 22.2782L 0.523758 22.1011ZM -4.72575e-15 20.8245L -0.25 20.8136L -0.25 20.8245L -4.72575e-15 20.8245ZM 0.149644 20.2525L 0.377125 20.3562L -0.0594196 20.1154L 0.149644 20.2525ZM 0.00831413 20.468L -0.241596 20.4613L -0.265179 21.341L 0.217378 20.6051L 0.00831413 20.468ZM 0.557014 5.05981e-07L 0.807014 5.05981e-07L 0.307104 -0.00669901L 0.557014 5.05981e-07ZM 1.08077 0.98651L 1.25068 0.803087L 1.248 0.800675L 1.08077 0.98651ZM 24.5418 0.98651L 24.372 0.80307L 24.3714 0.803571L 24.5418 0.98651ZM 24.9492 0.65491L 25.1992 0.6595L 25.2302 -1.03173L 24.7113 0.57821L 24.9492 0.65491ZM 24.8023 20.455L 24.7109 20.2892L 24.273 20.5307L 24.3645 20.6965L 24.8023 20.455ZM 24.2561 20.4928C 24.3077 20.637 24.3258 20.7529 24.3251 20.9074L 24.8251 20.9074C 24.8243 20.7137 24.7925 20.5146 24.7278 20.3272L 24.2561 20.4928ZM 24.3251 20.9074C 24.3251 21.2441 24.1772 21.5928 23.8668 21.9325L 24.2359 22.2698C 24.6072 21.8634 24.8251 21.3997 24.8251 20.9074L 24.3251 20.9074ZM 23.8657 21.9336C 23.7954 22.0117 23.7211 22.0858 23.634 22.1646L 23.9698 22.5351C 24.0656 22.4481 24.1576 22.3564 24.2369 22.2686L 23.8657 21.9336ZM 23.6346 22.164C 22.8247 22.8933 21.3602 23.5443 19.4201 24.0135L 19.5376 24.4995C 21.5049 24.0237 23.0666 23.3483 23.9692 22.5356L 23.6346 22.164ZM 19.42 24.0136C 17.4142 24.4996 14.9579 24.7945 12.2875 24.7941L 12.2875 25.2941C 14.9878 25.2936 17.503 24.9917 19.5377 24.4995L 19.42 24.0136ZM 12.2875 24.7941C 9.61676 24.7945 7.16093 24.5079 5.15602 24.0138L 5.03648 24.4993C 7.072 25 9.58772 25.2937 12.2875 25.2941L 12.2875 24.7941ZM 5.15579 24.0137C 3.13861 23.5191 1.63013 22.8357 0.848132 22.0716L 0.498676 22.4292C 1.37941 23.2898 2.99684 23.9992 5.03672 24.4993L 5.15579 24.0137ZM 0.849929 22.0733C 0.800045 22.0236 0.750162 21.9739 0.700282 21.9241L 0.347233 22.2782C 0.397117 22.3279 0.447 22.3776 0.496879 22.4274L 0.849929 22.0733ZM 0.71015 21.9345C 0.39675 21.5839 0.25 21.2428 0.25 20.9074L -0.25 20.9074C -0.25 21.401 -0.0309524 21.8557 0.337365 22.2677L 0.71015 21.9345ZM 0.25 20.9074L 0.25 20.8245L -0.25 20.8245L -0.25 20.9074L 0.25 20.9074ZM 0.249763 20.8354C 0.254956 20.6746 0.300821 20.522 0.377125 20.3562L -0.0778362 20.1488C -0.167805 20.3477 -0.238329 20.593 -0.249763 20.8136L 0.249763 20.8354ZM -0.0594196 20.1154L -0.20075 20.3309L 0.217378 20.6051L 0.358708 20.3896L -0.0594196 20.1154ZM 0.258224 20.4747L 0.806924 0.00670002L 0.307104 -0.00669901L -0.241596 20.4613L 0.258224 20.4747ZM 0.307014 5.05981e-07C 0.307014 0.434434 0.540614 0.836756 0.913543 1.17235L 1.248 0.800675C 0.939211 0.522804 0.807014 0.245347 0.807014 5.05981e-07L 0.307014 5.05981e-07ZM 0.91088 1.16991C 1.72522 1.92425 3.33526 2.54401 5.3917 2.97823C 7.45633 3.41381 10.0345 3.67345 12.8113 3.67377L 12.8113 3.17377C 10.0596 3.17408 7.53314 2.91975 5.495 2.48902C 3.44866 2.05694 1.95772 1.45807 1.25066 0.803106L 0.91088 1.16991ZM 12.8113 3.67377C 15.5923 3.67346 18.1725 3.41381 20.2371 2.97823C 22.2934 2.54405 23.9018 1.92425 24.7122 1.16945L 24.3714 0.803571C 23.6687 1.45807 22.1803 2.0569 20.1338 2.48902C 18.0957 2.91975 15.5672 3.17408 12.8113 3.17377L 12.8113 3.67377ZM 24.7117 1.16995C 24.791 1.09649 24.8329 1.0866 24.9025 1.05701C 24.9433 1.03945 25.0145 0.998461 25.0693 0.945142C 25.1271 0.883317 25.1621 0.809195 25.1871 0.73161L 24.7113 0.57821C 24.7013 0.613133 24.7 0.605314 24.7042 0.603534C 24.7166 0.590267 24.7284 0.587746 24.707 0.596847C 24.6498 0.621143 24.5254 0.660995 24.372 0.80307L 24.7117 1.16995ZM 24.6992 0.65032L 24.3334 20.5712L 24.8334 20.5804L 25.1992 0.6595L 24.6992 0.65032Z"/>
<path id="path14_stroke" d="M -0.24162 -0.0056949L -0.249935 0.359062L 0.249936 0.370456L 0.25825 0.00569895L -0.24162 -0.0056949Z"/>
<path id="path15_stroke" d="M 0.00831261 0L 0.0880605 -0.236939L -0.233117 -0.34504L -0.241609 -0.00626431L 0.00831261 0ZM 5.87112 20.6878C 10.1049 19.7947 13.209 18.798 15.3749 17.745C 17.5451 16.6892 18.8306 15.5517 19.3852 14.3494C 19.9481 13.1294 19.7356 11.8953 19.0361 10.7177C 18.3412 9.54802 17.1562 8.41379 15.7269 7.35056C 12.8704 5.22712 8.95199 3.32556 5.76345 1.96294C 4.16799 1.2812 2.74822 0.730815 1.73029 0.352035C 1.22073 0.162431 0.810007 0.0151149 0.527717 -0.0844216C 0.386292 -0.134287 0.276341 -0.172432 0.202195 -0.197954C 0.164987 -0.210762 0.136445 -0.220511 0.117413 -0.226988C 0.107831 -0.230249 0.100491 -0.232738 0.0956465 -0.234377C 0.0931917 -0.235208 0.0912947 -0.235849 0.0900608 -0.236265C 0.0894275 -0.236479 0.0889273 -0.236647 0.0886099 -0.236754C 0.0882601 -0.236872 0.0880605 -0.236939 0.00831261 0C -0.0714352 0.236939 -0.0713329 0.236974 -0.0710804 0.237059C -0.0707956 0.237155 -0.0703932 0.237291 -0.0698252 0.237482C -0.0686568 0.237877 -0.066957 0.238451 -0.0646339 0.239237C -0.0599224 0.240831 -0.0529829 0.243184 -0.0436689 0.246354C -0.0249089 0.252738 0.00280608 0.262205 0.0394588 0.274822C 0.113034 0.300147 0.221218 0.337678 0.36145 0.387124C 0.642472 0.486212 1.04914 0.632066 1.55592 0.820644C 2.57068 1.19823 3.97936 1.74426 5.56698 2.42272C 8.7446 3.78052 12.6109 5.65454 15.4284 7.75174C 16.8361 8.79884 17.9605 9.8862 18.6062 10.9731C 19.2472 12.0521 19.4065 13.1097 18.9312 14.14C 18.4477 15.188 17.2851 16.2596 15.1561 17.2954C 13.0228 18.334 9.97671 19.3114 5.76796 20.1985L 5.87112 20.6878ZM -0.241609 -0.00626431L -0.24992 0.325336L 0.249923 0.337864L 0.258234 0.00626431L -0.241609 -0.00626431Z"/>
<path id="path16_stroke" d="M -0.241833 0.063378C -0.0627161 0.74685 0.471799 1.30405 1.21043 1.75379C 1.94286 2.19844 2.92798 2.56665 4.05167 2.84966C 6.29158 3.41222 9.18417 3.67354 12.0704 3.66133C 14.9565 3.64858 17.8715 3.36273 20.16 2.83632C 21.3073 2.5719 22.3184 2.24037 23.086 1.85446C 23.8527 1.46825 24.4372 0.999532 24.6803 0.429726L 24.2204 0.233476C 24.0479 0.637746 23.5955 1.03792 22.8611 1.40792C 22.1276 1.77821 21.1733 2.09019 20.0478 2.34907C 17.7909 2.86928 14.931 3.14923 12.0682 3.16134C 9.20557 3.174 6.37527 2.91927 4.17362 2.36476C 3.07654 2.08923 2.16122 1.74864 1.47046 1.32673C 0.785897 0.909903 0.374478 0.442767 0.241834 -0.063376L -0.241833 0.063378Z"/>
<path id="path17_stroke" d="M -0.241833 0.0633765C -0.0627161 0.746849 0.471799 1.30405 1.21043 1.75379C 1.94286 2.19844 2.92798 2.56664 4.05167 2.84965C 6.29158 3.41222 9.18417 3.67354 12.0704 3.66133C 14.9565 3.64857 17.8715 3.36273 20.16 2.83632C 21.3073 2.5719 22.3184 2.24037 23.086 1.85446C 23.8527 1.46825 24.4372 0.99953 24.6803 0.429724L 24.2204 0.233475C 24.0479 0.637744 23.5955 1.03792 22.8611 1.40792C 22.1276 1.77821 21.1733 2.09019 20.0478 2.34907C 17.7909 2.86928 14.931 3.14922 12.0682 3.16134C 9.20557 3.174 6.37527 2.91927 4.17362 2.36476C 3.07654 2.08923 2.16122 1.74864 1.47046 1.32672C 0.785897 0.909902 0.374478 0.442766 0.241834 -0.0633775L -0.241833 0.0633765Z"/>
<path id="path18_stroke" d="M -0.241833 0.0633775C -0.0627161 0.74685 0.471799 1.30405 1.21043 1.75379C 1.94286 2.19844 2.92798 2.56665 4.05167 2.84966C 6.29158 3.41222 9.18417 3.67354 12.0704 3.66133C 14.9565 3.64858 17.8715 3.36273 20.16 2.83632C 21.3073 2.5719 22.3184 2.24037 23.086 1.85446C 23.8527 1.46825 24.4372 0.999531 24.6803 0.429725L 24.2204 0.233476C 24.0479 0.637745 23.5955 1.03792 22.8611 1.40792C 22.1276 1.77821 21.1733 2.09019 20.0478 2.34907C 17.7909 2.86928 14.931 3.14923 12.0682 3.16134C 9.20557 3.174 6.37527 2.91927 4.17362 2.36476C 3.07654 2.08923 2.16122 1.74864 1.47046 1.32673C 0.785897 0.909903 0.374478 0.442767 0.241834 -0.0633765L -0.241833 0.0633775Z"/>
<path id="path19_stroke" d="M -0.241833 0.063377C -0.0627161 0.746849 0.471799 1.30405 1.21043 1.75379C 1.94286 2.19844 2.92798 2.56664 4.05167 2.84965C 6.29158 3.41222 9.18417 3.67354 12.0704 3.66133C 14.9565 3.64858 17.8715 3.36273 20.16 2.83632C 21.3073 2.5719 22.3184 2.24037 23.086 1.85446C 23.8527 1.46825 24.4372 0.99953 24.6803 0.429725L 24.2204 0.233475C 24.0479 0.637745 23.5955 1.03792 22.8611 1.40792C 22.1276 1.77821 21.1733 2.09019 20.0478 2.34907C 17.7909 2.86928 14.931 3.14923 12.0682 3.16134C 9.20557 3.174 6.37527 2.91927 4.17362 2.36476C 3.07654 2.08923 2.16122 1.74864 1.47046 1.32673C 0.785897 0.909902 0.374478 0.442766 0.241834 -0.063377L -0.241833 0.063377Z"/>
<path id="path20_stroke" d="M -0.241833 0.063376C -0.0627161 0.746848 0.471799 1.30404 1.21043 1.75379C 1.94286 2.19844 2.92798 2.56664 4.05167 2.84965C 6.29158 3.41222 9.18417 3.67354 12.0704 3.66133C 14.9565 3.64857 17.8715 3.36273 20.16 2.83632C 21.3073 2.5719 22.3184 2.24037 23.086 1.85446C 23.8527 1.46825 24.4372 0.999529 24.6803 0.429724L 24.2204 0.233474C 24.0479 0.637744 23.5955 1.03792 22.8611 1.40792C 22.1276 1.77821 21.1733 2.09019 20.0478 2.34907C 17.7909 2.86928 14.931 3.14922 12.0682 3.16134C 9.20557 3.174 6.37527 2.91927 4.17362 2.36475C 3.07654 2.08923 2.16122 1.74864 1.47046 1.32672C 0.785897 0.909901 0.374478 0.442765 0.241834 -0.063378L -0.241833 0.063376Z"/>
<path id="path21_stroke" d="M -0.241833 0.0633765C -0.0627161 0.746849 0.471799 1.30405 1.21043 1.75379C 1.94286 2.19844 2.92798 2.56664 4.05167 2.84965C 6.29158 3.41222 9.18417 3.67354 12.0704 3.66133C 14.9565 3.64858 17.8715 3.36273 20.16 2.83632C 21.3073 2.5719 22.3184 2.24037 23.086 1.85446C 23.8527 1.46826 24.4372 0.999533 24.6803 0.429727L 24.2204 0.233477C 24.0479 0.637747 23.5955 1.03792 22.8611 1.40792C 22.1276 1.77821 21.1733 2.09019 20.0478 2.34907C 17.7909 2.86928 14.931 3.14923 12.0682 3.16134C 9.20557 3.174 6.37527 2.91927 4.17362 2.36476C 3.07654 2.08923 2.16122 1.74864 1.47046 1.32672C 0.785897 0.909902 0.374478 0.442766 0.241834 -0.0633775L -0.241833 0.0633765Z"/>
<path id="path22_stroke" d="M -0.241833 0.063379C -0.0627161 0.746851 0.471799 1.30405 1.21043 1.75379C 1.94286 2.19844 2.92798 2.56665 4.05167 2.84966C 6.29158 3.41222 9.18417 3.67354 12.0704 3.66133C 14.9565 3.64858 17.8715 3.36273 20.16 2.83633C 21.3073 2.5719 22.3184 2.24037 23.086 1.85446C 23.8527 1.46826 24.4372 0.999533 24.6803 0.429727L 24.2204 0.233477C 24.0479 0.637747 23.5955 1.03792 22.8611 1.40792C 22.1276 1.77821 21.1733 2.0902 20.0478 2.34907C 17.7909 2.86928 14.931 3.14923 12.0682 3.16134C 9.20557 3.174 6.37527 2.91927 4.17362 2.36476C 3.07654 2.08923 2.16122 1.74864 1.47046 1.32673C 0.785897 0.909904 0.374478 0.442768 0.241834 -0.0633749L -0.241833 0.063379Z"/>
<path id="path23_stroke" d="M -0.241832 0.0633749C -0.0627156 0.746847 0.4718 1.30404 1.21043 1.75379C 1.94286 2.19843 2.92798 2.56664 4.05167 2.84965C 6.29158 3.41222 9.18417 3.67354 12.0704 3.66133C 14.9565 3.64857 17.8715 3.36273 20.16 2.83632C 21.3073 2.57189 22.3184 2.24037 23.086 1.85446C 23.8527 1.46825 24.4372 0.999528 24.6803 0.429723L 24.2204 0.233473C 24.0479 0.637743 23.5955 1.03791 22.8611 1.40791C 22.1276 1.77821 21.1733 2.09019 20.0478 2.34907C 17.7908 2.86927 14.931 3.14922 12.0682 3.16134C 9.20557 3.174 6.37527 2.91927 4.17362 2.36475C 3.07654 2.08923 2.16122 1.74864 1.47046 1.32672C 0.785898 0.9099 0.374479 0.442764 0.241834 -0.063379L -0.241832 0.0633749Z"/>
<path id="path24_stroke" d="M -0.241832 0.063376C -0.0627156 0.746848 0.4718 1.30404 1.21043 1.75379C 1.94286 2.19844 2.92798 2.56664 4.05167 2.84965C 6.29158 3.41222 9.18417 3.67354 12.0704 3.66133C 14.9565 3.64857 17.8715 3.36273 20.16 2.83632C 21.3073 2.5719 22.3184 2.24037 23.086 1.85446C 23.8527 1.46825 24.4372 0.999529 24.6803 0.429724L 24.2204 0.233474C 24.0479 0.637744 23.5955 1.03792 22.8611 1.40792C 22.1276 1.77821 21.1733 2.09019 20.0478 2.34907C 17.7908 2.86928 14.931 3.14922 12.0682 3.16134C 9.20557 3.174 6.37527 2.91927 4.17362 2.36475C 3.07654 2.08923 2.16122 1.74864 1.47046 1.32672C 0.785898 0.909901 0.374479 0.442765 0.241834 -0.063378L -0.241832 0.063376Z"/>
<path id="path25_stroke" d="M -0.241834 0.063379C -0.0627171 0.746851 0.471798 1.30405 1.21043 1.75379C 1.94285 2.19844 2.92797 2.56665 4.05167 2.84966C 6.29158 3.41222 9.18417 3.67354 12.0704 3.66133C 14.9565 3.64858 17.8715 3.36273 20.16 2.83633C 21.3073 2.5719 22.3184 2.24037 23.086 1.85446C 23.8527 1.46826 24.4372 0.999533 24.6803 0.429727L 24.2204 0.233477C 24.0479 0.637747 23.5955 1.03792 22.8611 1.40792C 22.1276 1.77821 21.1733 2.0902 20.0478 2.34907C 17.7909 2.86928 14.931 3.14923 12.0682 3.16134C 9.20557 3.174 6.37527 2.91927 4.17362 2.36476C 3.07654 2.08923 2.16122 1.74864 1.47046 1.32673C 0.785896 0.909904 0.374477 0.442768 0.241833 -0.0633749L -0.241834 0.063379Z"/>
<path id="path26_stroke" d="M -0.237796 0.0771535L 0.219453 1.48645L 0.695047 1.33215L 0.237797 -0.0771535L -0.237796 0.0771535Z"/>
<path id="path27_stroke" d="M -0.240329 0.0688621L 0.324997 2.04188L 0.805655 1.90416L 0.24033 -0.0688601L -0.240329 0.0688621Z"/>
<path id="path28_stroke" d="M -0.241748 0.0637064L 0.356834 2.33517L 0.840328 2.20775L 0.241746 -0.0637054L -0.241748 0.0637064Z"/>
<path id="path29_stroke" d="M -0.243068 0.0584683L 0.3472 2.51231L 0.833334 2.39537L 0.243066 -0.0584703L -0.243068 0.0584683Z"/>
<path id="path30_stroke" d="M -0.246771 0.0400446L 0.16891 2.60165L 0.662454 2.52157L 0.246773 -0.0400446L -0.246771 0.0400446Z"/>
<path id="path31_stroke" d="M -0.245621 0.0465809L 0.24488 2.63306L 0.736124 2.5399L 0.245623 -0.0465789L -0.245621 0.0465809Z"/>
<path id="path32_stroke" d="M -0.247696 0.0338725L 0.0765379 2.40481L 0.571927 2.33707L 0.247694 -0.0338735L -0.247696 0.0338725Z"/>
<path id="path33_stroke" d="M -0.248814 0.0243213L -0.0243452 2.32065L 0.473283 2.27201L 0.248814 -0.0243224L -0.248814 0.0243213Z"/>
<path id="path34_stroke" d="M -0.249054 0.0217173L -0.0495298 2.30976L 0.44858 2.26632L 0.249056 -0.0217193L -0.249054 0.0217173Z"/>
<path id="path35_stroke" d="M -0.249224 0.0197045L -0.0912634 2.0176L 0.407181 1.97819L 0.24922 -0.0197045L -0.249224 0.0197045Z"/>
<path id="path36_stroke" d="M -0.216688 -0.00536192L -0.249945 1.54487L 0.24994 1.55559L 0.283197 0.00536192L -0.216688 -0.00536192Z"/>
<path id="path37_stroke" d="M -0.250012 -1.01196e-06L -0.250012 2.38752L 0.249988 2.38752L 0.249988 -1.01196e-06L -0.250012 -1.01196e-06Z"/>
<path id="path38_stroke" d="M -0.249988 -5.05981e-07L -0.249988 2.39581L 0.250012 2.39581L 0.250012 -5.05981e-07L -0.249988 -5.05981e-07Z"/>
<path id="path39_stroke" d="M -0.250024 -1.01196e-06L -0.250024 2.38752L 0.249976 2.38752L 0.249976 -1.01196e-06L -0.250024 -1.01196e-06Z"/>
<path id="path40_stroke" d="M -0.249988 0L -0.249988 2.38752L 0.250012 2.38752L 0.250012 0L -0.249988 0Z"/>
<path id="path41_stroke" d="M -0.249988 5.05981e-07L -0.249988 2.38752L 0.250012 2.38752L 0.250012 5.05981e-07L -0.249988 5.05981e-07Z"/>
<path id="path42_stroke" d="M -0.249988 1.01196e-06L -0.249988 2.38752L 0.250012 2.38752L 0.250012 1.01196e-06L -0.249988 1.01196e-06Z"/>
<path id="path43_stroke" d="M 0.695207 2.52688L 0.246272 -0.043022L -0.24627 0.0430199L 0.202666 2.61292L 0.695207 2.52688Z"/>
<path id="path44_stroke" d="M 0.695206 2.52688L 0.246271 -0.043022L -0.24627 0.0430199L 0.202665 2.61292L 0.695206 2.52688Z"/>
<path id="path45_stroke" d="M 0.423959 2.44445L 0.249375 -0.0176815L -0.249373 0.0176835L -0.0747887 2.47981L 0.423959 2.44445Z"/>
<path id="path46_stroke" d="M 0.248406 2.81361L 0.564323 0.0281737L 0.0675084 -0.0281737L -0.248408 2.75726L 0.248406 2.81361Z"/>
<path id="path47_stroke" d="M 0.248408 2.81361L 0.564325 0.0281737L 0.0675104 -0.0281737L -0.248406 2.75726L 0.248408 2.81361Z"/>
<path id="path48_stroke" d="M 0.248325 2.81434L 0.572554 0.0289051L 0.0759071 -0.0289051L -0.248321 2.75653L 0.248325 2.81434Z"/>
<path id="path49_stroke" d="M 0.248409 2.81362L 0.564326 0.0281716L 0.0675114 -0.0281757L -0.248405 2.75727L 0.248409 2.81362Z"/>
<path id="path50_stroke" d="M 0.248315 2.80614L 0.572544 0.0289913L 0.075917 -0.0289892L -0.248311 2.74816L 0.248315 2.80614Z"/>
</defs>
</svg>
