<svg width="182" height="23" viewBox="0 0 182 23" version="1.1" xmlns="http://www.w3.org/2000/svg" xmlns:xlink="http://www.w3.org/1999/xlink">
<title>Group</title>
<desc>Created using Figma</desc>
<g id="Canvas" transform="translate(-1521 -2028)">
<g id="Group">
<g id="Vector">
<use xlink:href="#path10_fill" transform="translate(1521.2 2028.9)" fill="#FFFFFF"/>
</g>
<g id="Vector">
<use xlink:href="#path11_fill" transform="translate(1556.9 2028.9)" fill="#FFFFFF"/>
</g>
<g id="Vector">
<use xlink:href="#path12_fill" transform="translate(1594.8 2028.9)" fill="#FFFFFF"/>
</g>
<g id="Vector">
<use xlink:href="#path13_fill" transform="translate(1630.4 2028.9)" fill="#FFFFFF"/>
</g>
<g id="Vector">
<use xlink:href="#path14_fill" transform="translate(1650.4 2028.9)" fill="#FFFFFF"/>
</g>
<g id="Vector">
<use xlink:href="#path15_fill" transform="translate(1687.4 2028.9)" fill="#FFFFFF"/>
</g>
</g>
</g>
<defs>
<path id="path10_fill" d="M 10.1 2.19999L 10.1 22L 7.7 22L 7.7 2.19999L -7.62939e-07 2.19999L -7.62939e-07 -3.05176e-06L 17.8 -3.05176e-06L 17.8 2.19999L 10.1 2.19999Z"/>
<path id="path11_fill" d="M 15.3 22L 15.3 11.4L 2.3 11.4L 2.3 22L 0 22L 0 -3.05176e-06L 2.3 -3.05176e-06L 2.3 9.19999L 15.3 9.19999L 15.3 -3.05176e-06L 17.6 -3.05176e-06L 17.6 22L 15.3 22Z"/>
<path id="path12_fill" d="M 14.4 22L 9.4 12.7L 2.3 12.7L 2.3 22L 1.52588e-06 22L 1.52588e-06 -3.05176e-06L 9.4 -3.05176e-06C 13.6 -3.05176e-06 16.5 2.39999 16.5 6.19999C 16.5 9.19999 14.7 11.4 11.8 12.3L 17 22L 14.4 22ZM 9.3 2.19999L 2.3 2.19999L 2.3 10.5L 9.4 10.5C 12.3 10.5 14 8.80001 14 6.40001C 14 3.80001 12.2 2.19999 9.3 2.19999Z"/>
<path id="path13_fill" d="M 0 22L 0 -3.05176e-06L 2.3 -3.05176e-06L 2.3 22L 0 22Z"/>
<path id="path14_fill" d="M 19.4 -3.05176e-06L 10.9 22L 8.5 22L 0 -3.05176e-06L 2.5 -3.05176e-06L 9.7 19.2L 17.1 -3.05176e-06L 19.4 -3.05176e-06Z"/>
<path id="path15_fill" d="M 0 22L 0 -3.05176e-06L 15.1 -3.05176e-06L 15.1 2.19999L 2.3 2.19999L 2.3 9.3L 13.5 9.3L 13.5 11.4L 2.3 11.4L 2.3 19.8L 15.5 19.8L 15.5 22L 0 22Z"/>
</defs>
</svg>
